%FSLAX45Y45*%
G04 Gerber Fmt 4.5, Leading zero omitted, Abs format (unit mm)*
G04 Created by KiCad (PCBNEW (5.1.2-1)-1) date 2020-01-30 23:37:23*
%MOMM*%
%LPD*%
G04 APERTURE LIST*
%ADD10C,0.050000*%
%ADD11C,0.200000*%
%ADD12C,0.300000*%
G04 APERTURE END LIST*
D10*
X11200000Y-19500000D02*
G75*
G02X10900000Y-19800000I-300000J0D01*
G01*
X10900000Y-4800000D02*
G75*
G02X11200000Y-5100000I0J-300000D01*
G01*
X1200000Y-5100000D02*
G75*
G02X1500000Y-4800000I300000J0D01*
G01*
X1500000Y-19800000D02*
G75*
G02X1200000Y-19500000I0J300000D01*
G01*
X11200000Y-5100000D02*
X11200000Y-19500000D01*
X1500000Y-4800000D02*
X10900000Y-4800000D01*
X1200000Y-10100000D02*
X1200000Y-5100000D01*
X1200000Y-10100000D02*
X1200000Y-19500000D01*
X1500000Y-19800000D02*
X10900000Y-19800000D01*
D11*
X1775000Y-14951300D02*
X1805000Y-14981300D01*
X1805000Y-14951300D02*
X1775000Y-14981300D01*
X1975000Y-15675000D02*
X2005000Y-15705000D01*
X2005000Y-15675000D02*
X1975000Y-15705000D01*
X2081000Y-17731000D02*
X2111000Y-17761000D01*
X2111000Y-17731000D02*
X2081000Y-17761000D01*
X2085000Y-16685000D02*
X2115000Y-16715000D01*
X2115000Y-16685000D02*
X2085000Y-16715000D01*
X2085000Y-17185000D02*
X2115000Y-17215000D01*
X2115000Y-17185000D02*
X2085000Y-17215000D01*
X2085000Y-18285000D02*
X2115000Y-18315000D01*
X2115000Y-18285000D02*
X2085000Y-18315000D01*
X2365000Y-16685000D02*
X2395000Y-16715000D01*
X2395000Y-16685000D02*
X2365000Y-16715000D01*
X2375000Y-17735000D02*
X2405000Y-17765000D01*
X2405000Y-17735000D02*
X2375000Y-17765000D01*
X2385000Y-17185000D02*
X2415000Y-17215000D01*
X2415000Y-17185000D02*
X2385000Y-17215000D01*
X2530000Y-18285000D02*
X2560000Y-18315000D01*
X2560000Y-18285000D02*
X2530000Y-18315000D01*
X2580000Y-16185000D02*
X2610000Y-16215000D01*
X2610000Y-16185000D02*
X2580000Y-16215000D01*
X2595000Y-15675000D02*
X2625000Y-15705000D01*
X2625000Y-15675000D02*
X2595000Y-15705000D01*
X2625000Y-15865000D02*
X2655000Y-15895000D01*
X2655000Y-15865000D02*
X2625000Y-15895000D01*
X2671160Y-15899620D02*
X2701160Y-15929620D01*
X2701160Y-15899620D02*
X2671160Y-15929620D01*
X2895000Y-15905000D02*
X2925000Y-15935000D01*
X2925000Y-15905000D02*
X2895000Y-15935000D01*
X2985000Y-16190000D02*
X3015000Y-16220000D01*
X3015000Y-16190000D02*
X2985000Y-16220000D01*
X3385000Y-15855000D02*
X3415000Y-15885000D01*
X3415000Y-15855000D02*
X3385000Y-15885000D01*
X3385000Y-16185000D02*
X3415000Y-16215000D01*
X3415000Y-16185000D02*
X3385000Y-16215000D01*
X3475000Y-15905000D02*
X3505000Y-15935000D01*
X3505000Y-15905000D02*
X3475000Y-15935000D01*
X3495000Y-15265000D02*
X3525000Y-15295000D01*
X3525000Y-15265000D02*
X3495000Y-15295000D01*
X3580000Y-15270000D02*
X3610000Y-15300000D01*
X3610000Y-15270000D02*
X3580000Y-15300000D01*
X3615000Y-15405000D02*
X3645000Y-15435000D01*
X3645000Y-15405000D02*
X3615000Y-15435000D01*
X3615000Y-15525000D02*
X3645000Y-15555000D01*
X3645000Y-15525000D02*
X3615000Y-15555000D01*
X3665000Y-15185000D02*
X3695000Y-15215000D01*
X3695000Y-15185000D02*
X3665000Y-15215000D01*
X3677475Y-15893529D02*
X3707475Y-15923529D01*
X3707475Y-15893529D02*
X3677475Y-15923529D01*
X3710000Y-15310000D02*
X3740000Y-15340000D01*
X3740000Y-15310000D02*
X3710000Y-15340000D01*
X3735000Y-14085000D02*
X3765000Y-14115000D01*
X3765000Y-14085000D02*
X3735000Y-14115000D01*
X3766430Y-14031426D02*
X3796430Y-14061426D01*
X3796430Y-14031426D02*
X3766430Y-14061426D01*
X3775000Y-13335000D02*
X3805000Y-13365000D01*
X3805000Y-13335000D02*
X3775000Y-13365000D01*
X3785000Y-16185000D02*
X3815000Y-16215000D01*
X3815000Y-16185000D02*
X3785000Y-16215000D01*
X3804886Y-13983525D02*
X3834886Y-14013525D01*
X3834886Y-13983525D02*
X3804886Y-14013525D01*
X3805000Y-13785000D02*
X3835000Y-13815000D01*
X3835000Y-13785000D02*
X3805000Y-13815000D01*
X3815000Y-13385000D02*
X3845000Y-13415000D01*
X3845000Y-13385000D02*
X3815000Y-13415000D01*
X4035000Y-13835000D02*
X4065000Y-13865000D01*
X4065000Y-13835000D02*
X4035000Y-13865000D01*
X4075000Y-13885000D02*
X4105000Y-13915000D01*
X4105000Y-13885000D02*
X4075000Y-13915000D01*
X4135000Y-13005000D02*
X4165000Y-13035000D01*
X4165000Y-13005000D02*
X4135000Y-13035000D01*
X4185000Y-13285000D02*
X4215000Y-13315000D01*
X4215000Y-13285000D02*
X4185000Y-13315000D01*
X4185000Y-13735000D02*
X4215000Y-13765000D01*
X4215000Y-13735000D02*
X4185000Y-13765000D01*
X4185000Y-13935000D02*
X4215000Y-13965000D01*
X4215000Y-13935000D02*
X4185000Y-13965000D01*
X4185000Y-16675000D02*
X4215000Y-16705000D01*
X4215000Y-16675000D02*
X4185000Y-16705000D01*
X4335000Y-14385000D02*
X4365000Y-14415000D01*
X4365000Y-14385000D02*
X4335000Y-14415000D01*
X4340000Y-15480000D02*
X4370000Y-15510000D01*
X4370000Y-15480000D02*
X4340000Y-15510000D01*
X4345000Y-15270000D02*
X4375000Y-15300000D01*
X4375000Y-15270000D02*
X4345000Y-15300000D01*
X4385000Y-14785000D02*
X4415000Y-14815000D01*
X4415000Y-14785000D02*
X4385000Y-14815000D01*
X4535000Y-14055000D02*
X4565000Y-14085000D01*
X4565000Y-14055000D02*
X4535000Y-14085000D01*
X4635000Y-14005000D02*
X4665000Y-14035000D01*
X4665000Y-14005000D02*
X4635000Y-14035000D01*
X4635000Y-15270000D02*
X4665000Y-15300000D01*
X4665000Y-15270000D02*
X4635000Y-15300000D01*
X4635000Y-15500000D02*
X4665000Y-15530000D01*
X4665000Y-15500000D02*
X4635000Y-15530000D01*
X4734188Y-13954188D02*
X4764188Y-13984188D01*
X4764188Y-13954188D02*
X4734188Y-13984188D01*
X4835000Y-13785000D02*
X4865000Y-13815000D01*
X4865000Y-13785000D02*
X4835000Y-13815000D01*
X4850141Y-13499859D02*
X4880141Y-13529859D01*
X4880141Y-13499859D02*
X4850141Y-13529859D01*
X4865000Y-14975000D02*
X4895000Y-15005000D01*
X4895000Y-14975000D02*
X4865000Y-15005000D01*
X4865000Y-15185000D02*
X4895000Y-15215000D01*
X4895000Y-15185000D02*
X4865000Y-15215000D01*
X4885000Y-13385000D02*
X4915000Y-13415000D01*
X4915000Y-13385000D02*
X4885000Y-13415000D01*
X4905000Y-13547759D02*
X4935000Y-13577759D01*
X4935000Y-13547759D02*
X4905000Y-13577759D01*
X4935000Y-14435000D02*
X4965000Y-14465000D01*
X4965000Y-14435000D02*
X4935000Y-14465000D01*
X4950141Y-13599859D02*
X4980141Y-13629859D01*
X4980141Y-13599859D02*
X4950141Y-13629859D01*
X4985000Y-14495000D02*
X5015000Y-14525000D01*
X5015000Y-14495000D02*
X4985000Y-14525000D01*
X5035000Y-14525000D02*
X5065000Y-14555000D01*
X5065000Y-14525000D02*
X5035000Y-14555000D01*
X5060000Y-14980000D02*
X5090000Y-15010000D01*
X5090000Y-14980000D02*
X5060000Y-15010000D01*
X5065000Y-15185000D02*
X5095000Y-15215000D01*
X5095000Y-15185000D02*
X5065000Y-15215000D01*
X5085000Y-13385000D02*
X5115000Y-13415000D01*
X5115000Y-13385000D02*
X5085000Y-13415000D01*
X5085000Y-14554999D02*
X5115000Y-14584999D01*
X5115000Y-14554999D02*
X5085000Y-14584999D01*
X5138871Y-12948870D02*
X5168871Y-12978870D01*
X5168871Y-12948870D02*
X5138871Y-12978870D01*
X5185000Y-13985000D02*
X5215000Y-14015000D01*
X5215000Y-13985000D02*
X5185000Y-14015000D01*
X5245986Y-14354362D02*
X5275986Y-14384362D01*
X5275986Y-14354362D02*
X5245986Y-14384362D01*
X5293886Y-14399188D02*
X5323886Y-14429188D01*
X5323886Y-14399188D02*
X5293886Y-14429188D01*
X5315000Y-13905000D02*
X5345000Y-13935000D01*
X5345000Y-13905000D02*
X5315000Y-13935000D01*
X5385000Y-18120000D02*
X5415000Y-18150000D01*
X5415000Y-18120000D02*
X5385000Y-18150000D01*
X5385000Y-18350000D02*
X5415000Y-18380000D01*
X5415000Y-18350000D02*
X5385000Y-18380000D01*
X5665000Y-19185000D02*
X5695000Y-19215000D01*
X5695000Y-19185000D02*
X5665000Y-19215000D01*
X5670000Y-18340000D02*
X5700000Y-18370000D01*
X5700000Y-18340000D02*
X5670000Y-18370000D01*
X5675000Y-13935000D02*
X5705000Y-13965000D01*
X5705000Y-13935000D02*
X5675000Y-13965000D01*
X5675000Y-18120000D02*
X5705000Y-18150000D01*
X5705000Y-18120000D02*
X5675000Y-18150000D01*
X5685000Y-13605000D02*
X5715000Y-13635000D01*
X5715000Y-13605000D02*
X5685000Y-13635000D01*
X5693870Y-13183870D02*
X5723870Y-13213870D01*
X5723870Y-13183870D02*
X5693870Y-13213870D01*
X5905000Y-11385000D02*
X5935000Y-11415000D01*
X5935000Y-11385000D02*
X5905000Y-11415000D01*
X5935000Y-17625000D02*
X5965000Y-17655000D01*
X5965000Y-17625000D02*
X5935000Y-17655000D01*
X6015000Y-17615000D02*
X6045000Y-17645000D01*
X6045000Y-17615000D02*
X6015000Y-17645000D01*
X6065000Y-13565000D02*
X6095000Y-13595000D01*
X6095000Y-13565000D02*
X6065000Y-13595000D01*
X6105000Y-17575000D02*
X6135000Y-17605000D01*
X6135000Y-17575000D02*
X6105000Y-17605000D01*
X6235000Y-11385000D02*
X6265000Y-11415000D01*
X6265000Y-11385000D02*
X6235000Y-11415000D01*
X6275000Y-11195000D02*
X6305000Y-11225000D01*
X6305000Y-11195000D02*
X6275000Y-11225000D01*
X6328296Y-10958296D02*
X6358296Y-10988296D01*
X6358296Y-10958296D02*
X6328296Y-10988296D01*
X6360000Y-18760000D02*
X6390000Y-18790000D01*
X6390000Y-18760000D02*
X6360000Y-18790000D01*
X6405000Y-17745000D02*
X6435000Y-17775000D01*
X6435000Y-17745000D02*
X6405000Y-17775000D01*
X6405000Y-17945000D02*
X6435000Y-17975000D01*
X6435000Y-17945000D02*
X6405000Y-17975000D01*
X6615000Y-17575000D02*
X6645000Y-17605000D01*
X6645000Y-17575000D02*
X6615000Y-17605000D01*
X6660950Y-18760950D02*
X6690950Y-18790950D01*
X6690950Y-18760950D02*
X6660950Y-18790950D01*
X6699102Y-10965000D02*
X6729102Y-10995000D01*
X6729102Y-10965000D02*
X6699102Y-10995000D01*
X6705000Y-11195000D02*
X6735000Y-11225000D01*
X6735000Y-11195000D02*
X6705000Y-11225000D01*
X6725000Y-11465000D02*
X6755000Y-11495000D01*
X6755000Y-11465000D02*
X6725000Y-11495000D01*
X7980000Y-7990000D02*
X8010000Y-8020000D01*
X8010000Y-7990000D02*
X7980000Y-8020000D01*
X7980000Y-8885000D02*
X8010000Y-8915000D01*
X8010000Y-8885000D02*
X7980000Y-8915000D01*
X7980000Y-9185000D02*
X8010000Y-9215000D01*
X8010000Y-9185000D02*
X7980000Y-9215000D01*
X7985000Y-7690000D02*
X8015000Y-7720000D01*
X8015000Y-7690000D02*
X7985000Y-7720000D01*
X7985000Y-8285000D02*
X8015000Y-8315000D01*
X8015000Y-8285000D02*
X7985000Y-8315000D01*
X7985000Y-8585000D02*
X8015000Y-8615000D01*
X8015000Y-8585000D02*
X7985000Y-8615000D01*
X8035000Y-12085000D02*
X8065000Y-12115000D01*
X8065000Y-12085000D02*
X8035000Y-12115000D01*
X8035000Y-12485000D02*
X8065000Y-12515000D01*
X8065000Y-12485000D02*
X8035000Y-12515000D01*
X8035000Y-12885000D02*
X8065000Y-12915000D01*
X8065000Y-12885000D02*
X8035000Y-12915000D01*
X8035000Y-13285000D02*
X8065000Y-13315000D01*
X8065000Y-13285000D02*
X8035000Y-13315000D01*
X8035000Y-13685000D02*
X8065000Y-13715000D01*
X8065000Y-13685000D02*
X8035000Y-13715000D01*
X8035000Y-14085000D02*
X8065000Y-14115000D01*
X8065000Y-14085000D02*
X8035000Y-14115000D01*
X8385000Y-9985000D02*
X8415000Y-10015000D01*
X8415000Y-9985000D02*
X8385000Y-10015000D01*
X8385000Y-10285000D02*
X8415000Y-10315000D01*
X8415000Y-10285000D02*
X8385000Y-10315000D01*
X8385000Y-10585000D02*
X8415000Y-10615000D01*
X8415000Y-10585000D02*
X8385000Y-10615000D01*
X8385000Y-10885000D02*
X8415000Y-10915000D01*
X8415000Y-10885000D02*
X8385000Y-10915000D01*
X8385000Y-11185000D02*
X8415000Y-11215000D01*
X8415000Y-11185000D02*
X8385000Y-11215000D01*
X8385000Y-11485000D02*
X8415000Y-11515000D01*
X8415000Y-11485000D02*
X8385000Y-11515000D01*
X8435000Y-12085000D02*
X8465000Y-12115000D01*
X8465000Y-12085000D02*
X8435000Y-12115000D01*
X8435000Y-12485000D02*
X8465000Y-12515000D01*
X8465000Y-12485000D02*
X8435000Y-12515000D01*
X8435000Y-12885000D02*
X8465000Y-12915000D01*
X8465000Y-12885000D02*
X8435000Y-12915000D01*
X8435000Y-13285000D02*
X8465000Y-13315000D01*
X8465000Y-13285000D02*
X8435000Y-13315000D01*
X8435000Y-13685000D02*
X8465000Y-13715000D01*
X8465000Y-13685000D02*
X8435000Y-13715000D01*
X8435000Y-14085000D02*
X8465000Y-14115000D01*
X8465000Y-14085000D02*
X8435000Y-14115000D01*
X8585000Y-7985000D02*
X8615000Y-8015000D01*
X8615000Y-7985000D02*
X8585000Y-8015000D01*
X8585000Y-8285000D02*
X8615000Y-8315000D01*
X8615000Y-8285000D02*
X8585000Y-8315000D01*
X8585000Y-8885000D02*
X8615000Y-8915000D01*
X8615000Y-8885000D02*
X8585000Y-8915000D01*
X8595000Y-7685000D02*
X8625000Y-7715000D01*
X8625000Y-7685000D02*
X8595000Y-7715000D01*
X8595000Y-8585000D02*
X8625000Y-8615000D01*
X8625000Y-8585000D02*
X8595000Y-8615000D01*
X8595000Y-9185000D02*
X8625000Y-9215000D01*
X8625000Y-9185000D02*
X8595000Y-9215000D01*
X3550000Y-16490000D02*
G75*
G03X3550000Y-16490000I-20000J0D01*
G01*
X3550000Y-17110000D02*
G75*
G03X3550000Y-17110000I-20000J0D01*
G01*
X3550000Y-17390000D02*
G75*
G03X3550000Y-17390000I-20000J0D01*
G01*
X3550000Y-18020000D02*
G75*
G03X3550000Y-18020000I-20000J0D01*
G01*
X1985000Y-15290000D02*
X1985000Y-15340000D01*
X1960000Y-15315000D02*
X2010000Y-15315000D01*
X2895000Y-17640000D02*
X2895000Y-17690000D01*
X2870000Y-17665000D02*
X2920000Y-17665000D01*
X2905000Y-16705000D02*
X2905000Y-16755000D01*
X2880000Y-16730000D02*
X2930000Y-16730000D01*
X4200000Y-17640000D02*
X4200000Y-17690000D01*
X4175000Y-17665000D02*
X4225000Y-17665000D01*
X6024998Y-17950000D02*
X6024998Y-18000000D01*
X5999998Y-17975000D02*
X6049998Y-17975000D01*
X6160000Y-18765000D02*
X6160000Y-18815000D01*
X6135000Y-18790000D02*
X6185000Y-18790000D01*
X6880000Y-18760000D02*
X6880000Y-18810000D01*
X6855000Y-18785000D02*
X6905000Y-18785000D01*
X1460000Y-5275000D02*
X1460000Y-5325000D01*
X1435000Y-5300000D02*
X1485000Y-5300000D01*
X1530294Y-5105294D02*
X1530294Y-5155294D01*
X1505294Y-5130294D02*
X1555294Y-5130294D01*
X1530294Y-5444706D02*
X1530294Y-5494706D01*
X1505294Y-5469706D02*
X1555294Y-5469706D01*
X1700000Y-5035000D02*
X1700000Y-5085000D01*
X1675000Y-5060000D02*
X1725000Y-5060000D01*
X1700000Y-5515000D02*
X1700000Y-5565000D01*
X1675000Y-5540000D02*
X1725000Y-5540000D01*
X1869706Y-5105294D02*
X1869706Y-5155294D01*
X1844706Y-5130294D02*
X1894706Y-5130294D01*
X1869706Y-5444706D02*
X1869706Y-5494706D01*
X1844706Y-5469706D02*
X1894706Y-5469706D01*
X1940000Y-5275000D02*
X1940000Y-5325000D01*
X1915000Y-5300000D02*
X1965000Y-5300000D01*
X10460000Y-5275000D02*
X10460000Y-5325000D01*
X10435000Y-5300000D02*
X10485000Y-5300000D01*
X10530294Y-5105294D02*
X10530294Y-5155294D01*
X10505294Y-5130294D02*
X10555294Y-5130294D01*
X10530294Y-5444706D02*
X10530294Y-5494706D01*
X10505294Y-5469706D02*
X10555294Y-5469706D01*
X10700000Y-5035000D02*
X10700000Y-5085000D01*
X10675000Y-5060000D02*
X10725000Y-5060000D01*
X10700000Y-5515000D02*
X10700000Y-5565000D01*
X10675000Y-5540000D02*
X10725000Y-5540000D01*
X10869706Y-5105294D02*
X10869706Y-5155294D01*
X10844706Y-5130294D02*
X10894706Y-5130294D01*
X10869706Y-5444706D02*
X10869706Y-5494706D01*
X10844706Y-5469706D02*
X10894706Y-5469706D01*
X10940000Y-5275000D02*
X10940000Y-5325000D01*
X10915000Y-5300000D02*
X10965000Y-5300000D01*
X1460000Y-19275000D02*
X1460000Y-19325000D01*
X1435000Y-19300000D02*
X1485000Y-19300000D01*
X1530294Y-19105294D02*
X1530294Y-19155294D01*
X1505294Y-19130294D02*
X1555294Y-19130294D01*
X1530294Y-19444706D02*
X1530294Y-19494706D01*
X1505294Y-19469706D02*
X1555294Y-19469706D01*
X1700000Y-19035000D02*
X1700000Y-19085000D01*
X1675000Y-19060000D02*
X1725000Y-19060000D01*
X1700000Y-19515000D02*
X1700000Y-19565000D01*
X1675000Y-19540000D02*
X1725000Y-19540000D01*
X1869706Y-19105294D02*
X1869706Y-19155294D01*
X1844706Y-19130294D02*
X1894706Y-19130294D01*
X1869706Y-19444706D02*
X1869706Y-19494706D01*
X1844706Y-19469706D02*
X1894706Y-19469706D01*
X1940000Y-19275000D02*
X1940000Y-19325000D01*
X1915000Y-19300000D02*
X1965000Y-19300000D01*
X10460000Y-19275000D02*
X10460000Y-19325000D01*
X10435000Y-19300000D02*
X10485000Y-19300000D01*
X10530294Y-19105294D02*
X10530294Y-19155294D01*
X10505294Y-19130294D02*
X10555294Y-19130294D01*
X10530294Y-19444706D02*
X10530294Y-19494706D01*
X10505294Y-19469706D02*
X10555294Y-19469706D01*
X10700000Y-19035000D02*
X10700000Y-19085000D01*
X10675000Y-19060000D02*
X10725000Y-19060000D01*
X10700000Y-19515000D02*
X10700000Y-19565000D01*
X10675000Y-19540000D02*
X10725000Y-19540000D01*
X10869706Y-19105294D02*
X10869706Y-19155294D01*
X10844706Y-19130294D02*
X10894706Y-19130294D01*
X10869706Y-19444706D02*
X10869706Y-19494706D01*
X10844706Y-19469706D02*
X10894706Y-19469706D01*
X10940000Y-19275000D02*
X10940000Y-19325000D01*
X10915000Y-19300000D02*
X10965000Y-19300000D01*
X9205356Y-15395356D02*
X9205356Y-15324644D01*
X9134644Y-15324644D01*
X9134644Y-15395356D01*
X9205356Y-15395356D01*
X9205356Y-15895356D02*
X9205356Y-15824644D01*
X9134644Y-15824644D01*
X9134644Y-15895356D01*
X9205356Y-15895356D01*
X9705356Y-15645356D02*
X9705356Y-15574644D01*
X9634644Y-15574644D01*
X9634644Y-15645356D01*
X9705356Y-15645356D01*
X4081356Y-19635356D02*
X4081356Y-19564644D01*
X4010644Y-19564644D01*
X4010644Y-19635356D01*
X4081356Y-19635356D01*
X4335356Y-19635356D02*
X4335356Y-19564644D01*
X4264644Y-19564644D01*
X4264644Y-19635356D01*
X4335356Y-19635356D01*
X1535356Y-14335356D02*
X1535356Y-14264644D01*
X1464644Y-14264644D01*
X1464644Y-14335356D01*
X1535356Y-14335356D01*
X1535356Y-14589356D02*
X1535356Y-14518644D01*
X1464644Y-14518644D01*
X1464644Y-14589356D01*
X1535356Y-14589356D01*
X1535356Y-14843356D02*
X1535356Y-14772644D01*
X1464644Y-14772644D01*
X1464644Y-14843356D01*
X1535356Y-14843356D01*
X1535356Y-15097356D02*
X1535356Y-15026644D01*
X1464644Y-15026644D01*
X1464644Y-15097356D01*
X1535356Y-15097356D01*
X1535356Y-15351356D02*
X1535356Y-15280644D01*
X1464644Y-15280644D01*
X1464644Y-15351356D01*
X1535356Y-15351356D01*
X1535356Y-15605356D02*
X1535356Y-15534644D01*
X1464644Y-15534644D01*
X1464644Y-15605356D01*
X1535356Y-15605356D01*
X7081356Y-7865356D02*
X7081356Y-7794644D01*
X7010644Y-7794644D01*
X7010644Y-7865356D01*
X7081356Y-7865356D01*
X7081356Y-8119356D02*
X7081356Y-8048644D01*
X7010644Y-8048644D01*
X7010644Y-8119356D01*
X7081356Y-8119356D01*
X7081356Y-8373356D02*
X7081356Y-8302644D01*
X7010644Y-8302644D01*
X7010644Y-8373356D01*
X7081356Y-8373356D01*
X7081356Y-8627356D02*
X7081356Y-8556644D01*
X7010644Y-8556644D01*
X7010644Y-8627356D01*
X7081356Y-8627356D01*
X7081356Y-8881356D02*
X7081356Y-8810644D01*
X7010644Y-8810644D01*
X7010644Y-8881356D01*
X7081356Y-8881356D01*
X7081356Y-9135356D02*
X7081356Y-9064644D01*
X7010644Y-9064644D01*
X7010644Y-9135356D01*
X7081356Y-9135356D01*
X7335356Y-7865356D02*
X7335356Y-7794644D01*
X7264644Y-7794644D01*
X7264644Y-7865356D01*
X7335356Y-7865356D01*
X7335356Y-8119356D02*
X7335356Y-8048644D01*
X7264644Y-8048644D01*
X7264644Y-8119356D01*
X7335356Y-8119356D01*
X7335356Y-8373356D02*
X7335356Y-8302644D01*
X7264644Y-8302644D01*
X7264644Y-8373356D01*
X7335356Y-8373356D01*
X7335356Y-8627356D02*
X7335356Y-8556644D01*
X7264644Y-8556644D01*
X7264644Y-8627356D01*
X7335356Y-8627356D01*
X7335356Y-8881356D02*
X7335356Y-8810644D01*
X7264644Y-8810644D01*
X7264644Y-8881356D01*
X7335356Y-8881356D01*
X7335356Y-9135356D02*
X7335356Y-9064644D01*
X7264644Y-9064644D01*
X7264644Y-9135356D01*
X7335356Y-9135356D01*
X3975356Y-9735356D02*
X3975356Y-9664644D01*
X3904644Y-9664644D01*
X3904644Y-9735356D01*
X3975356Y-9735356D01*
X3975356Y-9985356D02*
X3975356Y-9914644D01*
X3904644Y-9914644D01*
X3904644Y-9985356D01*
X3975356Y-9985356D01*
X10281356Y-15135356D02*
X10281356Y-15064644D01*
X10210644Y-15064644D01*
X10210644Y-15135356D01*
X10281356Y-15135356D01*
X10281356Y-15389356D02*
X10281356Y-15318644D01*
X10210644Y-15318644D01*
X10210644Y-15389356D01*
X10281356Y-15389356D01*
X10281356Y-15643356D02*
X10281356Y-15572644D01*
X10210644Y-15572644D01*
X10210644Y-15643356D01*
X10281356Y-15643356D01*
X10281356Y-15897356D02*
X10281356Y-15826644D01*
X10210644Y-15826644D01*
X10210644Y-15897356D01*
X10281356Y-15897356D01*
X10281356Y-16151356D02*
X10281356Y-16080644D01*
X10210644Y-16080644D01*
X10210644Y-16151356D01*
X10281356Y-16151356D01*
X10281356Y-16405356D02*
X10281356Y-16334644D01*
X10210644Y-16334644D01*
X10210644Y-16405356D01*
X10281356Y-16405356D01*
X10281356Y-16659356D02*
X10281356Y-16588644D01*
X10210644Y-16588644D01*
X10210644Y-16659356D01*
X10281356Y-16659356D01*
X10281356Y-16913356D02*
X10281356Y-16842644D01*
X10210644Y-16842644D01*
X10210644Y-16913356D01*
X10281356Y-16913356D01*
X10281356Y-17167356D02*
X10281356Y-17096644D01*
X10210644Y-17096644D01*
X10210644Y-17167356D01*
X10281356Y-17167356D01*
X10281356Y-17421356D02*
X10281356Y-17350644D01*
X10210644Y-17350644D01*
X10210644Y-17421356D01*
X10281356Y-17421356D01*
X10281356Y-17675356D02*
X10281356Y-17604644D01*
X10210644Y-17604644D01*
X10210644Y-17675356D01*
X10281356Y-17675356D01*
X10281356Y-17929356D02*
X10281356Y-17858644D01*
X10210644Y-17858644D01*
X10210644Y-17929356D01*
X10281356Y-17929356D01*
X10535356Y-15135356D02*
X10535356Y-15064644D01*
X10464644Y-15064644D01*
X10464644Y-15135356D01*
X10535356Y-15135356D01*
X10535356Y-15389356D02*
X10535356Y-15318644D01*
X10464644Y-15318644D01*
X10464644Y-15389356D01*
X10535356Y-15389356D01*
X10535356Y-15643356D02*
X10535356Y-15572644D01*
X10464644Y-15572644D01*
X10464644Y-15643356D01*
X10535356Y-15643356D01*
X10535356Y-15897356D02*
X10535356Y-15826644D01*
X10464644Y-15826644D01*
X10464644Y-15897356D01*
X10535356Y-15897356D01*
X10535356Y-16151356D02*
X10535356Y-16080644D01*
X10464644Y-16080644D01*
X10464644Y-16151356D01*
X10535356Y-16151356D01*
X10535356Y-16405356D02*
X10535356Y-16334644D01*
X10464644Y-16334644D01*
X10464644Y-16405356D01*
X10535356Y-16405356D01*
X10535356Y-16659356D02*
X10535356Y-16588644D01*
X10464644Y-16588644D01*
X10464644Y-16659356D01*
X10535356Y-16659356D01*
X10535356Y-16913356D02*
X10535356Y-16842644D01*
X10464644Y-16842644D01*
X10464644Y-16913356D01*
X10535356Y-16913356D01*
X10535356Y-17167356D02*
X10535356Y-17096644D01*
X10464644Y-17096644D01*
X10464644Y-17167356D01*
X10535356Y-17167356D01*
X10535356Y-17421356D02*
X10535356Y-17350644D01*
X10464644Y-17350644D01*
X10464644Y-17421356D01*
X10535356Y-17421356D01*
X10535356Y-17675356D02*
X10535356Y-17604644D01*
X10464644Y-17604644D01*
X10464644Y-17675356D01*
X10535356Y-17675356D01*
X10535356Y-17929356D02*
X10535356Y-17858644D01*
X10464644Y-17858644D01*
X10464644Y-17929356D01*
X10535356Y-17929356D01*
X6435356Y-7865356D02*
X6435356Y-7794644D01*
X6364644Y-7794644D01*
X6364644Y-7865356D01*
X6435356Y-7865356D01*
X6435356Y-8119356D02*
X6435356Y-8048644D01*
X6364644Y-8048644D01*
X6364644Y-8119356D01*
X6435356Y-8119356D01*
X6435356Y-8373356D02*
X6435356Y-8302644D01*
X6364644Y-8302644D01*
X6364644Y-8373356D01*
X6435356Y-8373356D01*
X6435356Y-8627356D02*
X6435356Y-8556644D01*
X6364644Y-8556644D01*
X6364644Y-8627356D01*
X6435356Y-8627356D01*
X6435356Y-8881356D02*
X6435356Y-8810644D01*
X6364644Y-8810644D01*
X6364644Y-8881356D01*
X6435356Y-8881356D01*
X6435356Y-9135356D02*
X6435356Y-9064644D01*
X6364644Y-9064644D01*
X6364644Y-9135356D01*
X6435356Y-9135356D01*
X6689356Y-7865356D02*
X6689356Y-7794644D01*
X6618644Y-7794644D01*
X6618644Y-7865356D01*
X6689356Y-7865356D01*
X6689356Y-8119356D02*
X6689356Y-8048644D01*
X6618644Y-8048644D01*
X6618644Y-8119356D01*
X6689356Y-8119356D01*
X6689356Y-8373356D02*
X6689356Y-8302644D01*
X6618644Y-8302644D01*
X6618644Y-8373356D01*
X6689356Y-8373356D01*
X6689356Y-8627356D02*
X6689356Y-8556644D01*
X6618644Y-8556644D01*
X6618644Y-8627356D01*
X6689356Y-8627356D01*
X6689356Y-8881356D02*
X6689356Y-8810644D01*
X6618644Y-8810644D01*
X6618644Y-8881356D01*
X6689356Y-8881356D01*
X6689356Y-9135356D02*
X6689356Y-9064644D01*
X6618644Y-9064644D01*
X6618644Y-9135356D01*
X6689356Y-9135356D01*
X3975356Y-8045356D02*
X3975356Y-7974644D01*
X3904644Y-7974644D01*
X3904644Y-8045356D01*
X3975356Y-8045356D01*
X3975356Y-8295356D02*
X3975356Y-8224644D01*
X3904644Y-8224644D01*
X3904644Y-8295356D01*
X3975356Y-8295356D01*
X7131356Y-12665356D02*
X7131356Y-12594644D01*
X7060644Y-12594644D01*
X7060644Y-12665356D01*
X7131356Y-12665356D01*
X7131356Y-12919356D02*
X7131356Y-12848644D01*
X7060644Y-12848644D01*
X7060644Y-12919356D01*
X7131356Y-12919356D01*
X7131356Y-13173356D02*
X7131356Y-13102644D01*
X7060644Y-13102644D01*
X7060644Y-13173356D01*
X7131356Y-13173356D01*
X7131356Y-13427356D02*
X7131356Y-13356644D01*
X7060644Y-13356644D01*
X7060644Y-13427356D01*
X7131356Y-13427356D01*
X7131356Y-13681356D02*
X7131356Y-13610644D01*
X7060644Y-13610644D01*
X7060644Y-13681356D01*
X7131356Y-13681356D01*
X7131356Y-13935356D02*
X7131356Y-13864644D01*
X7060644Y-13864644D01*
X7060644Y-13935356D01*
X7131356Y-13935356D01*
X7385356Y-12665356D02*
X7385356Y-12594644D01*
X7314644Y-12594644D01*
X7314644Y-12665356D01*
X7385356Y-12665356D01*
X7385356Y-12919356D02*
X7385356Y-12848644D01*
X7314644Y-12848644D01*
X7314644Y-12919356D01*
X7385356Y-12919356D01*
X7385356Y-13173356D02*
X7385356Y-13102644D01*
X7314644Y-13102644D01*
X7314644Y-13173356D01*
X7385356Y-13173356D01*
X7385356Y-13427356D02*
X7385356Y-13356644D01*
X7314644Y-13356644D01*
X7314644Y-13427356D01*
X7385356Y-13427356D01*
X7385356Y-13681356D02*
X7385356Y-13610644D01*
X7314644Y-13610644D01*
X7314644Y-13681356D01*
X7385356Y-13681356D01*
X7385356Y-13935356D02*
X7385356Y-13864644D01*
X7314644Y-13864644D01*
X7314644Y-13935356D01*
X7385356Y-13935356D01*
X3081356Y-19635356D02*
X3081356Y-19564644D01*
X3010644Y-19564644D01*
X3010644Y-19635356D01*
X3081356Y-19635356D01*
X3335356Y-19635356D02*
X3335356Y-19564644D01*
X3264644Y-19564644D01*
X3264644Y-19635356D01*
X3335356Y-19635356D01*
X7131356Y-10115356D02*
X7131356Y-10044644D01*
X7060644Y-10044644D01*
X7060644Y-10115356D01*
X7131356Y-10115356D01*
X7131356Y-10369356D02*
X7131356Y-10298644D01*
X7060644Y-10298644D01*
X7060644Y-10369356D01*
X7131356Y-10369356D01*
X7131356Y-10623356D02*
X7131356Y-10552644D01*
X7060644Y-10552644D01*
X7060644Y-10623356D01*
X7131356Y-10623356D01*
X7131356Y-10877356D02*
X7131356Y-10806644D01*
X7060644Y-10806644D01*
X7060644Y-10877356D01*
X7131356Y-10877356D01*
X7131356Y-11131356D02*
X7131356Y-11060644D01*
X7060644Y-11060644D01*
X7060644Y-11131356D01*
X7131356Y-11131356D01*
X7131356Y-11385356D02*
X7131356Y-11314644D01*
X7060644Y-11314644D01*
X7060644Y-11385356D01*
X7131356Y-11385356D01*
X7385356Y-10115356D02*
X7385356Y-10044644D01*
X7314644Y-10044644D01*
X7314644Y-10115356D01*
X7385356Y-10115356D01*
X7385356Y-10369356D02*
X7385356Y-10298644D01*
X7314644Y-10298644D01*
X7314644Y-10369356D01*
X7385356Y-10369356D01*
X7385356Y-10623356D02*
X7385356Y-10552644D01*
X7314644Y-10552644D01*
X7314644Y-10623356D01*
X7385356Y-10623356D01*
X7385356Y-10877356D02*
X7385356Y-10806644D01*
X7314644Y-10806644D01*
X7314644Y-10877356D01*
X7385356Y-10877356D01*
X7385356Y-11131356D02*
X7385356Y-11060644D01*
X7314644Y-11060644D01*
X7314644Y-11131356D01*
X7385356Y-11131356D01*
X7385356Y-11385356D02*
X7385356Y-11314644D01*
X7314644Y-11314644D01*
X7314644Y-11385356D01*
X7385356Y-11385356D01*
X9335356Y-7735356D02*
X9335356Y-7664644D01*
X9264644Y-7664644D01*
X9264644Y-7735356D01*
X9335356Y-7735356D01*
X9335356Y-7989356D02*
X9335356Y-7918644D01*
X9264644Y-7918644D01*
X9264644Y-7989356D01*
X9335356Y-7989356D01*
X9335356Y-8243356D02*
X9335356Y-8172644D01*
X9264644Y-8172644D01*
X9264644Y-8243356D01*
X9335356Y-8243356D01*
X9335356Y-8497356D02*
X9335356Y-8426644D01*
X9264644Y-8426644D01*
X9264644Y-8497356D01*
X9335356Y-8497356D01*
X9335356Y-8751356D02*
X9335356Y-8680644D01*
X9264644Y-8680644D01*
X9264644Y-8751356D01*
X9335356Y-8751356D01*
X9335356Y-9005356D02*
X9335356Y-8934644D01*
X9264644Y-8934644D01*
X9264644Y-9005356D01*
X9335356Y-9005356D01*
X9335356Y-9259356D02*
X9335356Y-9188644D01*
X9264644Y-9188644D01*
X9264644Y-9259356D01*
X9335356Y-9259356D01*
X9589356Y-7735356D02*
X9589356Y-7664644D01*
X9518644Y-7664644D01*
X9518644Y-7735356D01*
X9589356Y-7735356D01*
X9589356Y-7989356D02*
X9589356Y-7918644D01*
X9518644Y-7918644D01*
X9518644Y-7989356D01*
X9589356Y-7989356D01*
X9589356Y-8243356D02*
X9589356Y-8172644D01*
X9518644Y-8172644D01*
X9518644Y-8243356D01*
X9589356Y-8243356D01*
X9589356Y-8497356D02*
X9589356Y-8426644D01*
X9518644Y-8426644D01*
X9518644Y-8497356D01*
X9589356Y-8497356D01*
X9589356Y-8751356D02*
X9589356Y-8680644D01*
X9518644Y-8680644D01*
X9518644Y-8751356D01*
X9589356Y-8751356D01*
X9589356Y-9005356D02*
X9589356Y-8934644D01*
X9518644Y-8934644D01*
X9518644Y-9005356D01*
X9589356Y-9005356D01*
X9589356Y-9259356D02*
X9589356Y-9188644D01*
X9518644Y-9188644D01*
X9518644Y-9259356D01*
X9589356Y-9259356D01*
X4081356Y-19235356D02*
X4081356Y-19164644D01*
X4010644Y-19164644D01*
X4010644Y-19235356D01*
X4081356Y-19235356D01*
X4335356Y-19235356D02*
X4335356Y-19164644D01*
X4264644Y-19164644D01*
X4264644Y-19235356D01*
X4335356Y-19235356D01*
X1581356Y-16257356D02*
X1581356Y-16186644D01*
X1510644Y-16186644D01*
X1510644Y-16257356D01*
X1581356Y-16257356D01*
X1581356Y-16511356D02*
X1581356Y-16440644D01*
X1510644Y-16440644D01*
X1510644Y-16511356D01*
X1581356Y-16511356D01*
X1581356Y-16765356D02*
X1581356Y-16694644D01*
X1510644Y-16694644D01*
X1510644Y-16765356D01*
X1581356Y-16765356D01*
X1581356Y-17019356D02*
X1581356Y-16948644D01*
X1510644Y-16948644D01*
X1510644Y-17019356D01*
X1581356Y-17019356D01*
X1581356Y-17273356D02*
X1581356Y-17202644D01*
X1510644Y-17202644D01*
X1510644Y-17273356D01*
X1581356Y-17273356D01*
X1581356Y-17527356D02*
X1581356Y-17456644D01*
X1510644Y-17456644D01*
X1510644Y-17527356D01*
X1581356Y-17527356D01*
X1581356Y-17781356D02*
X1581356Y-17710644D01*
X1510644Y-17710644D01*
X1510644Y-17781356D01*
X1581356Y-17781356D01*
X1581356Y-18035356D02*
X1581356Y-17964644D01*
X1510644Y-17964644D01*
X1510644Y-18035356D01*
X1581356Y-18035356D01*
X1581356Y-18289356D02*
X1581356Y-18218644D01*
X1510644Y-18218644D01*
X1510644Y-18289356D01*
X1581356Y-18289356D01*
X1581356Y-18543356D02*
X1581356Y-18472644D01*
X1510644Y-18472644D01*
X1510644Y-18543356D01*
X1581356Y-18543356D01*
X1835356Y-16257356D02*
X1835356Y-16186644D01*
X1764644Y-16186644D01*
X1764644Y-16257356D01*
X1835356Y-16257356D01*
X1835356Y-16511356D02*
X1835356Y-16440644D01*
X1764644Y-16440644D01*
X1764644Y-16511356D01*
X1835356Y-16511356D01*
X1835356Y-16765356D02*
X1835356Y-16694644D01*
X1764644Y-16694644D01*
X1764644Y-16765356D01*
X1835356Y-16765356D01*
X1835356Y-17019356D02*
X1835356Y-16948644D01*
X1764644Y-16948644D01*
X1764644Y-17019356D01*
X1835356Y-17019356D01*
X1835356Y-17273356D02*
X1835356Y-17202644D01*
X1764644Y-17202644D01*
X1764644Y-17273356D01*
X1835356Y-17273356D01*
X1835356Y-17527356D02*
X1835356Y-17456644D01*
X1764644Y-17456644D01*
X1764644Y-17527356D01*
X1835356Y-17527356D01*
X1835356Y-17781356D02*
X1835356Y-17710644D01*
X1764644Y-17710644D01*
X1764644Y-17781356D01*
X1835356Y-17781356D01*
X1835356Y-18035356D02*
X1835356Y-17964644D01*
X1764644Y-17964644D01*
X1764644Y-18035356D01*
X1835356Y-18035356D01*
X1835356Y-18289356D02*
X1835356Y-18218644D01*
X1764644Y-18218644D01*
X1764644Y-18289356D01*
X1835356Y-18289356D01*
X1835356Y-18543356D02*
X1835356Y-18472644D01*
X1764644Y-18472644D01*
X1764644Y-18543356D01*
X1835356Y-18543356D01*
X2681356Y-14335356D02*
X2681356Y-14264644D01*
X2610644Y-14264644D01*
X2610644Y-14335356D01*
X2681356Y-14335356D01*
X2681356Y-14589356D02*
X2681356Y-14518644D01*
X2610644Y-14518644D01*
X2610644Y-14589356D01*
X2681356Y-14589356D01*
X2681356Y-14843356D02*
X2681356Y-14772644D01*
X2610644Y-14772644D01*
X2610644Y-14843356D01*
X2681356Y-14843356D01*
X2935356Y-14335356D02*
X2935356Y-14264644D01*
X2864644Y-14264644D01*
X2864644Y-14335356D01*
X2935356Y-14335356D01*
X2935356Y-14589356D02*
X2935356Y-14518644D01*
X2864644Y-14518644D01*
X2864644Y-14589356D01*
X2935356Y-14589356D01*
X2935356Y-14843356D02*
X2935356Y-14772644D01*
X2864644Y-14772644D01*
X2864644Y-14843356D01*
X2935356Y-14843356D01*
X3975356Y-11435356D02*
X3975356Y-11364644D01*
X3904644Y-11364644D01*
X3904644Y-11435356D01*
X3975356Y-11435356D01*
X3975356Y-11685356D02*
X3975356Y-11614644D01*
X3904644Y-11614644D01*
X3904644Y-11685356D01*
X3975356Y-11685356D01*
X5390000Y-11447000D02*
X5445000Y-11392000D01*
X5390000Y-11337000D01*
X5335000Y-11392000D01*
X5390000Y-11447000D01*
X5390000Y-11701000D02*
X5445000Y-11646000D01*
X5390000Y-11591000D01*
X5335000Y-11646000D01*
X5390000Y-11701000D01*
X5390000Y-11955000D02*
X5445000Y-11900000D01*
X5390000Y-11845000D01*
X5335000Y-11900000D01*
X5390000Y-11955000D01*
X5390000Y-9747000D02*
X5445000Y-9692000D01*
X5390000Y-9637000D01*
X5335000Y-9692000D01*
X5390000Y-9747000D01*
X5390000Y-10001000D02*
X5445000Y-9946000D01*
X5390000Y-9891000D01*
X5335000Y-9946000D01*
X5390000Y-10001000D01*
X5390000Y-10255000D02*
X5445000Y-10200000D01*
X5390000Y-10145000D01*
X5335000Y-10200000D01*
X5390000Y-10255000D01*
X5390000Y-8057000D02*
X5445000Y-8002000D01*
X5390000Y-7947000D01*
X5335000Y-8002000D01*
X5390000Y-8057000D01*
X5390000Y-8311000D02*
X5445000Y-8256000D01*
X5390000Y-8201000D01*
X5335000Y-8256000D01*
X5390000Y-8311000D01*
X5390000Y-8565000D02*
X5445000Y-8510000D01*
X5390000Y-8455000D01*
X5335000Y-8510000D01*
X5390000Y-8565000D01*
X5996500Y-19050700D02*
X6123500Y-19177700D01*
X6123500Y-19050700D02*
X5996500Y-19177700D01*
X6123500Y-19114200D02*
G75*
G03X6123500Y-19114200I-63500J0D01*
G01*
X5996500Y-19482500D02*
X6123500Y-19609500D01*
X6123500Y-19482500D02*
X5996500Y-19609500D01*
X6123500Y-19546000D02*
G75*
G03X6123500Y-19546000I-63500J0D01*
G01*
X6860100Y-19050700D02*
X6987100Y-19177700D01*
X6987100Y-19050700D02*
X6860100Y-19177700D01*
X6987100Y-19114200D02*
G75*
G03X6987100Y-19114200I-63500J0D01*
G01*
X6860100Y-19482500D02*
X6987100Y-19609500D01*
X6987100Y-19482500D02*
X6860100Y-19609500D01*
X6987100Y-19546000D02*
G75*
G03X6987100Y-19546000I-63500J0D01*
G01*
X1540000Y-5140000D02*
X1860000Y-5460000D01*
X1860000Y-5140000D02*
X1540000Y-5460000D01*
X1700000Y-5140000D02*
X1700000Y-5460000D01*
X1540000Y-5300000D02*
X1860000Y-5300000D01*
X10540000Y-5140000D02*
X10860000Y-5460000D01*
X10860000Y-5140000D02*
X10540000Y-5460000D01*
X10700000Y-5140000D02*
X10700000Y-5460000D01*
X10540000Y-5300000D02*
X10860000Y-5300000D01*
X1540000Y-19140000D02*
X1860000Y-19460000D01*
X1860000Y-19140000D02*
X1540000Y-19460000D01*
X1700000Y-19140000D02*
X1700000Y-19460000D01*
X1540000Y-19300000D02*
X1860000Y-19300000D01*
X10540000Y-19140000D02*
X10860000Y-19460000D01*
X10860000Y-19140000D02*
X10540000Y-19460000D01*
X10700000Y-19140000D02*
X10700000Y-19460000D01*
X10540000Y-19300000D02*
X10860000Y-19300000D01*
D12*
X1483928Y-20268214D02*
X1483928Y-19968214D01*
X1555357Y-19968214D01*
X1598214Y-19982500D01*
X1626786Y-20011072D01*
X1641071Y-20039643D01*
X1655357Y-20096786D01*
X1655357Y-20139643D01*
X1641071Y-20196786D01*
X1626786Y-20225357D01*
X1598214Y-20253929D01*
X1555357Y-20268214D01*
X1483928Y-20268214D01*
X1783928Y-20268214D02*
X1783928Y-20068214D01*
X1783928Y-20125357D02*
X1798214Y-20096786D01*
X1812500Y-20082500D01*
X1841071Y-20068214D01*
X1869643Y-20068214D01*
X1969643Y-20268214D02*
X1969643Y-20068214D01*
X1969643Y-19968214D02*
X1955357Y-19982500D01*
X1969643Y-19996786D01*
X1983928Y-19982500D01*
X1969643Y-19968214D01*
X1969643Y-19996786D01*
X2155357Y-20268214D02*
X2126786Y-20253929D01*
X2112500Y-20225357D01*
X2112500Y-19968214D01*
X2312500Y-20268214D02*
X2283928Y-20253929D01*
X2269643Y-20225357D01*
X2269643Y-19968214D01*
X2655357Y-20268214D02*
X2655357Y-19968214D01*
X2755357Y-20182500D01*
X2855357Y-19968214D01*
X2855357Y-20268214D01*
X3126786Y-20268214D02*
X3126786Y-20111072D01*
X3112500Y-20082500D01*
X3083928Y-20068214D01*
X3026786Y-20068214D01*
X2998214Y-20082500D01*
X3126786Y-20253929D02*
X3098214Y-20268214D01*
X3026786Y-20268214D01*
X2998214Y-20253929D01*
X2983928Y-20225357D01*
X2983928Y-20196786D01*
X2998214Y-20168214D01*
X3026786Y-20153929D01*
X3098214Y-20153929D01*
X3126786Y-20139643D01*
X3269643Y-20068214D02*
X3269643Y-20368214D01*
X3269643Y-20082500D02*
X3298214Y-20068214D01*
X3355357Y-20068214D01*
X3383928Y-20082500D01*
X3398214Y-20096786D01*
X3412500Y-20125357D01*
X3412500Y-20211072D01*
X3398214Y-20239643D01*
X3383928Y-20253929D01*
X3355357Y-20268214D01*
X3298214Y-20268214D01*
X3269643Y-20253929D01*
X3541071Y-20239643D02*
X3555357Y-20253929D01*
X3541071Y-20268214D01*
X3526786Y-20253929D01*
X3541071Y-20239643D01*
X3541071Y-20268214D01*
X3541071Y-20082500D02*
X3555357Y-20096786D01*
X3541071Y-20111072D01*
X3526786Y-20096786D01*
X3541071Y-20082500D01*
X3541071Y-20111072D01*
X1167500Y-20747500D02*
X1197500Y-20777500D01*
X1197500Y-20747500D02*
X1167500Y-20777500D01*
X1541071Y-20598214D02*
X1569643Y-20598214D01*
X1598214Y-20612500D01*
X1612500Y-20626786D01*
X1626786Y-20655357D01*
X1641071Y-20712500D01*
X1641071Y-20783929D01*
X1626786Y-20841072D01*
X1612500Y-20869643D01*
X1598214Y-20883929D01*
X1569643Y-20898214D01*
X1541071Y-20898214D01*
X1512500Y-20883929D01*
X1498214Y-20869643D01*
X1483928Y-20841072D01*
X1469643Y-20783929D01*
X1469643Y-20712500D01*
X1483928Y-20655357D01*
X1498214Y-20626786D01*
X1512500Y-20612500D01*
X1541071Y-20598214D01*
X1769643Y-20869643D02*
X1783928Y-20883929D01*
X1769643Y-20898214D01*
X1755357Y-20883929D01*
X1769643Y-20869643D01*
X1769643Y-20898214D01*
X1883928Y-20598214D02*
X2069643Y-20598214D01*
X1969643Y-20712500D01*
X2012500Y-20712500D01*
X2041071Y-20726786D01*
X2055357Y-20741072D01*
X2069643Y-20769643D01*
X2069643Y-20841072D01*
X2055357Y-20869643D01*
X2041071Y-20883929D01*
X2012500Y-20898214D01*
X1926786Y-20898214D01*
X1898214Y-20883929D01*
X1883928Y-20869643D01*
X2255357Y-20598214D02*
X2283928Y-20598214D01*
X2312500Y-20612500D01*
X2326786Y-20626786D01*
X2341071Y-20655357D01*
X2355357Y-20712500D01*
X2355357Y-20783929D01*
X2341071Y-20841072D01*
X2326786Y-20869643D01*
X2312500Y-20883929D01*
X2283928Y-20898214D01*
X2255357Y-20898214D01*
X2226786Y-20883929D01*
X2212500Y-20869643D01*
X2198214Y-20841072D01*
X2183928Y-20783929D01*
X2183928Y-20712500D01*
X2198214Y-20655357D01*
X2212500Y-20626786D01*
X2226786Y-20612500D01*
X2255357Y-20598214D01*
X2483928Y-20898214D02*
X2483928Y-20698214D01*
X2483928Y-20726786D02*
X2498214Y-20712500D01*
X2526786Y-20698214D01*
X2569643Y-20698214D01*
X2598214Y-20712500D01*
X2612500Y-20741072D01*
X2612500Y-20898214D01*
X2612500Y-20741072D02*
X2626786Y-20712500D01*
X2655357Y-20698214D01*
X2698214Y-20698214D01*
X2726786Y-20712500D01*
X2741071Y-20741072D01*
X2741071Y-20898214D01*
X2883928Y-20898214D02*
X2883928Y-20698214D01*
X2883928Y-20726786D02*
X2898214Y-20712500D01*
X2926786Y-20698214D01*
X2969643Y-20698214D01*
X2998214Y-20712500D01*
X3012500Y-20741072D01*
X3012500Y-20898214D01*
X3012500Y-20741072D02*
X3026786Y-20712500D01*
X3055357Y-20698214D01*
X3098214Y-20698214D01*
X3126786Y-20712500D01*
X3141071Y-20741072D01*
X3141071Y-20898214D01*
X3726786Y-20583929D02*
X3469643Y-20969643D01*
X4112500Y-20598214D02*
X4141071Y-20598214D01*
X4169643Y-20612500D01*
X4183928Y-20626786D01*
X4198214Y-20655357D01*
X4212500Y-20712500D01*
X4212500Y-20783929D01*
X4198214Y-20841072D01*
X4183928Y-20869643D01*
X4169643Y-20883929D01*
X4141071Y-20898214D01*
X4112500Y-20898214D01*
X4083928Y-20883929D01*
X4069643Y-20869643D01*
X4055357Y-20841072D01*
X4041071Y-20783929D01*
X4041071Y-20712500D01*
X4055357Y-20655357D01*
X4069643Y-20626786D01*
X4083928Y-20612500D01*
X4112500Y-20598214D01*
X4341071Y-20869643D02*
X4355357Y-20883929D01*
X4341071Y-20898214D01*
X4326786Y-20883929D01*
X4341071Y-20869643D01*
X4341071Y-20898214D01*
X4541071Y-20598214D02*
X4569643Y-20598214D01*
X4598214Y-20612500D01*
X4612500Y-20626786D01*
X4626786Y-20655357D01*
X4641071Y-20712500D01*
X4641071Y-20783929D01*
X4626786Y-20841072D01*
X4612500Y-20869643D01*
X4598214Y-20883929D01*
X4569643Y-20898214D01*
X4541071Y-20898214D01*
X4512500Y-20883929D01*
X4498214Y-20869643D01*
X4483928Y-20841072D01*
X4469643Y-20783929D01*
X4469643Y-20712500D01*
X4483928Y-20655357D01*
X4498214Y-20626786D01*
X4512500Y-20612500D01*
X4541071Y-20598214D01*
X4926786Y-20898214D02*
X4755357Y-20898214D01*
X4841071Y-20898214D02*
X4841071Y-20598214D01*
X4812500Y-20641072D01*
X4783928Y-20669643D01*
X4755357Y-20683929D01*
X5041071Y-20626786D02*
X5055357Y-20612500D01*
X5083928Y-20598214D01*
X5155357Y-20598214D01*
X5183928Y-20612500D01*
X5198214Y-20626786D01*
X5212500Y-20655357D01*
X5212500Y-20683929D01*
X5198214Y-20726786D01*
X5026786Y-20898214D01*
X5212500Y-20898214D01*
X5326786Y-20598214D02*
X5326786Y-20655357D01*
X5441071Y-20598214D02*
X5441071Y-20655357D01*
X5883928Y-21012500D02*
X5869643Y-20998214D01*
X5841071Y-20955357D01*
X5826786Y-20926786D01*
X5812500Y-20883929D01*
X5798214Y-20812500D01*
X5798214Y-20755357D01*
X5812500Y-20683929D01*
X5826786Y-20641072D01*
X5841071Y-20612500D01*
X5869643Y-20569643D01*
X5883928Y-20555357D01*
X6155357Y-20898214D02*
X5983928Y-20898214D01*
X6069643Y-20898214D02*
X6069643Y-20598214D01*
X6041071Y-20641072D01*
X6012500Y-20669643D01*
X5983928Y-20683929D01*
X6269643Y-20626786D02*
X6283928Y-20612500D01*
X6312500Y-20598214D01*
X6383928Y-20598214D01*
X6412500Y-20612500D01*
X6426786Y-20626786D01*
X6441071Y-20655357D01*
X6441071Y-20683929D01*
X6426786Y-20726786D01*
X6255357Y-20898214D01*
X6441071Y-20898214D01*
X6555357Y-20626786D02*
X6569643Y-20612500D01*
X6598214Y-20598214D01*
X6669643Y-20598214D01*
X6698214Y-20612500D01*
X6712500Y-20626786D01*
X6726786Y-20655357D01*
X6726786Y-20683929D01*
X6712500Y-20726786D01*
X6541071Y-20898214D01*
X6726786Y-20898214D01*
X7083928Y-20898214D02*
X7083928Y-20598214D01*
X7212500Y-20898214D02*
X7212500Y-20741072D01*
X7198214Y-20712500D01*
X7169643Y-20698214D01*
X7126786Y-20698214D01*
X7098214Y-20712500D01*
X7083928Y-20726786D01*
X7398214Y-20898214D02*
X7369643Y-20883929D01*
X7355357Y-20869643D01*
X7341071Y-20841072D01*
X7341071Y-20755357D01*
X7355357Y-20726786D01*
X7369643Y-20712500D01*
X7398214Y-20698214D01*
X7441071Y-20698214D01*
X7469643Y-20712500D01*
X7483928Y-20726786D01*
X7498214Y-20755357D01*
X7498214Y-20841072D01*
X7483928Y-20869643D01*
X7469643Y-20883929D01*
X7441071Y-20898214D01*
X7398214Y-20898214D01*
X7669643Y-20898214D02*
X7641071Y-20883929D01*
X7626786Y-20855357D01*
X7626786Y-20598214D01*
X7898214Y-20883929D02*
X7869643Y-20898214D01*
X7812500Y-20898214D01*
X7783928Y-20883929D01*
X7769643Y-20855357D01*
X7769643Y-20741072D01*
X7783928Y-20712500D01*
X7812500Y-20698214D01*
X7869643Y-20698214D01*
X7898214Y-20712500D01*
X7912500Y-20741072D01*
X7912500Y-20769643D01*
X7769643Y-20798214D01*
X8026786Y-20883929D02*
X8055357Y-20898214D01*
X8112500Y-20898214D01*
X8141071Y-20883929D01*
X8155357Y-20855357D01*
X8155357Y-20841072D01*
X8141071Y-20812500D01*
X8112500Y-20798214D01*
X8069643Y-20798214D01*
X8041071Y-20783929D01*
X8026786Y-20755357D01*
X8026786Y-20741072D01*
X8041071Y-20712500D01*
X8069643Y-20698214D01*
X8112500Y-20698214D01*
X8141071Y-20712500D01*
X8255357Y-21012500D02*
X8269643Y-20998214D01*
X8298214Y-20955357D01*
X8312500Y-20926786D01*
X8326786Y-20883929D01*
X8341071Y-20812500D01*
X8341071Y-20755357D01*
X8326786Y-20683929D01*
X8312500Y-20641072D01*
X8298214Y-20612500D01*
X8269643Y-20569643D01*
X8255357Y-20555357D01*
X1197500Y-21158500D02*
G75*
G03X1197500Y-21158500I-20000J0D01*
G01*
X1541071Y-20994214D02*
X1569643Y-20994214D01*
X1598214Y-21008500D01*
X1612500Y-21022786D01*
X1626786Y-21051357D01*
X1641071Y-21108500D01*
X1641071Y-21179929D01*
X1626786Y-21237072D01*
X1612500Y-21265643D01*
X1598214Y-21279929D01*
X1569643Y-21294214D01*
X1541071Y-21294214D01*
X1512500Y-21279929D01*
X1498214Y-21265643D01*
X1483928Y-21237072D01*
X1469643Y-21179929D01*
X1469643Y-21108500D01*
X1483928Y-21051357D01*
X1498214Y-21022786D01*
X1512500Y-21008500D01*
X1541071Y-20994214D01*
X1769643Y-21265643D02*
X1783928Y-21279929D01*
X1769643Y-21294214D01*
X1755357Y-21279929D01*
X1769643Y-21265643D01*
X1769643Y-21294214D01*
X2041071Y-21094214D02*
X2041071Y-21294214D01*
X1969643Y-20979929D02*
X1898214Y-21194214D01*
X2083928Y-21194214D01*
X2255357Y-20994214D02*
X2283928Y-20994214D01*
X2312500Y-21008500D01*
X2326786Y-21022786D01*
X2341071Y-21051357D01*
X2355357Y-21108500D01*
X2355357Y-21179929D01*
X2341071Y-21237072D01*
X2326786Y-21265643D01*
X2312500Y-21279929D01*
X2283928Y-21294214D01*
X2255357Y-21294214D01*
X2226786Y-21279929D01*
X2212500Y-21265643D01*
X2198214Y-21237072D01*
X2183928Y-21179929D01*
X2183928Y-21108500D01*
X2198214Y-21051357D01*
X2212500Y-21022786D01*
X2226786Y-21008500D01*
X2255357Y-20994214D01*
X2483928Y-21294214D02*
X2483928Y-21094214D01*
X2483928Y-21122786D02*
X2498214Y-21108500D01*
X2526786Y-21094214D01*
X2569643Y-21094214D01*
X2598214Y-21108500D01*
X2612500Y-21137072D01*
X2612500Y-21294214D01*
X2612500Y-21137072D02*
X2626786Y-21108500D01*
X2655357Y-21094214D01*
X2698214Y-21094214D01*
X2726786Y-21108500D01*
X2741071Y-21137072D01*
X2741071Y-21294214D01*
X2883928Y-21294214D02*
X2883928Y-21094214D01*
X2883928Y-21122786D02*
X2898214Y-21108500D01*
X2926786Y-21094214D01*
X2969643Y-21094214D01*
X2998214Y-21108500D01*
X3012500Y-21137072D01*
X3012500Y-21294214D01*
X3012500Y-21137072D02*
X3026786Y-21108500D01*
X3055357Y-21094214D01*
X3098214Y-21094214D01*
X3126786Y-21108500D01*
X3141071Y-21137072D01*
X3141071Y-21294214D01*
X3726786Y-20979929D02*
X3469643Y-21365643D01*
X4112500Y-20994214D02*
X4141071Y-20994214D01*
X4169643Y-21008500D01*
X4183928Y-21022786D01*
X4198214Y-21051357D01*
X4212500Y-21108500D01*
X4212500Y-21179929D01*
X4198214Y-21237072D01*
X4183928Y-21265643D01*
X4169643Y-21279929D01*
X4141071Y-21294214D01*
X4112500Y-21294214D01*
X4083928Y-21279929D01*
X4069643Y-21265643D01*
X4055357Y-21237072D01*
X4041071Y-21179929D01*
X4041071Y-21108500D01*
X4055357Y-21051357D01*
X4069643Y-21022786D01*
X4083928Y-21008500D01*
X4112500Y-20994214D01*
X4341071Y-21265643D02*
X4355357Y-21279929D01*
X4341071Y-21294214D01*
X4326786Y-21279929D01*
X4341071Y-21265643D01*
X4341071Y-21294214D01*
X4541071Y-20994214D02*
X4569643Y-20994214D01*
X4598214Y-21008500D01*
X4612500Y-21022786D01*
X4626786Y-21051357D01*
X4641071Y-21108500D01*
X4641071Y-21179929D01*
X4626786Y-21237072D01*
X4612500Y-21265643D01*
X4598214Y-21279929D01*
X4569643Y-21294214D01*
X4541071Y-21294214D01*
X4512500Y-21279929D01*
X4498214Y-21265643D01*
X4483928Y-21237072D01*
X4469643Y-21179929D01*
X4469643Y-21108500D01*
X4483928Y-21051357D01*
X4498214Y-21022786D01*
X4512500Y-21008500D01*
X4541071Y-20994214D01*
X4926786Y-21294214D02*
X4755357Y-21294214D01*
X4841071Y-21294214D02*
X4841071Y-20994214D01*
X4812500Y-21037072D01*
X4783928Y-21065643D01*
X4755357Y-21079929D01*
X5183928Y-20994214D02*
X5126786Y-20994214D01*
X5098214Y-21008500D01*
X5083928Y-21022786D01*
X5055357Y-21065643D01*
X5041071Y-21122786D01*
X5041071Y-21237072D01*
X5055357Y-21265643D01*
X5069643Y-21279929D01*
X5098214Y-21294214D01*
X5155357Y-21294214D01*
X5183928Y-21279929D01*
X5198214Y-21265643D01*
X5212500Y-21237072D01*
X5212500Y-21165643D01*
X5198214Y-21137072D01*
X5183928Y-21122786D01*
X5155357Y-21108500D01*
X5098214Y-21108500D01*
X5069643Y-21122786D01*
X5055357Y-21137072D01*
X5041071Y-21165643D01*
X5326786Y-20994214D02*
X5326786Y-21051357D01*
X5441071Y-20994214D02*
X5441071Y-21051357D01*
X5883928Y-21408500D02*
X5869643Y-21394214D01*
X5841071Y-21351357D01*
X5826786Y-21322786D01*
X5812500Y-21279929D01*
X5798214Y-21208500D01*
X5798214Y-21151357D01*
X5812500Y-21079929D01*
X5826786Y-21037072D01*
X5841071Y-21008500D01*
X5869643Y-20965643D01*
X5883928Y-20951357D01*
X6126786Y-21094214D02*
X6126786Y-21294214D01*
X6055357Y-20979929D02*
X5983928Y-21194214D01*
X6169643Y-21194214D01*
X6512500Y-21294214D02*
X6512500Y-20994214D01*
X6641071Y-21294214D02*
X6641071Y-21137072D01*
X6626786Y-21108500D01*
X6598214Y-21094214D01*
X6555357Y-21094214D01*
X6526786Y-21108500D01*
X6512500Y-21122786D01*
X6826786Y-21294214D02*
X6798214Y-21279929D01*
X6783928Y-21265643D01*
X6769643Y-21237072D01*
X6769643Y-21151357D01*
X6783928Y-21122786D01*
X6798214Y-21108500D01*
X6826786Y-21094214D01*
X6869643Y-21094214D01*
X6898214Y-21108500D01*
X6912500Y-21122786D01*
X6926786Y-21151357D01*
X6926786Y-21237072D01*
X6912500Y-21265643D01*
X6898214Y-21279929D01*
X6869643Y-21294214D01*
X6826786Y-21294214D01*
X7098214Y-21294214D02*
X7069643Y-21279929D01*
X7055357Y-21251357D01*
X7055357Y-20994214D01*
X7326786Y-21279929D02*
X7298214Y-21294214D01*
X7241071Y-21294214D01*
X7212500Y-21279929D01*
X7198214Y-21251357D01*
X7198214Y-21137072D01*
X7212500Y-21108500D01*
X7241071Y-21094214D01*
X7298214Y-21094214D01*
X7326786Y-21108500D01*
X7341071Y-21137072D01*
X7341071Y-21165643D01*
X7198214Y-21194214D01*
X7455357Y-21279929D02*
X7483928Y-21294214D01*
X7541071Y-21294214D01*
X7569643Y-21279929D01*
X7583928Y-21251357D01*
X7583928Y-21237072D01*
X7569643Y-21208500D01*
X7541071Y-21194214D01*
X7498214Y-21194214D01*
X7469643Y-21179929D01*
X7455357Y-21151357D01*
X7455357Y-21137072D01*
X7469643Y-21108500D01*
X7498214Y-21094214D01*
X7541071Y-21094214D01*
X7569643Y-21108500D01*
X7683928Y-21408500D02*
X7698214Y-21394214D01*
X7726786Y-21351357D01*
X7741071Y-21322786D01*
X7755357Y-21279929D01*
X7769643Y-21208500D01*
X7769643Y-21151357D01*
X7755357Y-21079929D01*
X7741071Y-21037072D01*
X7726786Y-21008500D01*
X7698214Y-20965643D01*
X7683928Y-20951357D01*
X1172500Y-21529500D02*
X1172500Y-21579500D01*
X1147500Y-21554500D02*
X1197500Y-21554500D01*
X1541071Y-21390214D02*
X1569643Y-21390214D01*
X1598214Y-21404500D01*
X1612500Y-21418786D01*
X1626786Y-21447357D01*
X1641071Y-21504500D01*
X1641071Y-21575929D01*
X1626786Y-21633072D01*
X1612500Y-21661643D01*
X1598214Y-21675929D01*
X1569643Y-21690214D01*
X1541071Y-21690214D01*
X1512500Y-21675929D01*
X1498214Y-21661643D01*
X1483928Y-21633072D01*
X1469643Y-21575929D01*
X1469643Y-21504500D01*
X1483928Y-21447357D01*
X1498214Y-21418786D01*
X1512500Y-21404500D01*
X1541071Y-21390214D01*
X1769643Y-21661643D02*
X1783928Y-21675929D01*
X1769643Y-21690214D01*
X1755357Y-21675929D01*
X1769643Y-21661643D01*
X1769643Y-21690214D01*
X2055357Y-21390214D02*
X1912500Y-21390214D01*
X1898214Y-21533072D01*
X1912500Y-21518786D01*
X1941071Y-21504500D01*
X2012500Y-21504500D01*
X2041071Y-21518786D01*
X2055357Y-21533072D01*
X2069643Y-21561643D01*
X2069643Y-21633072D01*
X2055357Y-21661643D01*
X2041071Y-21675929D01*
X2012500Y-21690214D01*
X1941071Y-21690214D01*
X1912500Y-21675929D01*
X1898214Y-21661643D01*
X2255357Y-21390214D02*
X2283928Y-21390214D01*
X2312500Y-21404500D01*
X2326786Y-21418786D01*
X2341071Y-21447357D01*
X2355357Y-21504500D01*
X2355357Y-21575929D01*
X2341071Y-21633072D01*
X2326786Y-21661643D01*
X2312500Y-21675929D01*
X2283928Y-21690214D01*
X2255357Y-21690214D01*
X2226786Y-21675929D01*
X2212500Y-21661643D01*
X2198214Y-21633072D01*
X2183928Y-21575929D01*
X2183928Y-21504500D01*
X2198214Y-21447357D01*
X2212500Y-21418786D01*
X2226786Y-21404500D01*
X2255357Y-21390214D01*
X2483928Y-21690214D02*
X2483928Y-21490214D01*
X2483928Y-21518786D02*
X2498214Y-21504500D01*
X2526786Y-21490214D01*
X2569643Y-21490214D01*
X2598214Y-21504500D01*
X2612500Y-21533072D01*
X2612500Y-21690214D01*
X2612500Y-21533072D02*
X2626786Y-21504500D01*
X2655357Y-21490214D01*
X2698214Y-21490214D01*
X2726786Y-21504500D01*
X2741071Y-21533072D01*
X2741071Y-21690214D01*
X2883928Y-21690214D02*
X2883928Y-21490214D01*
X2883928Y-21518786D02*
X2898214Y-21504500D01*
X2926786Y-21490214D01*
X2969643Y-21490214D01*
X2998214Y-21504500D01*
X3012500Y-21533072D01*
X3012500Y-21690214D01*
X3012500Y-21533072D02*
X3026786Y-21504500D01*
X3055357Y-21490214D01*
X3098214Y-21490214D01*
X3126786Y-21504500D01*
X3141071Y-21533072D01*
X3141071Y-21690214D01*
X3726786Y-21375929D02*
X3469643Y-21761643D01*
X4112500Y-21390214D02*
X4141071Y-21390214D01*
X4169643Y-21404500D01*
X4183928Y-21418786D01*
X4198214Y-21447357D01*
X4212500Y-21504500D01*
X4212500Y-21575929D01*
X4198214Y-21633072D01*
X4183928Y-21661643D01*
X4169643Y-21675929D01*
X4141071Y-21690214D01*
X4112500Y-21690214D01*
X4083928Y-21675929D01*
X4069643Y-21661643D01*
X4055357Y-21633072D01*
X4041071Y-21575929D01*
X4041071Y-21504500D01*
X4055357Y-21447357D01*
X4069643Y-21418786D01*
X4083928Y-21404500D01*
X4112500Y-21390214D01*
X4341071Y-21661643D02*
X4355357Y-21675929D01*
X4341071Y-21690214D01*
X4326786Y-21675929D01*
X4341071Y-21661643D01*
X4341071Y-21690214D01*
X4541071Y-21390214D02*
X4569643Y-21390214D01*
X4598214Y-21404500D01*
X4612500Y-21418786D01*
X4626786Y-21447357D01*
X4641071Y-21504500D01*
X4641071Y-21575929D01*
X4626786Y-21633072D01*
X4612500Y-21661643D01*
X4598214Y-21675929D01*
X4569643Y-21690214D01*
X4541071Y-21690214D01*
X4512500Y-21675929D01*
X4498214Y-21661643D01*
X4483928Y-21633072D01*
X4469643Y-21575929D01*
X4469643Y-21504500D01*
X4483928Y-21447357D01*
X4498214Y-21418786D01*
X4512500Y-21404500D01*
X4541071Y-21390214D01*
X4755357Y-21418786D02*
X4769643Y-21404500D01*
X4798214Y-21390214D01*
X4869643Y-21390214D01*
X4898214Y-21404500D01*
X4912500Y-21418786D01*
X4926786Y-21447357D01*
X4926786Y-21475929D01*
X4912500Y-21518786D01*
X4741071Y-21690214D01*
X4926786Y-21690214D01*
X5112500Y-21390214D02*
X5141071Y-21390214D01*
X5169643Y-21404500D01*
X5183928Y-21418786D01*
X5198214Y-21447357D01*
X5212500Y-21504500D01*
X5212500Y-21575929D01*
X5198214Y-21633072D01*
X5183928Y-21661643D01*
X5169643Y-21675929D01*
X5141071Y-21690214D01*
X5112500Y-21690214D01*
X5083928Y-21675929D01*
X5069643Y-21661643D01*
X5055357Y-21633072D01*
X5041071Y-21575929D01*
X5041071Y-21504500D01*
X5055357Y-21447357D01*
X5069643Y-21418786D01*
X5083928Y-21404500D01*
X5112500Y-21390214D01*
X5326786Y-21390214D02*
X5326786Y-21447357D01*
X5441071Y-21390214D02*
X5441071Y-21447357D01*
X5883928Y-21804500D02*
X5869643Y-21790214D01*
X5841071Y-21747357D01*
X5826786Y-21718786D01*
X5812500Y-21675929D01*
X5798214Y-21604500D01*
X5798214Y-21547357D01*
X5812500Y-21475929D01*
X5826786Y-21433072D01*
X5841071Y-21404500D01*
X5869643Y-21361643D01*
X5883928Y-21347357D01*
X5969643Y-21390214D02*
X6155357Y-21390214D01*
X6055357Y-21504500D01*
X6098214Y-21504500D01*
X6126786Y-21518786D01*
X6141071Y-21533072D01*
X6155357Y-21561643D01*
X6155357Y-21633072D01*
X6141071Y-21661643D01*
X6126786Y-21675929D01*
X6098214Y-21690214D01*
X6012500Y-21690214D01*
X5983928Y-21675929D01*
X5969643Y-21661643D01*
X6298214Y-21690214D02*
X6355357Y-21690214D01*
X6383928Y-21675929D01*
X6398214Y-21661643D01*
X6426786Y-21618786D01*
X6441071Y-21561643D01*
X6441071Y-21447357D01*
X6426786Y-21418786D01*
X6412500Y-21404500D01*
X6383928Y-21390214D01*
X6326786Y-21390214D01*
X6298214Y-21404500D01*
X6283928Y-21418786D01*
X6269643Y-21447357D01*
X6269643Y-21518786D01*
X6283928Y-21547357D01*
X6298214Y-21561643D01*
X6326786Y-21575929D01*
X6383928Y-21575929D01*
X6412500Y-21561643D01*
X6426786Y-21547357D01*
X6441071Y-21518786D01*
X6798214Y-21690214D02*
X6798214Y-21390214D01*
X6926786Y-21690214D02*
X6926786Y-21533072D01*
X6912500Y-21504500D01*
X6883928Y-21490214D01*
X6841071Y-21490214D01*
X6812500Y-21504500D01*
X6798214Y-21518786D01*
X7112500Y-21690214D02*
X7083928Y-21675929D01*
X7069643Y-21661643D01*
X7055357Y-21633072D01*
X7055357Y-21547357D01*
X7069643Y-21518786D01*
X7083928Y-21504500D01*
X7112500Y-21490214D01*
X7155357Y-21490214D01*
X7183928Y-21504500D01*
X7198214Y-21518786D01*
X7212500Y-21547357D01*
X7212500Y-21633072D01*
X7198214Y-21661643D01*
X7183928Y-21675929D01*
X7155357Y-21690214D01*
X7112500Y-21690214D01*
X7383928Y-21690214D02*
X7355357Y-21675929D01*
X7341071Y-21647357D01*
X7341071Y-21390214D01*
X7612500Y-21675929D02*
X7583928Y-21690214D01*
X7526786Y-21690214D01*
X7498214Y-21675929D01*
X7483928Y-21647357D01*
X7483928Y-21533072D01*
X7498214Y-21504500D01*
X7526786Y-21490214D01*
X7583928Y-21490214D01*
X7612500Y-21504500D01*
X7626786Y-21533072D01*
X7626786Y-21561643D01*
X7483928Y-21590214D01*
X7741071Y-21675929D02*
X7769643Y-21690214D01*
X7826786Y-21690214D01*
X7855357Y-21675929D01*
X7869643Y-21647357D01*
X7869643Y-21633072D01*
X7855357Y-21604500D01*
X7826786Y-21590214D01*
X7783928Y-21590214D01*
X7755357Y-21575929D01*
X7741071Y-21547357D01*
X7741071Y-21533072D01*
X7755357Y-21504500D01*
X7783928Y-21490214D01*
X7826786Y-21490214D01*
X7855357Y-21504500D01*
X7969643Y-21804500D02*
X7983928Y-21790214D01*
X8012500Y-21747357D01*
X8026786Y-21718786D01*
X8041071Y-21675929D01*
X8055357Y-21604500D01*
X8055357Y-21547357D01*
X8041071Y-21475929D01*
X8026786Y-21433072D01*
X8012500Y-21404500D01*
X7983928Y-21361643D01*
X7969643Y-21347357D01*
X1182856Y-21985856D02*
X1182856Y-21915144D01*
X1112144Y-21915144D01*
X1112144Y-21985856D01*
X1182856Y-21985856D01*
X1641071Y-22086214D02*
X1469643Y-22086214D01*
X1555357Y-22086214D02*
X1555357Y-21786214D01*
X1526786Y-21829072D01*
X1498214Y-21857643D01*
X1469643Y-21871929D01*
X1769643Y-22057643D02*
X1783928Y-22071929D01*
X1769643Y-22086214D01*
X1755357Y-22071929D01*
X1769643Y-22057643D01*
X1769643Y-22086214D01*
X1969643Y-21786214D02*
X1998214Y-21786214D01*
X2026786Y-21800500D01*
X2041071Y-21814786D01*
X2055357Y-21843357D01*
X2069643Y-21900500D01*
X2069643Y-21971929D01*
X2055357Y-22029072D01*
X2041071Y-22057643D01*
X2026786Y-22071929D01*
X1998214Y-22086214D01*
X1969643Y-22086214D01*
X1941071Y-22071929D01*
X1926786Y-22057643D01*
X1912500Y-22029072D01*
X1898214Y-21971929D01*
X1898214Y-21900500D01*
X1912500Y-21843357D01*
X1926786Y-21814786D01*
X1941071Y-21800500D01*
X1969643Y-21786214D01*
X2255357Y-21786214D02*
X2283928Y-21786214D01*
X2312500Y-21800500D01*
X2326786Y-21814786D01*
X2341071Y-21843357D01*
X2355357Y-21900500D01*
X2355357Y-21971929D01*
X2341071Y-22029072D01*
X2326786Y-22057643D01*
X2312500Y-22071929D01*
X2283928Y-22086214D01*
X2255357Y-22086214D01*
X2226786Y-22071929D01*
X2212500Y-22057643D01*
X2198214Y-22029072D01*
X2183928Y-21971929D01*
X2183928Y-21900500D01*
X2198214Y-21843357D01*
X2212500Y-21814786D01*
X2226786Y-21800500D01*
X2255357Y-21786214D01*
X2483928Y-22086214D02*
X2483928Y-21886214D01*
X2483928Y-21914786D02*
X2498214Y-21900500D01*
X2526786Y-21886214D01*
X2569643Y-21886214D01*
X2598214Y-21900500D01*
X2612500Y-21929072D01*
X2612500Y-22086214D01*
X2612500Y-21929072D02*
X2626786Y-21900500D01*
X2655357Y-21886214D01*
X2698214Y-21886214D01*
X2726786Y-21900500D01*
X2741071Y-21929072D01*
X2741071Y-22086214D01*
X2883928Y-22086214D02*
X2883928Y-21886214D01*
X2883928Y-21914786D02*
X2898214Y-21900500D01*
X2926786Y-21886214D01*
X2969643Y-21886214D01*
X2998214Y-21900500D01*
X3012500Y-21929072D01*
X3012500Y-22086214D01*
X3012500Y-21929072D02*
X3026786Y-21900500D01*
X3055357Y-21886214D01*
X3098214Y-21886214D01*
X3126786Y-21900500D01*
X3141071Y-21929072D01*
X3141071Y-22086214D01*
X3726786Y-21771929D02*
X3469643Y-22157643D01*
X4112500Y-21786214D02*
X4141071Y-21786214D01*
X4169643Y-21800500D01*
X4183928Y-21814786D01*
X4198214Y-21843357D01*
X4212500Y-21900500D01*
X4212500Y-21971929D01*
X4198214Y-22029072D01*
X4183928Y-22057643D01*
X4169643Y-22071929D01*
X4141071Y-22086214D01*
X4112500Y-22086214D01*
X4083928Y-22071929D01*
X4069643Y-22057643D01*
X4055357Y-22029072D01*
X4041071Y-21971929D01*
X4041071Y-21900500D01*
X4055357Y-21843357D01*
X4069643Y-21814786D01*
X4083928Y-21800500D01*
X4112500Y-21786214D01*
X4341071Y-22057643D02*
X4355357Y-22071929D01*
X4341071Y-22086214D01*
X4326786Y-22071929D01*
X4341071Y-22057643D01*
X4341071Y-22086214D01*
X4541071Y-21786214D02*
X4569643Y-21786214D01*
X4598214Y-21800500D01*
X4612500Y-21814786D01*
X4626786Y-21843357D01*
X4641071Y-21900500D01*
X4641071Y-21971929D01*
X4626786Y-22029072D01*
X4612500Y-22057643D01*
X4598214Y-22071929D01*
X4569643Y-22086214D01*
X4541071Y-22086214D01*
X4512500Y-22071929D01*
X4498214Y-22057643D01*
X4483928Y-22029072D01*
X4469643Y-21971929D01*
X4469643Y-21900500D01*
X4483928Y-21843357D01*
X4498214Y-21814786D01*
X4512500Y-21800500D01*
X4541071Y-21786214D01*
X4741071Y-21786214D02*
X4926786Y-21786214D01*
X4826786Y-21900500D01*
X4869643Y-21900500D01*
X4898214Y-21914786D01*
X4912500Y-21929072D01*
X4926786Y-21957643D01*
X4926786Y-22029072D01*
X4912500Y-22057643D01*
X4898214Y-22071929D01*
X4869643Y-22086214D01*
X4783928Y-22086214D01*
X4755357Y-22071929D01*
X4741071Y-22057643D01*
X5069643Y-22086214D02*
X5126786Y-22086214D01*
X5155357Y-22071929D01*
X5169643Y-22057643D01*
X5198214Y-22014786D01*
X5212500Y-21957643D01*
X5212500Y-21843357D01*
X5198214Y-21814786D01*
X5183928Y-21800500D01*
X5155357Y-21786214D01*
X5098214Y-21786214D01*
X5069643Y-21800500D01*
X5055357Y-21814786D01*
X5041071Y-21843357D01*
X5041071Y-21914786D01*
X5055357Y-21943357D01*
X5069643Y-21957643D01*
X5098214Y-21971929D01*
X5155357Y-21971929D01*
X5183928Y-21957643D01*
X5198214Y-21943357D01*
X5212500Y-21914786D01*
X5326786Y-21786214D02*
X5326786Y-21843357D01*
X5441071Y-21786214D02*
X5441071Y-21843357D01*
X5883928Y-22200500D02*
X5869643Y-22186214D01*
X5841071Y-22143357D01*
X5826786Y-22114786D01*
X5812500Y-22071929D01*
X5798214Y-22000500D01*
X5798214Y-21943357D01*
X5812500Y-21871929D01*
X5826786Y-21829072D01*
X5841071Y-21800500D01*
X5869643Y-21757643D01*
X5883928Y-21743357D01*
X6155357Y-22086214D02*
X5983928Y-22086214D01*
X6069643Y-22086214D02*
X6069643Y-21786214D01*
X6041071Y-21829072D01*
X6012500Y-21857643D01*
X5983928Y-21871929D01*
X6255357Y-21786214D02*
X6441071Y-21786214D01*
X6341071Y-21900500D01*
X6383928Y-21900500D01*
X6412500Y-21914786D01*
X6426786Y-21929072D01*
X6441071Y-21957643D01*
X6441071Y-22029072D01*
X6426786Y-22057643D01*
X6412500Y-22071929D01*
X6383928Y-22086214D01*
X6298214Y-22086214D01*
X6269643Y-22071929D01*
X6255357Y-22057643D01*
X6541071Y-21786214D02*
X6726786Y-21786214D01*
X6626786Y-21900500D01*
X6669643Y-21900500D01*
X6698214Y-21914786D01*
X6712500Y-21929072D01*
X6726786Y-21957643D01*
X6726786Y-22029072D01*
X6712500Y-22057643D01*
X6698214Y-22071929D01*
X6669643Y-22086214D01*
X6583928Y-22086214D01*
X6555357Y-22071929D01*
X6541071Y-22057643D01*
X7083928Y-22086214D02*
X7083928Y-21786214D01*
X7212500Y-22086214D02*
X7212500Y-21929072D01*
X7198214Y-21900500D01*
X7169643Y-21886214D01*
X7126786Y-21886214D01*
X7098214Y-21900500D01*
X7083928Y-21914786D01*
X7398214Y-22086214D02*
X7369643Y-22071929D01*
X7355357Y-22057643D01*
X7341071Y-22029072D01*
X7341071Y-21943357D01*
X7355357Y-21914786D01*
X7369643Y-21900500D01*
X7398214Y-21886214D01*
X7441071Y-21886214D01*
X7469643Y-21900500D01*
X7483928Y-21914786D01*
X7498214Y-21943357D01*
X7498214Y-22029072D01*
X7483928Y-22057643D01*
X7469643Y-22071929D01*
X7441071Y-22086214D01*
X7398214Y-22086214D01*
X7669643Y-22086214D02*
X7641071Y-22071929D01*
X7626786Y-22043357D01*
X7626786Y-21786214D01*
X7898214Y-22071929D02*
X7869643Y-22086214D01*
X7812500Y-22086214D01*
X7783928Y-22071929D01*
X7769643Y-22043357D01*
X7769643Y-21929072D01*
X7783928Y-21900500D01*
X7812500Y-21886214D01*
X7869643Y-21886214D01*
X7898214Y-21900500D01*
X7912500Y-21929072D01*
X7912500Y-21957643D01*
X7769643Y-21986214D01*
X8026786Y-22071929D02*
X8055357Y-22086214D01*
X8112500Y-22086214D01*
X8141071Y-22071929D01*
X8155357Y-22043357D01*
X8155357Y-22029072D01*
X8141071Y-22000500D01*
X8112500Y-21986214D01*
X8069643Y-21986214D01*
X8041071Y-21971929D01*
X8026786Y-21943357D01*
X8026786Y-21929072D01*
X8041071Y-21900500D01*
X8069643Y-21886214D01*
X8112500Y-21886214D01*
X8141071Y-21900500D01*
X8255357Y-22200500D02*
X8269643Y-22186214D01*
X8298214Y-22143357D01*
X8312500Y-22114786D01*
X8326786Y-22071929D01*
X8341071Y-22000500D01*
X8341071Y-21943357D01*
X8326786Y-21871929D01*
X8312500Y-21829072D01*
X8298214Y-21800500D01*
X8269643Y-21757643D01*
X8255357Y-21743357D01*
X1142500Y-22401500D02*
X1197500Y-22346500D01*
X1142500Y-22291500D01*
X1087500Y-22346500D01*
X1142500Y-22401500D01*
X1641071Y-22482214D02*
X1469643Y-22482214D01*
X1555357Y-22482214D02*
X1555357Y-22182214D01*
X1526786Y-22225072D01*
X1498214Y-22253643D01*
X1469643Y-22267929D01*
X1769643Y-22453643D02*
X1783928Y-22467929D01*
X1769643Y-22482214D01*
X1755357Y-22467929D01*
X1769643Y-22453643D01*
X1769643Y-22482214D01*
X2069643Y-22482214D02*
X1898214Y-22482214D01*
X1983928Y-22482214D02*
X1983928Y-22182214D01*
X1955357Y-22225072D01*
X1926786Y-22253643D01*
X1898214Y-22267929D01*
X2255357Y-22182214D02*
X2283928Y-22182214D01*
X2312500Y-22196500D01*
X2326786Y-22210786D01*
X2341071Y-22239357D01*
X2355357Y-22296500D01*
X2355357Y-22367929D01*
X2341071Y-22425071D01*
X2326786Y-22453643D01*
X2312500Y-22467929D01*
X2283928Y-22482214D01*
X2255357Y-22482214D01*
X2226786Y-22467929D01*
X2212500Y-22453643D01*
X2198214Y-22425071D01*
X2183928Y-22367929D01*
X2183928Y-22296500D01*
X2198214Y-22239357D01*
X2212500Y-22210786D01*
X2226786Y-22196500D01*
X2255357Y-22182214D01*
X2483928Y-22482214D02*
X2483928Y-22282214D01*
X2483928Y-22310786D02*
X2498214Y-22296500D01*
X2526786Y-22282214D01*
X2569643Y-22282214D01*
X2598214Y-22296500D01*
X2612500Y-22325072D01*
X2612500Y-22482214D01*
X2612500Y-22325072D02*
X2626786Y-22296500D01*
X2655357Y-22282214D01*
X2698214Y-22282214D01*
X2726786Y-22296500D01*
X2741071Y-22325072D01*
X2741071Y-22482214D01*
X2883928Y-22482214D02*
X2883928Y-22282214D01*
X2883928Y-22310786D02*
X2898214Y-22296500D01*
X2926786Y-22282214D01*
X2969643Y-22282214D01*
X2998214Y-22296500D01*
X3012500Y-22325072D01*
X3012500Y-22482214D01*
X3012500Y-22325072D02*
X3026786Y-22296500D01*
X3055357Y-22282214D01*
X3098214Y-22282214D01*
X3126786Y-22296500D01*
X3141071Y-22325072D01*
X3141071Y-22482214D01*
X3726786Y-22167929D02*
X3469643Y-22553643D01*
X4112500Y-22182214D02*
X4141071Y-22182214D01*
X4169643Y-22196500D01*
X4183928Y-22210786D01*
X4198214Y-22239357D01*
X4212500Y-22296500D01*
X4212500Y-22367929D01*
X4198214Y-22425071D01*
X4183928Y-22453643D01*
X4169643Y-22467929D01*
X4141071Y-22482214D01*
X4112500Y-22482214D01*
X4083928Y-22467929D01*
X4069643Y-22453643D01*
X4055357Y-22425071D01*
X4041071Y-22367929D01*
X4041071Y-22296500D01*
X4055357Y-22239357D01*
X4069643Y-22210786D01*
X4083928Y-22196500D01*
X4112500Y-22182214D01*
X4341071Y-22453643D02*
X4355357Y-22467929D01*
X4341071Y-22482214D01*
X4326786Y-22467929D01*
X4341071Y-22453643D01*
X4341071Y-22482214D01*
X4541071Y-22182214D02*
X4569643Y-22182214D01*
X4598214Y-22196500D01*
X4612500Y-22210786D01*
X4626786Y-22239357D01*
X4641071Y-22296500D01*
X4641071Y-22367929D01*
X4626786Y-22425071D01*
X4612500Y-22453643D01*
X4598214Y-22467929D01*
X4569643Y-22482214D01*
X4541071Y-22482214D01*
X4512500Y-22467929D01*
X4498214Y-22453643D01*
X4483928Y-22425071D01*
X4469643Y-22367929D01*
X4469643Y-22296500D01*
X4483928Y-22239357D01*
X4498214Y-22210786D01*
X4512500Y-22196500D01*
X4541071Y-22182214D01*
X4898214Y-22282214D02*
X4898214Y-22482214D01*
X4826786Y-22167929D02*
X4755357Y-22382214D01*
X4941071Y-22382214D01*
X5026786Y-22182214D02*
X5212500Y-22182214D01*
X5112500Y-22296500D01*
X5155357Y-22296500D01*
X5183928Y-22310786D01*
X5198214Y-22325072D01*
X5212500Y-22353643D01*
X5212500Y-22425071D01*
X5198214Y-22453643D01*
X5183928Y-22467929D01*
X5155357Y-22482214D01*
X5069643Y-22482214D01*
X5041071Y-22467929D01*
X5026786Y-22453643D01*
X5326786Y-22182214D02*
X5326786Y-22239357D01*
X5441071Y-22182214D02*
X5441071Y-22239357D01*
X5883928Y-22596500D02*
X5869643Y-22582214D01*
X5841071Y-22539357D01*
X5826786Y-22510786D01*
X5812500Y-22467929D01*
X5798214Y-22396500D01*
X5798214Y-22339357D01*
X5812500Y-22267929D01*
X5826786Y-22225072D01*
X5841071Y-22196500D01*
X5869643Y-22153643D01*
X5883928Y-22139357D01*
X6012500Y-22482214D02*
X6069643Y-22482214D01*
X6098214Y-22467929D01*
X6112500Y-22453643D01*
X6141071Y-22410786D01*
X6155357Y-22353643D01*
X6155357Y-22239357D01*
X6141071Y-22210786D01*
X6126786Y-22196500D01*
X6098214Y-22182214D01*
X6041071Y-22182214D01*
X6012500Y-22196500D01*
X5998214Y-22210786D01*
X5983928Y-22239357D01*
X5983928Y-22310786D01*
X5998214Y-22339357D01*
X6012500Y-22353643D01*
X6041071Y-22367929D01*
X6098214Y-22367929D01*
X6126786Y-22353643D01*
X6141071Y-22339357D01*
X6155357Y-22310786D01*
X6512500Y-22482214D02*
X6512500Y-22182214D01*
X6641071Y-22482214D02*
X6641071Y-22325072D01*
X6626786Y-22296500D01*
X6598214Y-22282214D01*
X6555357Y-22282214D01*
X6526786Y-22296500D01*
X6512500Y-22310786D01*
X6826786Y-22482214D02*
X6798214Y-22467929D01*
X6783928Y-22453643D01*
X6769643Y-22425071D01*
X6769643Y-22339357D01*
X6783928Y-22310786D01*
X6798214Y-22296500D01*
X6826786Y-22282214D01*
X6869643Y-22282214D01*
X6898214Y-22296500D01*
X6912500Y-22310786D01*
X6926786Y-22339357D01*
X6926786Y-22425071D01*
X6912500Y-22453643D01*
X6898214Y-22467929D01*
X6869643Y-22482214D01*
X6826786Y-22482214D01*
X7098214Y-22482214D02*
X7069643Y-22467929D01*
X7055357Y-22439357D01*
X7055357Y-22182214D01*
X7326786Y-22467929D02*
X7298214Y-22482214D01*
X7241071Y-22482214D01*
X7212500Y-22467929D01*
X7198214Y-22439357D01*
X7198214Y-22325072D01*
X7212500Y-22296500D01*
X7241071Y-22282214D01*
X7298214Y-22282214D01*
X7326786Y-22296500D01*
X7341071Y-22325072D01*
X7341071Y-22353643D01*
X7198214Y-22382214D01*
X7455357Y-22467929D02*
X7483928Y-22482214D01*
X7541071Y-22482214D01*
X7569643Y-22467929D01*
X7583928Y-22439357D01*
X7583928Y-22425071D01*
X7569643Y-22396500D01*
X7541071Y-22382214D01*
X7498214Y-22382214D01*
X7469643Y-22367929D01*
X7455357Y-22339357D01*
X7455357Y-22325072D01*
X7469643Y-22296500D01*
X7498214Y-22282214D01*
X7541071Y-22282214D01*
X7569643Y-22296500D01*
X7683928Y-22596500D02*
X7698214Y-22582214D01*
X7726786Y-22539357D01*
X7741071Y-22510786D01*
X7755357Y-22467929D01*
X7769643Y-22396500D01*
X7769643Y-22339357D01*
X7755357Y-22267929D01*
X7741071Y-22225072D01*
X7726786Y-22196500D01*
X7698214Y-22153643D01*
X7683928Y-22139357D01*
X1070500Y-22679000D02*
X1197500Y-22806000D01*
X1197500Y-22679000D02*
X1070500Y-22806000D01*
X1197500Y-22742500D02*
G75*
G03X1197500Y-22742500I-63500J0D01*
G01*
X1641071Y-22878214D02*
X1469643Y-22878214D01*
X1555357Y-22878214D02*
X1555357Y-22578214D01*
X1526786Y-22621071D01*
X1498214Y-22649643D01*
X1469643Y-22663929D01*
X1769643Y-22849643D02*
X1783928Y-22863929D01*
X1769643Y-22878214D01*
X1755357Y-22863929D01*
X1769643Y-22849643D01*
X1769643Y-22878214D01*
X1898214Y-22606786D02*
X1912500Y-22592500D01*
X1941071Y-22578214D01*
X2012500Y-22578214D01*
X2041071Y-22592500D01*
X2055357Y-22606786D01*
X2069643Y-22635357D01*
X2069643Y-22663929D01*
X2055357Y-22706786D01*
X1883928Y-22878214D01*
X2069643Y-22878214D01*
X2169643Y-22578214D02*
X2369643Y-22578214D01*
X2241071Y-22878214D01*
X2483928Y-22878214D02*
X2483928Y-22678214D01*
X2483928Y-22706786D02*
X2498214Y-22692500D01*
X2526786Y-22678214D01*
X2569643Y-22678214D01*
X2598214Y-22692500D01*
X2612500Y-22721071D01*
X2612500Y-22878214D01*
X2612500Y-22721071D02*
X2626786Y-22692500D01*
X2655357Y-22678214D01*
X2698214Y-22678214D01*
X2726786Y-22692500D01*
X2741071Y-22721071D01*
X2741071Y-22878214D01*
X2883928Y-22878214D02*
X2883928Y-22678214D01*
X2883928Y-22706786D02*
X2898214Y-22692500D01*
X2926786Y-22678214D01*
X2969643Y-22678214D01*
X2998214Y-22692500D01*
X3012500Y-22721071D01*
X3012500Y-22878214D01*
X3012500Y-22721071D02*
X3026786Y-22692500D01*
X3055357Y-22678214D01*
X3098214Y-22678214D01*
X3126786Y-22692500D01*
X3141071Y-22721071D01*
X3141071Y-22878214D01*
X3726786Y-22563929D02*
X3469643Y-22949643D01*
X4112500Y-22578214D02*
X4141071Y-22578214D01*
X4169643Y-22592500D01*
X4183928Y-22606786D01*
X4198214Y-22635357D01*
X4212500Y-22692500D01*
X4212500Y-22763929D01*
X4198214Y-22821071D01*
X4183928Y-22849643D01*
X4169643Y-22863929D01*
X4141071Y-22878214D01*
X4112500Y-22878214D01*
X4083928Y-22863929D01*
X4069643Y-22849643D01*
X4055357Y-22821071D01*
X4041071Y-22763929D01*
X4041071Y-22692500D01*
X4055357Y-22635357D01*
X4069643Y-22606786D01*
X4083928Y-22592500D01*
X4112500Y-22578214D01*
X4341071Y-22849643D02*
X4355357Y-22863929D01*
X4341071Y-22878214D01*
X4326786Y-22863929D01*
X4341071Y-22849643D01*
X4341071Y-22878214D01*
X4541071Y-22578214D02*
X4569643Y-22578214D01*
X4598214Y-22592500D01*
X4612500Y-22606786D01*
X4626786Y-22635357D01*
X4641071Y-22692500D01*
X4641071Y-22763929D01*
X4626786Y-22821071D01*
X4612500Y-22849643D01*
X4598214Y-22863929D01*
X4569643Y-22878214D01*
X4541071Y-22878214D01*
X4512500Y-22863929D01*
X4498214Y-22849643D01*
X4483928Y-22821071D01*
X4469643Y-22763929D01*
X4469643Y-22692500D01*
X4483928Y-22635357D01*
X4498214Y-22606786D01*
X4512500Y-22592500D01*
X4541071Y-22578214D01*
X4912500Y-22578214D02*
X4769643Y-22578214D01*
X4755357Y-22721071D01*
X4769643Y-22706786D01*
X4798214Y-22692500D01*
X4869643Y-22692500D01*
X4898214Y-22706786D01*
X4912500Y-22721071D01*
X4926786Y-22749643D01*
X4926786Y-22821071D01*
X4912500Y-22849643D01*
X4898214Y-22863929D01*
X4869643Y-22878214D01*
X4798214Y-22878214D01*
X4769643Y-22863929D01*
X4755357Y-22849643D01*
X5112500Y-22578214D02*
X5141071Y-22578214D01*
X5169643Y-22592500D01*
X5183928Y-22606786D01*
X5198214Y-22635357D01*
X5212500Y-22692500D01*
X5212500Y-22763929D01*
X5198214Y-22821071D01*
X5183928Y-22849643D01*
X5169643Y-22863929D01*
X5141071Y-22878214D01*
X5112500Y-22878214D01*
X5083928Y-22863929D01*
X5069643Y-22849643D01*
X5055357Y-22821071D01*
X5041071Y-22763929D01*
X5041071Y-22692500D01*
X5055357Y-22635357D01*
X5069643Y-22606786D01*
X5083928Y-22592500D01*
X5112500Y-22578214D01*
X5326786Y-22578214D02*
X5326786Y-22635357D01*
X5441071Y-22578214D02*
X5441071Y-22635357D01*
X5883928Y-22992500D02*
X5869643Y-22978214D01*
X5841071Y-22935357D01*
X5826786Y-22906786D01*
X5812500Y-22863929D01*
X5798214Y-22792500D01*
X5798214Y-22735357D01*
X5812500Y-22663929D01*
X5826786Y-22621071D01*
X5841071Y-22592500D01*
X5869643Y-22549643D01*
X5883928Y-22535357D01*
X6126786Y-22678214D02*
X6126786Y-22878214D01*
X6055357Y-22563929D02*
X5983928Y-22778214D01*
X6169643Y-22778214D01*
X6512500Y-22878214D02*
X6512500Y-22578214D01*
X6641071Y-22878214D02*
X6641071Y-22721071D01*
X6626786Y-22692500D01*
X6598214Y-22678214D01*
X6555357Y-22678214D01*
X6526786Y-22692500D01*
X6512500Y-22706786D01*
X6826786Y-22878214D02*
X6798214Y-22863929D01*
X6783928Y-22849643D01*
X6769643Y-22821071D01*
X6769643Y-22735357D01*
X6783928Y-22706786D01*
X6798214Y-22692500D01*
X6826786Y-22678214D01*
X6869643Y-22678214D01*
X6898214Y-22692500D01*
X6912500Y-22706786D01*
X6926786Y-22735357D01*
X6926786Y-22821071D01*
X6912500Y-22849643D01*
X6898214Y-22863929D01*
X6869643Y-22878214D01*
X6826786Y-22878214D01*
X7098214Y-22878214D02*
X7069643Y-22863929D01*
X7055357Y-22835357D01*
X7055357Y-22578214D01*
X7326786Y-22863929D02*
X7298214Y-22878214D01*
X7241071Y-22878214D01*
X7212500Y-22863929D01*
X7198214Y-22835357D01*
X7198214Y-22721071D01*
X7212500Y-22692500D01*
X7241071Y-22678214D01*
X7298214Y-22678214D01*
X7326786Y-22692500D01*
X7341071Y-22721071D01*
X7341071Y-22749643D01*
X7198214Y-22778214D01*
X7455357Y-22863929D02*
X7483928Y-22878214D01*
X7541071Y-22878214D01*
X7569643Y-22863929D01*
X7583928Y-22835357D01*
X7583928Y-22821071D01*
X7569643Y-22792500D01*
X7541071Y-22778214D01*
X7498214Y-22778214D01*
X7469643Y-22763929D01*
X7455357Y-22735357D01*
X7455357Y-22721071D01*
X7469643Y-22692500D01*
X7498214Y-22678214D01*
X7541071Y-22678214D01*
X7569643Y-22692500D01*
X7683928Y-22992500D02*
X7698214Y-22978214D01*
X7726786Y-22935357D01*
X7741071Y-22906786D01*
X7755357Y-22863929D01*
X7769643Y-22792500D01*
X7769643Y-22735357D01*
X7755357Y-22663929D01*
X7741071Y-22621071D01*
X7726786Y-22592500D01*
X7698214Y-22549643D01*
X7683928Y-22535357D01*
X877500Y-22978500D02*
X1197500Y-23298500D01*
X1197500Y-22978500D02*
X877500Y-23298500D01*
X1037500Y-22978500D02*
X1037500Y-23298500D01*
X877500Y-23138500D02*
X1197500Y-23138500D01*
X1455357Y-22974214D02*
X1641071Y-22974214D01*
X1541071Y-23088500D01*
X1583928Y-23088500D01*
X1612500Y-23102786D01*
X1626786Y-23117071D01*
X1641071Y-23145643D01*
X1641071Y-23217071D01*
X1626786Y-23245643D01*
X1612500Y-23259929D01*
X1583928Y-23274214D01*
X1498214Y-23274214D01*
X1469643Y-23259929D01*
X1455357Y-23245643D01*
X1769643Y-23245643D02*
X1783928Y-23259929D01*
X1769643Y-23274214D01*
X1755357Y-23259929D01*
X1769643Y-23245643D01*
X1769643Y-23274214D01*
X1898214Y-23002786D02*
X1912500Y-22988500D01*
X1941071Y-22974214D01*
X2012500Y-22974214D01*
X2041071Y-22988500D01*
X2055357Y-23002786D01*
X2069643Y-23031357D01*
X2069643Y-23059929D01*
X2055357Y-23102786D01*
X1883928Y-23274214D01*
X2069643Y-23274214D01*
X2255357Y-22974214D02*
X2283928Y-22974214D01*
X2312500Y-22988500D01*
X2326786Y-23002786D01*
X2341071Y-23031357D01*
X2355357Y-23088500D01*
X2355357Y-23159929D01*
X2341071Y-23217071D01*
X2326786Y-23245643D01*
X2312500Y-23259929D01*
X2283928Y-23274214D01*
X2255357Y-23274214D01*
X2226786Y-23259929D01*
X2212500Y-23245643D01*
X2198214Y-23217071D01*
X2183928Y-23159929D01*
X2183928Y-23088500D01*
X2198214Y-23031357D01*
X2212500Y-23002786D01*
X2226786Y-22988500D01*
X2255357Y-22974214D01*
X2483928Y-23274214D02*
X2483928Y-23074214D01*
X2483928Y-23102786D02*
X2498214Y-23088500D01*
X2526786Y-23074214D01*
X2569643Y-23074214D01*
X2598214Y-23088500D01*
X2612500Y-23117071D01*
X2612500Y-23274214D01*
X2612500Y-23117071D02*
X2626786Y-23088500D01*
X2655357Y-23074214D01*
X2698214Y-23074214D01*
X2726786Y-23088500D01*
X2741071Y-23117071D01*
X2741071Y-23274214D01*
X2883928Y-23274214D02*
X2883928Y-23074214D01*
X2883928Y-23102786D02*
X2898214Y-23088500D01*
X2926786Y-23074214D01*
X2969643Y-23074214D01*
X2998214Y-23088500D01*
X3012500Y-23117071D01*
X3012500Y-23274214D01*
X3012500Y-23117071D02*
X3026786Y-23088500D01*
X3055357Y-23074214D01*
X3098214Y-23074214D01*
X3126786Y-23088500D01*
X3141071Y-23117071D01*
X3141071Y-23274214D01*
X3726786Y-22959929D02*
X3469643Y-23345643D01*
X4112500Y-22974214D02*
X4141071Y-22974214D01*
X4169643Y-22988500D01*
X4183928Y-23002786D01*
X4198214Y-23031357D01*
X4212500Y-23088500D01*
X4212500Y-23159929D01*
X4198214Y-23217071D01*
X4183928Y-23245643D01*
X4169643Y-23259929D01*
X4141071Y-23274214D01*
X4112500Y-23274214D01*
X4083928Y-23259929D01*
X4069643Y-23245643D01*
X4055357Y-23217071D01*
X4041071Y-23159929D01*
X4041071Y-23088500D01*
X4055357Y-23031357D01*
X4069643Y-23002786D01*
X4083928Y-22988500D01*
X4112500Y-22974214D01*
X4341071Y-23245643D02*
X4355357Y-23259929D01*
X4341071Y-23274214D01*
X4326786Y-23259929D01*
X4341071Y-23245643D01*
X4341071Y-23274214D01*
X4641071Y-23274214D02*
X4469643Y-23274214D01*
X4555357Y-23274214D02*
X4555357Y-22974214D01*
X4526786Y-23017071D01*
X4498214Y-23045643D01*
X4469643Y-23059929D01*
X4755357Y-23002786D02*
X4769643Y-22988500D01*
X4798214Y-22974214D01*
X4869643Y-22974214D01*
X4898214Y-22988500D01*
X4912500Y-23002786D01*
X4926786Y-23031357D01*
X4926786Y-23059929D01*
X4912500Y-23102786D01*
X4741071Y-23274214D01*
X4926786Y-23274214D01*
X5183928Y-22974214D02*
X5126786Y-22974214D01*
X5098214Y-22988500D01*
X5083928Y-23002786D01*
X5055357Y-23045643D01*
X5041071Y-23102786D01*
X5041071Y-23217071D01*
X5055357Y-23245643D01*
X5069643Y-23259929D01*
X5098214Y-23274214D01*
X5155357Y-23274214D01*
X5183928Y-23259929D01*
X5198214Y-23245643D01*
X5212500Y-23217071D01*
X5212500Y-23145643D01*
X5198214Y-23117071D01*
X5183928Y-23102786D01*
X5155357Y-23088500D01*
X5098214Y-23088500D01*
X5069643Y-23102786D01*
X5055357Y-23117071D01*
X5041071Y-23145643D01*
X5326786Y-22974214D02*
X5326786Y-23031357D01*
X5441071Y-22974214D02*
X5441071Y-23031357D01*
X5883928Y-23388500D02*
X5869643Y-23374214D01*
X5841071Y-23331357D01*
X5826786Y-23302786D01*
X5812500Y-23259929D01*
X5798214Y-23188500D01*
X5798214Y-23131357D01*
X5812500Y-23059929D01*
X5826786Y-23017071D01*
X5841071Y-22988500D01*
X5869643Y-22945643D01*
X5883928Y-22931357D01*
X6126786Y-23074214D02*
X6126786Y-23274214D01*
X6055357Y-22959929D02*
X5983928Y-23174214D01*
X6169643Y-23174214D01*
X6512500Y-23274214D02*
X6512500Y-22974214D01*
X6641071Y-23274214D02*
X6641071Y-23117071D01*
X6626786Y-23088500D01*
X6598214Y-23074214D01*
X6555357Y-23074214D01*
X6526786Y-23088500D01*
X6512500Y-23102786D01*
X6826786Y-23274214D02*
X6798214Y-23259929D01*
X6783928Y-23245643D01*
X6769643Y-23217071D01*
X6769643Y-23131357D01*
X6783928Y-23102786D01*
X6798214Y-23088500D01*
X6826786Y-23074214D01*
X6869643Y-23074214D01*
X6898214Y-23088500D01*
X6912500Y-23102786D01*
X6926786Y-23131357D01*
X6926786Y-23217071D01*
X6912500Y-23245643D01*
X6898214Y-23259929D01*
X6869643Y-23274214D01*
X6826786Y-23274214D01*
X7098214Y-23274214D02*
X7069643Y-23259929D01*
X7055357Y-23231357D01*
X7055357Y-22974214D01*
X7326786Y-23259929D02*
X7298214Y-23274214D01*
X7241071Y-23274214D01*
X7212500Y-23259929D01*
X7198214Y-23231357D01*
X7198214Y-23117071D01*
X7212500Y-23088500D01*
X7241071Y-23074214D01*
X7298214Y-23074214D01*
X7326786Y-23088500D01*
X7341071Y-23117071D01*
X7341071Y-23145643D01*
X7198214Y-23174214D01*
X7455357Y-23259929D02*
X7483928Y-23274214D01*
X7541071Y-23274214D01*
X7569643Y-23259929D01*
X7583928Y-23231357D01*
X7583928Y-23217071D01*
X7569643Y-23188500D01*
X7541071Y-23174214D01*
X7498214Y-23174214D01*
X7469643Y-23159929D01*
X7455357Y-23131357D01*
X7455357Y-23117071D01*
X7469643Y-23088500D01*
X7498214Y-23074214D01*
X7541071Y-23074214D01*
X7569643Y-23088500D01*
X7683928Y-23388500D02*
X7698214Y-23374214D01*
X7726786Y-23331357D01*
X7741071Y-23302786D01*
X7755357Y-23259929D01*
X7769643Y-23188500D01*
X7769643Y-23131357D01*
X7755357Y-23059929D01*
X7741071Y-23017071D01*
X7726786Y-22988500D01*
X7698214Y-22945643D01*
X7683928Y-22931357D01*
M02*
