%TF.GenerationSoftware,KiCad,Pcbnew,(5.99.0-1662-g9db296991)*%
%TF.CreationDate,2020-05-29T20:42:40+05:30*%
%TF.ProjectId,TPS62133,54505336-3231-4333-932e-6b696361645f,rev?*%
%TF.SameCoordinates,Original*%
%TF.FileFunction,Copper,L1,Top*%
%TF.FilePolarity,Positive*%
%FSLAX46Y46*%
G04 Gerber Fmt 4.6, Leading zero omitted, Abs format (unit mm)*
G04 Created by KiCad (PCBNEW (5.99.0-1662-g9db296991)) date 2020-05-29 20:42:40*
%MOMM*%
%LPD*%
G01*
G04 APERTURE LIST*
%TA.AperFunction,ComponentPad*%
%ADD10C,1.524000*%
%TD*%
%TA.AperFunction,SMDPad,CuDef*%
%ADD11R,2.400000X1.500000*%
%TD*%
%TA.AperFunction,ViaPad*%
%ADD12C,0.500000*%
%TD*%
%TA.AperFunction,SMDPad,CuDef*%
%ADD13R,1.680000X1.680000*%
%TD*%
%TA.AperFunction,ViaPad*%
%ADD14C,0.800000*%
%TD*%
%TA.AperFunction,Conductor*%
%ADD15C,0.250000*%
%TD*%
%TA.AperFunction,Conductor*%
%ADD16C,0.381000*%
%TD*%
G04 APERTURE END LIST*
D10*
%TO.P,DB1,1,in+*%
%TO.N,/Vin*%
X12000000Y-12000000D03*
%TO.P,DB1,2,GND*%
%TO.N,GNDREF*%
X12000000Y-30000000D03*
%TO.P,DB1,5,en*%
%TO.N,/EN*%
X12000000Y-21000000D03*
%TO.P,DB1,4,GND*%
%TO.N,GNDREF*%
X52000000Y-30000000D03*
%TO.P,DB1,6,D+*%
%TO.N,Net-(DB1-Pad6)*%
X52000000Y-19000000D03*
%TO.P,DB1,3,out+*%
%TO.N,/+5V*%
X52000000Y-12000000D03*
%TO.P,DB1,7,D-*%
%TO.N,Net-(DB1-Pad7)*%
X52000000Y-23000000D03*
%TD*%
%TO.P,C4,2*%
%TO.N,GNDREF*%
%TA.AperFunction,SMDPad,CuDef*%
G36*
G01*
X44875000Y-17275000D02*
X46125000Y-17275000D01*
G75*
G02*
X46375000Y-17525000I0J-250000D01*
G01*
X46375000Y-18450000D01*
G75*
G02*
X46125000Y-18700000I-250000J0D01*
G01*
X44875000Y-18700000D01*
G75*
G02*
X44625000Y-18450000I0J250000D01*
G01*
X44625000Y-17525000D01*
G75*
G02*
X44875000Y-17275000I250000J0D01*
G01*
G37*
%TD.AperFunction*%
%TO.P,C4,1*%
%TO.N,/+5V*%
%TA.AperFunction,SMDPad,CuDef*%
G36*
G01*
X44875000Y-14300000D02*
X46125000Y-14300000D01*
G75*
G02*
X46375000Y-14550000I0J-250000D01*
G01*
X46375000Y-15475000D01*
G75*
G02*
X46125000Y-15725000I-250000J0D01*
G01*
X44875000Y-15725000D01*
G75*
G02*
X44625000Y-15475000I0J250000D01*
G01*
X44625000Y-14550000D01*
G75*
G02*
X44875000Y-14300000I250000J0D01*
G01*
G37*
%TD.AperFunction*%
%TD*%
D11*
%TO.P,L1,2*%
%TO.N,/+5V*%
X40000000Y-15250000D03*
%TO.P,L1,1*%
%TO.N,Net-(L1-Pad1)*%
X40000000Y-20750000D03*
%TD*%
D12*
%TO.N,GNDREF*%
%TO.C,U1*%
X31410000Y-20410000D03*
X32590000Y-20410000D03*
X31410000Y-21590000D03*
X32590000Y-21590000D03*
D13*
%TD*%
%TO.P,U1,17,EP*%
%TO.N,GNDREF*%
X32000000Y-21000000D03*
%TO.P,U1,16,PGND*%
%TO.N,GNDREF*%
%TA.AperFunction,SMDPad,CuDef*%
G36*
G01*
X32875000Y-22112500D02*
X32875000Y-22812500D01*
G75*
G02*
X32812500Y-22875000I-62500J0D01*
G01*
X32687500Y-22875000D01*
G75*
G02*
X32625000Y-22812500I0J62500D01*
G01*
X32625000Y-22112500D01*
G75*
G02*
X32687500Y-22050000I62500J0D01*
G01*
X32812500Y-22050000D01*
G75*
G02*
X32875000Y-22112500I0J-62500D01*
G01*
G37*
%TD.AperFunction*%
%TO.P,U1,15,PGND*%
%TA.AperFunction,SMDPad,CuDef*%
G36*
G01*
X32375000Y-22112500D02*
X32375000Y-22812500D01*
G75*
G02*
X32312500Y-22875000I-62500J0D01*
G01*
X32187500Y-22875000D01*
G75*
G02*
X32125000Y-22812500I0J62500D01*
G01*
X32125000Y-22112500D01*
G75*
G02*
X32187500Y-22050000I62500J0D01*
G01*
X32312500Y-22050000D01*
G75*
G02*
X32375000Y-22112500I0J-62500D01*
G01*
G37*
%TD.AperFunction*%
%TO.P,U1,14,VOS*%
%TO.N,/+5V*%
%TA.AperFunction,SMDPad,CuDef*%
G36*
G01*
X31875000Y-22112500D02*
X31875000Y-22812500D01*
G75*
G02*
X31812500Y-22875000I-62500J0D01*
G01*
X31687500Y-22875000D01*
G75*
G02*
X31625000Y-22812500I0J62500D01*
G01*
X31625000Y-22112500D01*
G75*
G02*
X31687500Y-22050000I62500J0D01*
G01*
X31812500Y-22050000D01*
G75*
G02*
X31875000Y-22112500I0J-62500D01*
G01*
G37*
%TD.AperFunction*%
%TO.P,U1,13,en*%
%TO.N,/EN*%
%TA.AperFunction,SMDPad,CuDef*%
G36*
G01*
X31375000Y-22112500D02*
X31375000Y-22812500D01*
G75*
G02*
X31312500Y-22875000I-62500J0D01*
G01*
X31187500Y-22875000D01*
G75*
G02*
X31125000Y-22812500I0J62500D01*
G01*
X31125000Y-22112500D01*
G75*
G02*
X31187500Y-22050000I62500J0D01*
G01*
X31312500Y-22050000D01*
G75*
G02*
X31375000Y-22112500I0J-62500D01*
G01*
G37*
%TD.AperFunction*%
%TO.P,U1,12,PVin*%
%TO.N,/Vin*%
%TA.AperFunction,SMDPad,CuDef*%
G36*
G01*
X30950000Y-21687500D02*
X30950000Y-21812500D01*
G75*
G02*
X30887500Y-21875000I-62500J0D01*
G01*
X30187500Y-21875000D01*
G75*
G02*
X30125000Y-21812500I0J62500D01*
G01*
X30125000Y-21687500D01*
G75*
G02*
X30187500Y-21625000I62500J0D01*
G01*
X30887500Y-21625000D01*
G75*
G02*
X30950000Y-21687500I0J-62500D01*
G01*
G37*
%TD.AperFunction*%
%TO.P,U1,11,PVin*%
%TA.AperFunction,SMDPad,CuDef*%
G36*
G01*
X30950000Y-21187500D02*
X30950000Y-21312500D01*
G75*
G02*
X30887500Y-21375000I-62500J0D01*
G01*
X30187500Y-21375000D01*
G75*
G02*
X30125000Y-21312500I0J62500D01*
G01*
X30125000Y-21187500D01*
G75*
G02*
X30187500Y-21125000I62500J0D01*
G01*
X30887500Y-21125000D01*
G75*
G02*
X30950000Y-21187500I0J-62500D01*
G01*
G37*
%TD.AperFunction*%
%TO.P,U1,10,AVin*%
%TA.AperFunction,SMDPad,CuDef*%
G36*
G01*
X30950000Y-20687500D02*
X30950000Y-20812500D01*
G75*
G02*
X30887500Y-20875000I-62500J0D01*
G01*
X30187500Y-20875000D01*
G75*
G02*
X30125000Y-20812500I0J62500D01*
G01*
X30125000Y-20687500D01*
G75*
G02*
X30187500Y-20625000I62500J0D01*
G01*
X30887500Y-20625000D01*
G75*
G02*
X30950000Y-20687500I0J-62500D01*
G01*
G37*
%TD.AperFunction*%
%TO.P,U1,9,SS_TR*%
%TO.N,Net-(C2-Pad1)*%
%TA.AperFunction,SMDPad,CuDef*%
G36*
G01*
X30950000Y-20187500D02*
X30950000Y-20312500D01*
G75*
G02*
X30887500Y-20375000I-62500J0D01*
G01*
X30187500Y-20375000D01*
G75*
G02*
X30125000Y-20312500I0J62500D01*
G01*
X30125000Y-20187500D01*
G75*
G02*
X30187500Y-20125000I62500J0D01*
G01*
X30887500Y-20125000D01*
G75*
G02*
X30950000Y-20187500I0J-62500D01*
G01*
G37*
%TD.AperFunction*%
%TO.P,U1,8,DEF*%
%TO.N,GNDREF*%
%TA.AperFunction,SMDPad,CuDef*%
G36*
G01*
X31375000Y-19187500D02*
X31375000Y-19887500D01*
G75*
G02*
X31312500Y-19950000I-62500J0D01*
G01*
X31187500Y-19950000D01*
G75*
G02*
X31125000Y-19887500I0J62500D01*
G01*
X31125000Y-19187500D01*
G75*
G02*
X31187500Y-19125000I62500J0D01*
G01*
X31312500Y-19125000D01*
G75*
G02*
X31375000Y-19187500I0J-62500D01*
G01*
G37*
%TD.AperFunction*%
%TO.P,U1,7,FSW*%
%TO.N,/+5V*%
%TA.AperFunction,SMDPad,CuDef*%
G36*
G01*
X31875000Y-19187500D02*
X31875000Y-19887500D01*
G75*
G02*
X31812500Y-19950000I-62500J0D01*
G01*
X31687500Y-19950000D01*
G75*
G02*
X31625000Y-19887500I0J62500D01*
G01*
X31625000Y-19187500D01*
G75*
G02*
X31687500Y-19125000I62500J0D01*
G01*
X31812500Y-19125000D01*
G75*
G02*
X31875000Y-19187500I0J-62500D01*
G01*
G37*
%TD.AperFunction*%
%TO.P,U1,6,AGND*%
%TO.N,GNDREF*%
%TA.AperFunction,SMDPad,CuDef*%
G36*
G01*
X32375000Y-19187500D02*
X32375000Y-19887500D01*
G75*
G02*
X32312500Y-19950000I-62500J0D01*
G01*
X32187500Y-19950000D01*
G75*
G02*
X32125000Y-19887500I0J62500D01*
G01*
X32125000Y-19187500D01*
G75*
G02*
X32187500Y-19125000I62500J0D01*
G01*
X32312500Y-19125000D01*
G75*
G02*
X32375000Y-19187500I0J-62500D01*
G01*
G37*
%TD.AperFunction*%
%TO.P,U1,5,FB*%
%TA.AperFunction,SMDPad,CuDef*%
G36*
G01*
X32875000Y-19187500D02*
X32875000Y-19887500D01*
G75*
G02*
X32812500Y-19950000I-62500J0D01*
G01*
X32687500Y-19950000D01*
G75*
G02*
X32625000Y-19887500I0J62500D01*
G01*
X32625000Y-19187500D01*
G75*
G02*
X32687500Y-19125000I62500J0D01*
G01*
X32812500Y-19125000D01*
G75*
G02*
X32875000Y-19187500I0J-62500D01*
G01*
G37*
%TD.AperFunction*%
%TO.P,U1,4,PG*%
%TO.N,Net-(R1-Pad1)*%
%TA.AperFunction,SMDPad,CuDef*%
G36*
G01*
X33875000Y-20187500D02*
X33875000Y-20312500D01*
G75*
G02*
X33812500Y-20375000I-62500J0D01*
G01*
X33112500Y-20375000D01*
G75*
G02*
X33050000Y-20312500I0J62500D01*
G01*
X33050000Y-20187500D01*
G75*
G02*
X33112500Y-20125000I62500J0D01*
G01*
X33812500Y-20125000D01*
G75*
G02*
X33875000Y-20187500I0J-62500D01*
G01*
G37*
%TD.AperFunction*%
%TO.P,U1,3,SW*%
%TO.N,Net-(L1-Pad1)*%
%TA.AperFunction,SMDPad,CuDef*%
G36*
G01*
X33875000Y-20687500D02*
X33875000Y-20812500D01*
G75*
G02*
X33812500Y-20875000I-62500J0D01*
G01*
X33112500Y-20875000D01*
G75*
G02*
X33050000Y-20812500I0J62500D01*
G01*
X33050000Y-20687500D01*
G75*
G02*
X33112500Y-20625000I62500J0D01*
G01*
X33812500Y-20625000D01*
G75*
G02*
X33875000Y-20687500I0J-62500D01*
G01*
G37*
%TD.AperFunction*%
%TO.P,U1,2,SW*%
%TA.AperFunction,SMDPad,CuDef*%
G36*
G01*
X33875000Y-21187500D02*
X33875000Y-21312500D01*
G75*
G02*
X33812500Y-21375000I-62500J0D01*
G01*
X33112500Y-21375000D01*
G75*
G02*
X33050000Y-21312500I0J62500D01*
G01*
X33050000Y-21187500D01*
G75*
G02*
X33112500Y-21125000I62500J0D01*
G01*
X33812500Y-21125000D01*
G75*
G02*
X33875000Y-21187500I0J-62500D01*
G01*
G37*
%TD.AperFunction*%
%TO.P,U1,1,SW*%
%TA.AperFunction,SMDPad,CuDef*%
G36*
G01*
X33875000Y-21687500D02*
X33875000Y-21812500D01*
G75*
G02*
X33812500Y-21875000I-62500J0D01*
G01*
X33112500Y-21875000D01*
G75*
G02*
X33050000Y-21812500I0J62500D01*
G01*
X33050000Y-21687500D01*
G75*
G02*
X33112500Y-21625000I62500J0D01*
G01*
X33812500Y-21625000D01*
G75*
G02*
X33875000Y-21687500I0J-62500D01*
G01*
G37*
%TD.AperFunction*%
%TD*%
%TO.P,R1,2*%
%TO.N,/+5V*%
%TA.AperFunction,SMDPad,CuDef*%
G36*
G01*
X35950001Y-16550000D02*
X35049999Y-16550000D01*
G75*
G02*
X34800000Y-16300001I0J249999D01*
G01*
X34800000Y-15649999D01*
G75*
G02*
X35049999Y-15400000I249999J0D01*
G01*
X35950001Y-15400000D01*
G75*
G02*
X36200000Y-15649999I0J-249999D01*
G01*
X36200000Y-16300001D01*
G75*
G02*
X35950001Y-16550000I-249999J0D01*
G01*
G37*
%TD.AperFunction*%
%TO.P,R1,1*%
%TO.N,Net-(R1-Pad1)*%
%TA.AperFunction,SMDPad,CuDef*%
G36*
G01*
X35950001Y-18600000D02*
X35049999Y-18600000D01*
G75*
G02*
X34800000Y-18350001I0J249999D01*
G01*
X34800000Y-17699999D01*
G75*
G02*
X35049999Y-17450000I249999J0D01*
G01*
X35950001Y-17450000D01*
G75*
G02*
X36200000Y-17699999I0J-249999D01*
G01*
X36200000Y-18350001D01*
G75*
G02*
X35950001Y-18600000I-249999J0D01*
G01*
G37*
%TD.AperFunction*%
%TD*%
%TO.P,C3,2*%
%TO.N,GNDREF*%
%TA.AperFunction,SMDPad,CuDef*%
G36*
G01*
X28625000Y-16737500D02*
X27375000Y-16737500D01*
G75*
G02*
X27125000Y-16487500I0J250000D01*
G01*
X27125000Y-15562500D01*
G75*
G02*
X27375000Y-15312500I250000J0D01*
G01*
X28625000Y-15312500D01*
G75*
G02*
X28875000Y-15562500I0J-250000D01*
G01*
X28875000Y-16487500D01*
G75*
G02*
X28625000Y-16737500I-250000J0D01*
G01*
G37*
%TD.AperFunction*%
%TO.P,C3,1*%
%TO.N,/Vin*%
%TA.AperFunction,SMDPad,CuDef*%
G36*
G01*
X28625000Y-19712500D02*
X27375000Y-19712500D01*
G75*
G02*
X27125000Y-19462500I0J250000D01*
G01*
X27125000Y-18537500D01*
G75*
G02*
X27375000Y-18287500I250000J0D01*
G01*
X28625000Y-18287500D01*
G75*
G02*
X28875000Y-18537500I0J-250000D01*
G01*
X28875000Y-19462500D01*
G75*
G02*
X28625000Y-19712500I-250000J0D01*
G01*
G37*
%TD.AperFunction*%
%TD*%
%TO.P,C2,2*%
%TO.N,GNDREF*%
%TA.AperFunction,SMDPad,CuDef*%
G36*
G01*
X31425000Y-16950001D02*
X31425000Y-16049999D01*
G75*
G02*
X31674999Y-15800000I249999J0D01*
G01*
X32325001Y-15800000D01*
G75*
G02*
X32575000Y-16049999I0J-249999D01*
G01*
X32575000Y-16950001D01*
G75*
G02*
X32325001Y-17200000I-249999J0D01*
G01*
X31674999Y-17200000D01*
G75*
G02*
X31425000Y-16950001I0J249999D01*
G01*
G37*
%TD.AperFunction*%
%TO.P,C2,1*%
%TO.N,Net-(C2-Pad1)*%
%TA.AperFunction,SMDPad,CuDef*%
G36*
G01*
X29375000Y-16950001D02*
X29375000Y-16049999D01*
G75*
G02*
X29624999Y-15800000I249999J0D01*
G01*
X30275001Y-15800000D01*
G75*
G02*
X30525000Y-16049999I0J-249999D01*
G01*
X30525000Y-16950001D01*
G75*
G02*
X30275001Y-17200000I-249999J0D01*
G01*
X29624999Y-17200000D01*
G75*
G02*
X29375000Y-16950001I0J249999D01*
G01*
G37*
%TD.AperFunction*%
%TD*%
%TO.P,C1,2*%
%TO.N,GNDREF*%
%TA.AperFunction,SMDPad,CuDef*%
G36*
G01*
X26450001Y-17550000D02*
X25549999Y-17550000D01*
G75*
G02*
X25300000Y-17300001I0J249999D01*
G01*
X25300000Y-16649999D01*
G75*
G02*
X25549999Y-16400000I249999J0D01*
G01*
X26450001Y-16400000D01*
G75*
G02*
X26700000Y-16649999I0J-249999D01*
G01*
X26700000Y-17300001D01*
G75*
G02*
X26450001Y-17550000I-249999J0D01*
G01*
G37*
%TD.AperFunction*%
%TO.P,C1,1*%
%TO.N,/Vin*%
%TA.AperFunction,SMDPad,CuDef*%
G36*
G01*
X26450001Y-19600000D02*
X25549999Y-19600000D01*
G75*
G02*
X25300000Y-19350001I0J249999D01*
G01*
X25300000Y-18699999D01*
G75*
G02*
X25549999Y-18450000I249999J0D01*
G01*
X26450001Y-18450000D01*
G75*
G02*
X26700000Y-18699999I0J-249999D01*
G01*
X26700000Y-19350001D01*
G75*
G02*
X26450001Y-19600000I-249999J0D01*
G01*
G37*
%TD.AperFunction*%
%TD*%
D14*
%TO.N,GNDREF*%
X47000000Y-20500000D03*
X46000000Y-20500000D03*
X45000000Y-20500000D03*
X44000000Y-20500000D03*
X44000000Y-19500000D03*
X44000000Y-18500000D03*
X47000000Y-17500000D03*
X47000000Y-18500000D03*
X47000000Y-19500000D03*
X46000000Y-19500000D03*
X45000000Y-19500000D03*
X33500000Y-14000000D03*
X33500000Y-15000000D03*
X29500000Y-14000000D03*
X30500000Y-14000000D03*
X24500000Y-17500000D03*
X24500000Y-16500000D03*
X24500000Y-15500000D03*
X24500000Y-14500000D03*
X24500000Y-13500000D03*
X31500000Y-18000000D03*
X33500000Y-16000000D03*
X32500000Y-14000000D03*
X31500000Y-14000000D03*
X32500000Y-15000000D03*
X31500000Y-15000000D03*
X25500000Y-13500000D03*
X26500000Y-13500000D03*
X27500000Y-13500000D03*
X28500000Y-13500000D03*
X28500000Y-14500000D03*
X27500000Y-14500000D03*
X26500000Y-14500000D03*
X25500000Y-14500000D03*
X26500000Y-15500000D03*
X25500000Y-15500000D03*
%TD*%
D15*
%TO.N,/+5V*%
X31750000Y-19077692D02*
X31750000Y-19537500D01*
X32427692Y-18400000D02*
X31750000Y-19077692D01*
D16*
%TO.N,Net-(C2-Pad1)*%
X30500000Y-17050000D02*
X30500000Y-20196990D01*
X29950000Y-16500000D02*
X30500000Y-17050000D01*
X30500000Y-20196990D02*
X30537500Y-20234490D01*
%TO.N,/+5V*%
X35500000Y-15975000D02*
X34852692Y-15975000D01*
X34852692Y-15975000D02*
X32427692Y-18400000D01*
X43000000Y-23500000D02*
X43000000Y-18000000D01*
X32350000Y-24250000D02*
X42250000Y-24250000D01*
X31750000Y-22462500D02*
X31750000Y-23650000D01*
X42250000Y-24250000D02*
X43000000Y-23500000D01*
X45500000Y-15500000D02*
X45500000Y-15012500D01*
X31750000Y-23650000D02*
X32350000Y-24250000D01*
X43000000Y-18000000D02*
X45500000Y-15500000D01*
D15*
%TO.N,GNDREF*%
X31250000Y-19537500D02*
X31275010Y-19562510D01*
X31275010Y-19562510D02*
X31275010Y-20275010D01*
X31275010Y-20275010D02*
X31410000Y-20410000D01*
D16*
%TO.N,Net-(R1-Pad1)*%
X34975000Y-18025000D02*
X33462500Y-19537500D01*
X35500000Y-18025000D02*
X34975000Y-18025000D01*
X33462500Y-19537500D02*
X33462500Y-20234490D01*
%TO.N,/EN*%
X15000000Y-24000000D02*
X30500000Y-24000000D01*
X12000000Y-21000000D02*
X15000000Y-24000000D01*
X30500000Y-24000000D02*
X31234490Y-23265510D01*
X31234490Y-23265510D02*
X31234490Y-22462500D01*
%TD*%
%TO.N,GNDREF*%
G36*
X53227694Y-14219904D02*
G01*
X53246000Y-14264098D01*
X53246001Y-30452555D01*
X53243255Y-30470878D01*
X53242349Y-30473831D01*
X53225225Y-30642419D01*
X53222685Y-30654793D01*
X53181777Y-30785332D01*
X53176801Y-30796943D01*
X53110472Y-30916603D01*
X53103263Y-30926975D01*
X53014239Y-31030842D01*
X53005091Y-31039554D01*
X52896993Y-31123403D01*
X52886280Y-31130097D01*
X52763530Y-31190497D01*
X52751690Y-31194900D01*
X52615470Y-31230382D01*
X52604511Y-31232216D01*
X52480125Y-31241788D01*
X52473362Y-31243683D01*
X52456503Y-31246000D01*
X11547441Y-31246000D01*
X11529118Y-31243254D01*
X11526168Y-31242349D01*
X11357581Y-31225225D01*
X11345207Y-31222685D01*
X11214668Y-31181777D01*
X11203057Y-31176801D01*
X11083397Y-31110472D01*
X11073025Y-31103263D01*
X10969158Y-31014239D01*
X10960446Y-31005091D01*
X10876597Y-30896993D01*
X10869903Y-30886280D01*
X10809503Y-30763530D01*
X10805100Y-30751690D01*
X10769618Y-30615470D01*
X10767784Y-30604511D01*
X10758212Y-30480125D01*
X10756317Y-30473362D01*
X10754000Y-30456503D01*
X10754000Y-29084397D01*
X45243109Y-29084397D01*
X45274879Y-29343148D01*
X45344549Y-29594368D01*
X45450587Y-29832532D01*
X45590661Y-30052405D01*
X45761697Y-30249159D01*
X45959935Y-30418470D01*
X46181027Y-30556624D01*
X46420101Y-30660575D01*
X46671927Y-30728051D01*
X46930945Y-30757562D01*
X47191488Y-30748464D01*
X47447825Y-30700955D01*
X47694324Y-30616077D01*
X47925572Y-30495696D01*
X48136484Y-30342459D01*
X48322425Y-30159735D01*
X48479317Y-29951532D01*
X48603715Y-29722420D01*
X48692881Y-29477438D01*
X48744854Y-29221977D01*
X48754081Y-28869649D01*
X48715546Y-28611809D01*
X48639326Y-28362503D01*
X48527089Y-28127193D01*
X48381303Y-27911058D01*
X48205183Y-27718858D01*
X48002572Y-27554786D01*
X47777952Y-27422475D01*
X47536226Y-27324812D01*
X47282730Y-27263954D01*
X47023010Y-27241233D01*
X46762810Y-27257148D01*
X46507803Y-27311351D01*
X46263609Y-27402653D01*
X46035600Y-27529040D01*
X45828767Y-27687749D01*
X45647668Y-27875281D01*
X45496280Y-28087519D01*
X45377924Y-28319807D01*
X45295202Y-28567039D01*
X45249932Y-28823780D01*
X45243109Y-29084397D01*
X10754000Y-29084397D01*
X10754000Y-15068959D01*
X10772306Y-15024765D01*
X10816500Y-15006459D01*
X10849460Y-15015856D01*
X24418304Y-23437897D01*
X24446200Y-23476757D01*
X24438447Y-23523960D01*
X24385344Y-23553500D01*
X15210834Y-23553500D01*
X15166640Y-23535194D01*
X12990337Y-21358892D01*
X12973584Y-21300851D01*
X13012865Y-21127958D01*
X13016043Y-20900376D01*
X12977341Y-20704920D01*
X12901414Y-20520710D01*
X12791152Y-20354753D01*
X12650753Y-20213368D01*
X12485567Y-20101951D01*
X12301889Y-20024740D01*
X12106724Y-19984679D01*
X12106706Y-19984678D01*
X11907470Y-19983287D01*
X11711748Y-20020624D01*
X11527014Y-20095261D01*
X11360293Y-20204361D01*
X11217932Y-20343770D01*
X11105364Y-20508171D01*
X11026872Y-20691310D01*
X10985447Y-20886196D01*
X10982665Y-21085427D01*
X11018635Y-21281404D01*
X11091979Y-21466655D01*
X11199916Y-21634138D01*
X11338325Y-21777465D01*
X11501938Y-21891179D01*
X11684525Y-21970949D01*
X11879123Y-22013733D01*
X12078320Y-22017906D01*
X12274547Y-21983306D01*
X12292270Y-21976432D01*
X12359064Y-21990509D01*
X14668563Y-24300009D01*
X14672247Y-24304029D01*
X14708568Y-24347315D01*
X14757518Y-24375576D01*
X14762116Y-24378506D01*
X14808391Y-24410907D01*
X14819711Y-24413941D01*
X14834782Y-24420184D01*
X14844931Y-24426043D01*
X14900578Y-24435855D01*
X14905903Y-24437036D01*
X14960484Y-24451662D01*
X15016768Y-24446738D01*
X15022215Y-24446500D01*
X30477788Y-24446500D01*
X30483236Y-24446738D01*
X30539515Y-24451662D01*
X30594098Y-24437035D01*
X30599424Y-24435854D01*
X30655068Y-24426043D01*
X30665216Y-24420184D01*
X30680294Y-24413938D01*
X30691610Y-24410906D01*
X30737878Y-24378509D01*
X30742476Y-24375579D01*
X30791432Y-24347314D01*
X30827760Y-24304021D01*
X30831444Y-24300001D01*
X31266139Y-23865306D01*
X31310333Y-23847000D01*
X31361531Y-23873653D01*
X31371504Y-23887897D01*
X31374433Y-23892495D01*
X31402686Y-23941432D01*
X31445973Y-23977754D01*
X31449993Y-23981438D01*
X32018563Y-24550009D01*
X32022247Y-24554029D01*
X32058568Y-24597315D01*
X32107518Y-24625576D01*
X32112116Y-24628506D01*
X32158391Y-24660907D01*
X32169711Y-24663941D01*
X32184782Y-24670184D01*
X32194931Y-24676043D01*
X32250578Y-24685855D01*
X32255903Y-24687036D01*
X32310484Y-24701662D01*
X32366763Y-24696738D01*
X32372211Y-24696500D01*
X42227788Y-24696500D01*
X42233236Y-24696738D01*
X42289515Y-24701662D01*
X42344098Y-24687035D01*
X42349424Y-24685854D01*
X42405068Y-24676043D01*
X42415216Y-24670184D01*
X42430294Y-24663938D01*
X42441610Y-24660906D01*
X42487878Y-24628509D01*
X42492476Y-24625579D01*
X42541432Y-24597314D01*
X42577760Y-24554021D01*
X42581444Y-24550001D01*
X43300011Y-23831435D01*
X43304031Y-23827751D01*
X43347316Y-23791431D01*
X43375577Y-23742481D01*
X43378507Y-23737883D01*
X43410907Y-23691609D01*
X43413941Y-23680289D01*
X43420184Y-23665218D01*
X43426043Y-23655069D01*
X43435855Y-23599422D01*
X43437036Y-23594097D01*
X43451662Y-23539516D01*
X43446738Y-23483237D01*
X43446500Y-23477789D01*
X43446500Y-23085427D01*
X50982665Y-23085427D01*
X51018635Y-23281404D01*
X51091979Y-23466655D01*
X51199916Y-23634138D01*
X51338325Y-23777465D01*
X51501938Y-23891179D01*
X51684525Y-23970949D01*
X51879123Y-24013733D01*
X52078320Y-24017906D01*
X52274548Y-23983306D01*
X52460307Y-23911254D01*
X52628540Y-23804491D01*
X52772828Y-23667088D01*
X52887683Y-23504268D01*
X52968722Y-23322253D01*
X53012865Y-23127958D01*
X53016043Y-22900376D01*
X52977341Y-22704920D01*
X52901414Y-22520710D01*
X52791152Y-22354753D01*
X52650753Y-22213368D01*
X52485567Y-22101951D01*
X52301889Y-22024740D01*
X52106724Y-21984679D01*
X52106706Y-21984678D01*
X51907470Y-21983287D01*
X51711748Y-22020624D01*
X51527014Y-22095261D01*
X51360293Y-22204361D01*
X51217932Y-22343770D01*
X51105364Y-22508171D01*
X51026872Y-22691310D01*
X50985447Y-22886196D01*
X50982665Y-23085427D01*
X43446500Y-23085427D01*
X43446500Y-19085427D01*
X50982665Y-19085427D01*
X51018635Y-19281404D01*
X51091979Y-19466655D01*
X51199916Y-19634138D01*
X51338325Y-19777465D01*
X51501938Y-19891179D01*
X51684525Y-19970949D01*
X51879123Y-20013733D01*
X52078320Y-20017906D01*
X52274548Y-19983306D01*
X52460307Y-19911254D01*
X52628540Y-19804491D01*
X52772828Y-19667088D01*
X52887683Y-19504268D01*
X52968722Y-19322253D01*
X53012865Y-19127958D01*
X53016043Y-18900376D01*
X52977341Y-18704920D01*
X52901414Y-18520710D01*
X52791152Y-18354753D01*
X52650753Y-18213368D01*
X52485567Y-18101951D01*
X52301889Y-18024740D01*
X52106724Y-17984679D01*
X52106706Y-17984678D01*
X51907470Y-17983287D01*
X51711748Y-18020624D01*
X51527014Y-18095261D01*
X51360293Y-18204361D01*
X51217932Y-18343770D01*
X51105364Y-18508171D01*
X51026872Y-18691310D01*
X50985447Y-18886196D01*
X50982665Y-19085427D01*
X43446500Y-19085427D01*
X43446500Y-18210833D01*
X43464806Y-18166639D01*
X44859140Y-16772306D01*
X44903334Y-16754000D01*
X50085776Y-16754000D01*
X50110687Y-16752776D01*
X50305779Y-16733561D01*
X50354609Y-16723847D01*
X50542213Y-16666939D01*
X50588204Y-16647888D01*
X50761092Y-16555479D01*
X50802491Y-16527815D01*
X50954038Y-16403443D01*
X50972513Y-16386698D01*
X53139306Y-14219904D01*
X53183500Y-14201598D01*
X53227694Y-14219904D01*
G37*
G36*
X36328730Y-10772306D02*
G01*
X36347036Y-10816500D01*
X36330782Y-10858542D01*
X34572101Y-12793091D01*
X34557181Y-12811108D01*
X34446353Y-12958237D01*
X34421768Y-12998036D01*
X34339813Y-13162982D01*
X34322938Y-13206627D01*
X34272625Y-13383805D01*
X34264040Y-13429817D01*
X34247081Y-13613185D01*
X34246000Y-13636605D01*
X34246000Y-15499990D01*
X34247224Y-15524901D01*
X34266439Y-15719992D01*
X34276153Y-15768822D01*
X34300486Y-15849038D01*
X34284871Y-15911375D01*
X32084352Y-18111894D01*
X32016785Y-18208392D01*
X31997802Y-18279233D01*
X31981626Y-18307250D01*
X31511483Y-18777394D01*
X31502012Y-18785167D01*
X31475314Y-18803006D01*
X31394527Y-18923914D01*
X31392563Y-18926307D01*
X31391107Y-18929032D01*
X31361536Y-19077692D01*
X31367799Y-19109179D01*
X31369000Y-19121372D01*
X31369000Y-19167608D01*
X31367799Y-19179800D01*
X31366024Y-19188722D01*
X31366024Y-19886277D01*
X31390589Y-20009768D01*
X31460541Y-20114459D01*
X31565234Y-20184412D01*
X31688724Y-20208976D01*
X31811276Y-20208976D01*
X31925307Y-20186294D01*
X31972223Y-20195626D01*
X32000000Y-20247593D01*
X32000000Y-20095275D01*
X32010533Y-20060551D01*
X32058545Y-19988697D01*
X32078918Y-19886276D01*
X32078918Y-19237109D01*
X32097224Y-19192915D01*
X32271833Y-19018306D01*
X32316027Y-19000000D01*
X32505938Y-19000000D01*
X32466264Y-18977095D01*
X32453884Y-18930889D01*
X32471655Y-18894853D01*
X32520442Y-18846066D01*
X32548459Y-18829890D01*
X32619301Y-18810907D01*
X32715798Y-18743340D01*
X34720182Y-16738956D01*
X34764376Y-16720650D01*
X34795626Y-16729023D01*
X34878822Y-16777055D01*
X35053859Y-16807918D01*
X35946150Y-16807917D01*
X36139419Y-16756130D01*
X36155595Y-16754000D01*
X43463667Y-16754000D01*
X43507861Y-16772306D01*
X43526167Y-16816500D01*
X43507861Y-16860694D01*
X42699992Y-17668563D01*
X42695972Y-17672247D01*
X42652685Y-17708569D01*
X42624433Y-17757505D01*
X42621503Y-17762105D01*
X42589092Y-17808392D01*
X42586060Y-17819709D01*
X42579817Y-17834782D01*
X42573956Y-17844934D01*
X42564145Y-17900576D01*
X42562965Y-17905901D01*
X42548338Y-17960485D01*
X42553263Y-18016775D01*
X42553501Y-18022223D01*
X42553501Y-19089543D01*
X42535195Y-19133737D01*
X42491001Y-19152043D01*
X42459752Y-19143670D01*
X42440092Y-19132320D01*
X42319489Y-19082367D01*
X42255459Y-19065210D01*
X42126037Y-19048173D01*
X42092894Y-19046000D01*
X34736334Y-19046000D01*
X34692140Y-19027694D01*
X34673834Y-18983500D01*
X34692140Y-18939306D01*
X34797723Y-18833723D01*
X34841917Y-18815417D01*
X34873169Y-18823792D01*
X34878820Y-18827055D01*
X35053859Y-18857918D01*
X35946151Y-18857917D01*
X36202032Y-18789353D01*
X36338185Y-18675106D01*
X36427055Y-18521179D01*
X36457918Y-18346141D01*
X36457917Y-17703849D01*
X36389353Y-17447968D01*
X36275106Y-17311815D01*
X36121179Y-17222945D01*
X35946140Y-17192082D01*
X35053849Y-17192083D01*
X34797968Y-17260647D01*
X34661815Y-17374894D01*
X34572945Y-17528821D01*
X34542082Y-17703860D01*
X34542082Y-17800584D01*
X34523776Y-17844778D01*
X33302708Y-19065847D01*
X33275304Y-19081667D01*
X33275321Y-19081716D01*
X33275074Y-19081800D01*
X33274684Y-19082025D01*
X33273379Y-19082375D01*
X33152799Y-19132322D01*
X33095367Y-19165480D01*
X33001945Y-19237166D01*
X33000000Y-19237687D01*
X33000000Y-19915600D01*
X32972223Y-19967567D01*
X32924473Y-19999473D01*
X32866455Y-20086303D01*
X32846082Y-20188724D01*
X32846082Y-20311276D01*
X32866456Y-20413699D01*
X32900919Y-20465277D01*
X32910251Y-20512193D01*
X32900919Y-20534723D01*
X32866455Y-20586303D01*
X32846082Y-20688724D01*
X32846082Y-20811276D01*
X32866456Y-20913699D01*
X32900919Y-20965277D01*
X32910251Y-21012193D01*
X32900919Y-21034723D01*
X32866455Y-21086303D01*
X32846082Y-21188724D01*
X32846082Y-21311276D01*
X32866456Y-21413699D01*
X32900919Y-21465277D01*
X32910251Y-21512193D01*
X32900919Y-21534723D01*
X32866455Y-21586303D01*
X32846082Y-21688724D01*
X32846082Y-21811276D01*
X32866456Y-21913699D01*
X32924473Y-22000527D01*
X32972223Y-22032433D01*
X33000000Y-22084400D01*
X33000000Y-22595906D01*
X32999465Y-22604064D01*
X32984037Y-22721252D01*
X32979815Y-22737012D01*
X32936163Y-22842398D01*
X32928004Y-22856528D01*
X32858562Y-22947026D01*
X32847026Y-22958562D01*
X32756528Y-23028004D01*
X32742398Y-23036163D01*
X32659585Y-23070465D01*
X32707418Y-23070466D01*
X32746000Y-23128208D01*
X32746000Y-23500001D01*
X32748176Y-23533181D01*
X32765211Y-23662568D01*
X32781892Y-23724824D01*
X32775648Y-23772250D01*
X32721522Y-23803500D01*
X32560834Y-23803500D01*
X32516640Y-23785194D01*
X32214806Y-23483361D01*
X32196500Y-23439167D01*
X32196500Y-23104391D01*
X32198392Y-23099821D01*
X32498640Y-23099821D01*
X32500002Y-23100000D01*
X32610694Y-23085427D01*
X32504064Y-23099465D01*
X32498640Y-23099821D01*
X32198392Y-23099821D01*
X32199297Y-23097638D01*
X32166463Y-23084037D01*
X32621252Y-23084037D01*
X32629410Y-23082963D01*
X32637006Y-23079817D01*
X32621252Y-23084037D01*
X32166463Y-23084037D01*
X32160806Y-23081694D01*
X32142500Y-23037500D01*
X32142500Y-22423844D01*
X32119725Y-22309352D01*
X32089452Y-22264046D01*
X32078918Y-22229322D01*
X32078918Y-22113724D01*
X32058545Y-22011303D01*
X32010533Y-21939449D01*
X32000000Y-21904725D01*
X32000000Y-21752407D01*
X31981694Y-21796601D01*
X31925307Y-21813706D01*
X31811275Y-21791024D01*
X31688725Y-21791024D01*
X31565230Y-21815590D01*
X31534723Y-21835974D01*
X31487807Y-21845306D01*
X31465277Y-21835974D01*
X31434766Y-21815588D01*
X31311278Y-21791024D01*
X31310370Y-21790935D01*
X31310099Y-21790790D01*
X31308264Y-21790425D01*
X31308375Y-21789868D01*
X31268184Y-21768382D01*
X31254000Y-21728736D01*
X31254000Y-20035198D01*
X31252773Y-20010243D01*
X31242189Y-19902904D01*
X31243470Y-19898680D01*
X31241326Y-19894148D01*
X31233519Y-19814970D01*
X31223782Y-19766071D01*
X31166753Y-19578289D01*
X31147669Y-19532272D01*
X31055062Y-19359233D01*
X31027351Y-19317816D01*
X30960716Y-19236743D01*
X30946500Y-19197058D01*
X30946500Y-17072208D01*
X30946738Y-17066760D01*
X30951662Y-17010484D01*
X30937036Y-16955902D01*
X30935855Y-16950578D01*
X30926043Y-16894931D01*
X30920184Y-16884782D01*
X30913941Y-16869711D01*
X30910907Y-16858389D01*
X30878498Y-16812104D01*
X30875568Y-16807505D01*
X30847315Y-16758568D01*
X30805244Y-16723266D01*
X30782918Y-16675388D01*
X30782917Y-16053849D01*
X30714353Y-15797968D01*
X30600106Y-15661815D01*
X30446179Y-15572945D01*
X30271140Y-15542082D01*
X29628849Y-15542083D01*
X29372968Y-15610647D01*
X29236815Y-15724894D01*
X29147945Y-15878821D01*
X29117082Y-16053860D01*
X29117083Y-16946151D01*
X29185647Y-17202032D01*
X29299894Y-17338185D01*
X29453821Y-17427055D01*
X29628859Y-17457918D01*
X29991000Y-17457918D01*
X30035194Y-17476224D01*
X30053500Y-17520418D01*
X30053500Y-18446948D01*
X30035194Y-18491142D01*
X29991000Y-18509448D01*
X29956331Y-18498951D01*
X29892811Y-18456604D01*
X29871465Y-18443838D01*
X29698801Y-18351741D01*
X29652869Y-18332754D01*
X29465577Y-18276046D01*
X29416826Y-18266366D01*
X29222069Y-18247219D01*
X29197222Y-18246000D01*
X29060378Y-18246000D01*
X29012500Y-18223674D01*
X28950106Y-18149315D01*
X28796177Y-18060445D01*
X28621139Y-18029582D01*
X27378850Y-18029583D01*
X27122969Y-18098147D01*
X26986815Y-18212394D01*
X26985455Y-18214750D01*
X26984258Y-18215441D01*
X26983300Y-18216583D01*
X26982884Y-18216234D01*
X26931328Y-18246000D01*
X26677859Y-18246000D01*
X26646609Y-18237627D01*
X26621180Y-18222945D01*
X26446140Y-18192082D01*
X25553850Y-18192083D01*
X25360581Y-18243870D01*
X25344405Y-18246000D01*
X25272506Y-18246000D01*
X25267230Y-18245777D01*
X25139060Y-18234919D01*
X25128658Y-18233144D01*
X25017129Y-18204243D01*
X25007175Y-18200743D01*
X24889865Y-18147992D01*
X24885144Y-18145625D01*
X18174529Y-14417507D01*
X18144787Y-14380042D01*
X18161075Y-14318294D01*
X18322425Y-14159735D01*
X18479317Y-13951532D01*
X18603715Y-13722420D01*
X18692881Y-13477438D01*
X18744854Y-13221977D01*
X18754081Y-12869649D01*
X18715546Y-12611809D01*
X18639326Y-12362503D01*
X18527089Y-12127193D01*
X18381303Y-11911058D01*
X18205183Y-11718858D01*
X18002572Y-11554786D01*
X17777952Y-11422475D01*
X17536226Y-11324812D01*
X17282730Y-11263954D01*
X17023010Y-11241233D01*
X16762810Y-11257148D01*
X16507803Y-11311351D01*
X16263609Y-11402653D01*
X16035600Y-11529040D01*
X15828767Y-11687749D01*
X15647668Y-11875281D01*
X15496280Y-12087519D01*
X15377924Y-12319807D01*
X15295199Y-12567051D01*
X15270148Y-12709122D01*
X15244447Y-12749466D01*
X15178245Y-12752904D01*
X14402440Y-12321901D01*
X14396811Y-12318370D01*
X14264601Y-12225282D01*
X14254622Y-12216532D01*
X14156525Y-12110082D01*
X14148619Y-12099423D01*
X14075213Y-11974668D01*
X14069736Y-11962581D01*
X14024322Y-11825135D01*
X14021519Y-11812162D01*
X14004353Y-11651385D01*
X14004000Y-11644750D01*
X14003999Y-11374993D01*
X14002403Y-11346566D01*
X13980464Y-11151850D01*
X13967810Y-11096408D01*
X13903097Y-10911467D01*
X13878416Y-10860216D01*
X13871841Y-10849752D01*
X13863828Y-10802592D01*
X13891509Y-10763580D01*
X13924761Y-10754000D01*
X36284536Y-10754000D01*
X36328730Y-10772306D01*
G37*
%TO.N,/Vin*%
G36*
X13334109Y-10636580D02*
G01*
X13414592Y-10687151D01*
X13425534Y-10695877D01*
X13554123Y-10824466D01*
X13562849Y-10835408D01*
X13659600Y-10989388D01*
X13665673Y-11001998D01*
X13725736Y-11173648D01*
X13728850Y-11187292D01*
X13749607Y-11371512D01*
X13750000Y-11378510D01*
X13750000Y-11661593D01*
X13772544Y-11872733D01*
X13839160Y-12074355D01*
X13946837Y-12257354D01*
X13946845Y-12257365D01*
X14090737Y-12413509D01*
X14264349Y-12535749D01*
X15272910Y-13096061D01*
X15304988Y-13147752D01*
X15307889Y-13209265D01*
X15359011Y-13462804D01*
X15359013Y-13462811D01*
X15447894Y-13705691D01*
X15447901Y-13705705D01*
X15572500Y-13932349D01*
X15729951Y-14137545D01*
X15916632Y-14316566D01*
X16128247Y-14465292D01*
X16128248Y-14465293D01*
X16359914Y-14580290D01*
X16359929Y-14580297D01*
X16606307Y-14658926D01*
X16606315Y-14658928D01*
X16861782Y-14699390D01*
X17120411Y-14700745D01*
X17376289Y-14662961D01*
X17376294Y-14662960D01*
X17623502Y-14586908D01*
X17772324Y-14514965D01*
X17829879Y-14516600D01*
X24773481Y-18374155D01*
X24773486Y-18374158D01*
X24927463Y-18443398D01*
X25090894Y-18485747D01*
X25090901Y-18485748D01*
X25259128Y-18500000D01*
X29194160Y-18500000D01*
X29200275Y-18500300D01*
X29385857Y-18518546D01*
X29397853Y-18520928D01*
X29573380Y-18574073D01*
X29584683Y-18578745D01*
X29749221Y-18666508D01*
X29754476Y-18669651D01*
X30079670Y-18886446D01*
X30107501Y-18938449D01*
X30107501Y-19893883D01*
X30079724Y-19945850D01*
X29999473Y-19999473D01*
X29941456Y-20086301D01*
X29941455Y-20086303D01*
X29921082Y-20188724D01*
X29921082Y-20311276D01*
X29941455Y-20413697D01*
X29941456Y-20413699D01*
X29999473Y-20500527D01*
X30086301Y-20558544D01*
X30086303Y-20558545D01*
X30188724Y-20578918D01*
X30327535Y-20578918D01*
X30362259Y-20589452D01*
X30384353Y-20604215D01*
X30384356Y-20604216D01*
X30537498Y-20634678D01*
X30537500Y-20634678D01*
X30690644Y-20604216D01*
X30690649Y-20604214D01*
X30712741Y-20589452D01*
X30747465Y-20578918D01*
X30886281Y-20578918D01*
X30887460Y-20578802D01*
X30887842Y-20578918D01*
X30889345Y-20578918D01*
X30889345Y-20579374D01*
X30933235Y-20592691D01*
X30956082Y-20641001D01*
X30956082Y-21574246D01*
X30955313Y-21584019D01*
X30954932Y-21586425D01*
X30954932Y-21586426D01*
X30955458Y-21590120D01*
X30956082Y-21598930D01*
X30956082Y-21840001D01*
X30972805Y-21924073D01*
X30970376Y-21924556D01*
X30965355Y-21975533D01*
X30941456Y-22011301D01*
X30941455Y-22011303D01*
X30921082Y-22113724D01*
X30921082Y-22206111D01*
X30910549Y-22240834D01*
X30864766Y-22309353D01*
X30864765Y-22309355D01*
X30841991Y-22423844D01*
X30841991Y-22423846D01*
X30841990Y-23020233D01*
X30834654Y-23049613D01*
X30834417Y-23050058D01*
X30827566Y-23060328D01*
X30711012Y-23202349D01*
X30702348Y-23211012D01*
X30560326Y-23327566D01*
X30550139Y-23334373D01*
X30388114Y-23420977D01*
X30376795Y-23425666D01*
X30200979Y-23478999D01*
X30188962Y-23481389D01*
X30003056Y-23499699D01*
X29996930Y-23500000D01*
X25288008Y-23500000D01*
X25282230Y-23499732D01*
X25106790Y-23483443D01*
X25095431Y-23481316D01*
X24928773Y-23433799D01*
X24918000Y-23429616D01*
X24760348Y-23350935D01*
X24755298Y-23348116D01*
X10975332Y-14795034D01*
X10970119Y-14791419D01*
X10817169Y-14673441D01*
X10807973Y-14664726D01*
X10684037Y-14520742D01*
X10676788Y-14510352D01*
X10634882Y-14435020D01*
X10627000Y-14404637D01*
X10627000Y-12782273D01*
X11576937Y-12782273D01*
X11636418Y-12816613D01*
X11636426Y-12816617D01*
X11814147Y-12874361D01*
X12000000Y-12893896D01*
X12185853Y-12874361D01*
X12363574Y-12816617D01*
X12363582Y-12816613D01*
X12423063Y-12782273D01*
X12000000Y-12359210D01*
X11576937Y-12782273D01*
X10627000Y-12782273D01*
X10627000Y-11906562D01*
X11111001Y-11906562D01*
X11111001Y-12093438D01*
X11149853Y-12276224D01*
X11149856Y-12276232D01*
X11215998Y-12424792D01*
X11640790Y-12000000D01*
X12359210Y-12000000D01*
X12784002Y-12424792D01*
X12850144Y-12276232D01*
X12850147Y-12276224D01*
X12888999Y-12093438D01*
X12888999Y-11906562D01*
X12850147Y-11723776D01*
X12850144Y-11723768D01*
X12784002Y-11575208D01*
X12359210Y-12000000D01*
X11640790Y-12000000D01*
X11215998Y-11575208D01*
X11149856Y-11723768D01*
X11149853Y-11723776D01*
X11111001Y-11906562D01*
X10627000Y-11906562D01*
X10627000Y-11539795D01*
X10628870Y-11524621D01*
X10631683Y-11513380D01*
X10631685Y-11513371D01*
X10650108Y-11331992D01*
X10652648Y-11319618D01*
X10684578Y-11217727D01*
X11576937Y-11217727D01*
X12000000Y-11640790D01*
X12423063Y-11217727D01*
X12363582Y-11183387D01*
X12363574Y-11183383D01*
X12185853Y-11125639D01*
X12000000Y-11106104D01*
X11814147Y-11125639D01*
X11636426Y-11183383D01*
X11636418Y-11183387D01*
X11576937Y-11217727D01*
X10684578Y-11217727D01*
X10701249Y-11164532D01*
X10706225Y-11152921D01*
X10785024Y-11010764D01*
X10792233Y-11000392D01*
X10897995Y-10876997D01*
X10907144Y-10868285D01*
X11035571Y-10768668D01*
X11046283Y-10761974D01*
X11192103Y-10690221D01*
X11203943Y-10685818D01*
X11363548Y-10644244D01*
X11374507Y-10642410D01*
X11510153Y-10631972D01*
X11510161Y-10631970D01*
X11512579Y-10631054D01*
X11534721Y-10627000D01*
X13300857Y-10627000D01*
X13334109Y-10636580D01*
G37*
%TO.N,Net-(L1-Pad1)*%
G36*
X42096957Y-19300535D02*
G01*
X42214145Y-19315963D01*
X42229905Y-19320186D01*
X42335288Y-19363837D01*
X42349418Y-19371994D01*
X42443202Y-19443957D01*
X42449348Y-19449348D01*
X42589195Y-19589195D01*
X42607501Y-19633389D01*
X42607500Y-23311533D01*
X42589194Y-23355727D01*
X42105728Y-23839194D01*
X42061534Y-23857500D01*
X33180297Y-23857500D01*
X33130713Y-23833048D01*
X33071996Y-23756528D01*
X33063837Y-23742398D01*
X33020185Y-23637012D01*
X33015963Y-23621252D01*
X33000535Y-23504064D01*
X33000000Y-23495906D01*
X33000000Y-23020275D01*
X33010533Y-22985551D01*
X33058545Y-22913697D01*
X33078918Y-22811276D01*
X33078918Y-22113724D01*
X33058545Y-22011303D01*
X33058544Y-22011301D01*
X33034645Y-21975533D01*
X33029624Y-21924556D01*
X33027195Y-21924073D01*
X33043918Y-21840001D01*
X33043918Y-20641001D01*
X33062224Y-20596807D01*
X33110655Y-20579477D01*
X33110655Y-20578918D01*
X33112216Y-20578918D01*
X33112540Y-20578802D01*
X33113719Y-20578918D01*
X33252535Y-20578918D01*
X33287259Y-20589452D01*
X33309353Y-20604215D01*
X33309356Y-20604216D01*
X33462499Y-20634679D01*
X33462501Y-20634679D01*
X33615645Y-20604216D01*
X33615648Y-20604215D01*
X33637742Y-20589452D01*
X33672466Y-20578918D01*
X33811276Y-20578918D01*
X33913697Y-20558545D01*
X33913699Y-20558544D01*
X34000527Y-20500527D01*
X34058544Y-20413699D01*
X34058545Y-20413697D01*
X34078918Y-20311276D01*
X34078918Y-20188724D01*
X34058545Y-20086303D01*
X34058544Y-20086301D01*
X34000527Y-19999473D01*
X33913699Y-19941456D01*
X33913698Y-19941455D01*
X33905307Y-19939786D01*
X33865533Y-19913211D01*
X33855000Y-19878487D01*
X33855000Y-19725966D01*
X33873306Y-19681772D01*
X34236772Y-19318306D01*
X34280966Y-19300000D01*
X42088799Y-19300000D01*
X42096957Y-19300535D01*
G37*
%TO.N,/+5V*%
G36*
X52475379Y-10628870D02*
G01*
X52486620Y-10631683D01*
X52486629Y-10631685D01*
X52668008Y-10650108D01*
X52680382Y-10652648D01*
X52835468Y-10701249D01*
X52847079Y-10706225D01*
X52989236Y-10785024D01*
X52999608Y-10792233D01*
X53123003Y-10897995D01*
X53131715Y-10907144D01*
X53231332Y-11035571D01*
X53238026Y-11046283D01*
X53309779Y-11192103D01*
X53314182Y-11203943D01*
X53355756Y-11363548D01*
X53357590Y-11374507D01*
X53368028Y-11510153D01*
X53368030Y-11510161D01*
X53368946Y-11512579D01*
X53373000Y-11534721D01*
X53373000Y-13548005D01*
X53365620Y-13577467D01*
X53334373Y-13635926D01*
X53327566Y-13646114D01*
X53209052Y-13790523D01*
X53204933Y-13795067D01*
X50795067Y-16204933D01*
X50790523Y-16209052D01*
X50646114Y-16327566D01*
X50635926Y-16334373D01*
X50473901Y-16420977D01*
X50462582Y-16425666D01*
X50286766Y-16478999D01*
X50274749Y-16481389D01*
X50088842Y-16499699D01*
X50082716Y-16500000D01*
X36364888Y-16500000D01*
X36320694Y-16481694D01*
X36303589Y-16425307D01*
X36329488Y-16295104D01*
X36329488Y-16229000D01*
X35728112Y-16228999D01*
X35728110Y-16229000D01*
X35308500Y-16228999D01*
X35264306Y-16210693D01*
X35246000Y-16166499D01*
X35246000Y-16000001D01*
X38670512Y-16000001D01*
X38680369Y-16049552D01*
X38680370Y-16049554D01*
X38708438Y-16091562D01*
X38750446Y-16119630D01*
X38750448Y-16119631D01*
X38799999Y-16129488D01*
X39746000Y-16129488D01*
X40253999Y-16129488D01*
X41200001Y-16129488D01*
X41249552Y-16119631D01*
X41249554Y-16119630D01*
X41291562Y-16091562D01*
X41319630Y-16049554D01*
X41319631Y-16049552D01*
X41329488Y-16000001D01*
X41329488Y-15504000D01*
X40254000Y-15503999D01*
X40253999Y-16129488D01*
X39746000Y-16129488D01*
X39746001Y-15504000D01*
X38670512Y-15503999D01*
X38670512Y-16000001D01*
X35246000Y-16000001D01*
X35246001Y-15270512D01*
X35754000Y-15270512D01*
X35754000Y-15721000D01*
X36329488Y-15721001D01*
X36329488Y-15654896D01*
X36300228Y-15507800D01*
X36300227Y-15507798D01*
X36275041Y-15470103D01*
X44495512Y-15470103D01*
X44524772Y-15617199D01*
X44524773Y-15617201D01*
X44608096Y-15741904D01*
X44732799Y-15825227D01*
X44732801Y-15825228D01*
X44879897Y-15854488D01*
X45246000Y-15854488D01*
X45753999Y-15854488D01*
X46120103Y-15854488D01*
X46267199Y-15825228D01*
X46267201Y-15825227D01*
X46391904Y-15741904D01*
X46475227Y-15617201D01*
X46475228Y-15617199D01*
X46504488Y-15470103D01*
X46504488Y-15266500D01*
X45754000Y-15266499D01*
X45753999Y-15854488D01*
X45246000Y-15854488D01*
X45246001Y-15266500D01*
X44495512Y-15266499D01*
X44495512Y-15470103D01*
X36275041Y-15470103D01*
X36216904Y-15383096D01*
X36092202Y-15299773D01*
X36092200Y-15299772D01*
X35945103Y-15270512D01*
X35754000Y-15270512D01*
X35246001Y-15270512D01*
X35054897Y-15270512D01*
X34907800Y-15299772D01*
X34907798Y-15299773D01*
X34783096Y-15383096D01*
X34699773Y-15507798D01*
X34699772Y-15507800D01*
X34670512Y-15654896D01*
X34670512Y-15772509D01*
X34652206Y-15816703D01*
X34608012Y-15835009D01*
X34563818Y-15816703D01*
X34548203Y-15790652D01*
X34521001Y-15700979D01*
X34518611Y-15688962D01*
X34500301Y-15503056D01*
X34500000Y-15496930D01*
X34500000Y-14499999D01*
X38670512Y-14499999D01*
X38670512Y-14996000D01*
X39746000Y-14996001D01*
X39746000Y-14996000D01*
X40253999Y-14996000D01*
X41329488Y-14996001D01*
X41329488Y-14554897D01*
X44495512Y-14554897D01*
X44495512Y-14758500D01*
X45246000Y-14758501D01*
X45246000Y-14758500D01*
X45753999Y-14758500D01*
X46504488Y-14758501D01*
X46504488Y-14554897D01*
X46475228Y-14407801D01*
X46475227Y-14407799D01*
X46391904Y-14283096D01*
X46267201Y-14199773D01*
X46267199Y-14199772D01*
X46120102Y-14170512D01*
X45754000Y-14170512D01*
X45753999Y-14758500D01*
X45246000Y-14758500D01*
X45246001Y-14170512D01*
X44879898Y-14170512D01*
X44732801Y-14199772D01*
X44732799Y-14199773D01*
X44608096Y-14283096D01*
X44524773Y-14407799D01*
X44524772Y-14407801D01*
X44495512Y-14554897D01*
X41329488Y-14554897D01*
X41329488Y-14499999D01*
X41319631Y-14450448D01*
X41319630Y-14450446D01*
X41291562Y-14408438D01*
X41249554Y-14380370D01*
X41249552Y-14380369D01*
X41200001Y-14370512D01*
X40254000Y-14370512D01*
X40253999Y-14996000D01*
X39746000Y-14996000D01*
X39746001Y-14370512D01*
X38799999Y-14370512D01*
X38750448Y-14380369D01*
X38750446Y-14380370D01*
X38708438Y-14408438D01*
X38680370Y-14450446D01*
X38680369Y-14450448D01*
X38670512Y-14499999D01*
X34500000Y-14499999D01*
X34500000Y-13639487D01*
X34500266Y-13633731D01*
X34516430Y-13458956D01*
X34518541Y-13447639D01*
X34565699Y-13281571D01*
X34569850Y-13270834D01*
X34646665Y-13116234D01*
X34652715Y-13106440D01*
X34758327Y-12966235D01*
X34762003Y-12961797D01*
X34925206Y-12782273D01*
X51576937Y-12782273D01*
X51636418Y-12816613D01*
X51636426Y-12816617D01*
X51814147Y-12874361D01*
X52000000Y-12893896D01*
X52185853Y-12874361D01*
X52363574Y-12816617D01*
X52363582Y-12816613D01*
X52423063Y-12782273D01*
X52000000Y-12359210D01*
X51576937Y-12782273D01*
X34925206Y-12782273D01*
X35721307Y-11906562D01*
X51111001Y-11906562D01*
X51111001Y-12093438D01*
X51149853Y-12276224D01*
X51149856Y-12276232D01*
X51215998Y-12424792D01*
X51640790Y-12000000D01*
X52359210Y-12000000D01*
X52784002Y-12424792D01*
X52850144Y-12276232D01*
X52850147Y-12276224D01*
X52888999Y-12093438D01*
X52888999Y-11906562D01*
X52850147Y-11723776D01*
X52850144Y-11723768D01*
X52784002Y-11575208D01*
X52359210Y-12000000D01*
X51640790Y-12000000D01*
X51215998Y-11575208D01*
X51149856Y-11723768D01*
X51149853Y-11723776D01*
X51111001Y-11906562D01*
X35721307Y-11906562D01*
X36347520Y-11217727D01*
X51576937Y-11217727D01*
X52000000Y-11640790D01*
X52423063Y-11217727D01*
X52363582Y-11183387D01*
X52363574Y-11183383D01*
X52185853Y-11125639D01*
X52000000Y-11106104D01*
X51814147Y-11125639D01*
X51636426Y-11183383D01*
X51636418Y-11183387D01*
X51576937Y-11217727D01*
X36347520Y-11217727D01*
X36700238Y-10829738D01*
X36704858Y-10825159D01*
X36852614Y-10693233D01*
X36863152Y-10685634D01*
X36950972Y-10635280D01*
X36982060Y-10627000D01*
X52460205Y-10627000D01*
X52475379Y-10628870D01*
G37*
%TD*%
M02*
