M48
; DRILL file {KiCad (5.99.0-1662-g9db296991)} date 05/29/20 20:42:45
; FORMAT={-:-/ absolute / inch / decimal}
; #@! TF.CreationDate,2020-05-29T20:42:45+05:30
; #@! TF.GenerationSoftware,Kicad,Pcbnew,(5.99.0-1662-g9db296991)
; #@! TF.FileFunction,Plated,1,2,PTH
FMAT,2
INCH
T1C0.0079
T2C0.0157
T3C0.0300
%
G90
G05
T1
X1.2366Y-0.8035
X1.2366Y-0.85
X1.2831Y-0.8035
X1.2831Y-0.85
T2
X0.9646Y-0.5315
X0.9646Y-0.5709
X0.9646Y-0.6102
X0.9646Y-0.6496
X0.9646Y-0.689
X1.0039Y-0.5315
X1.0039Y-0.5709
X1.0039Y-0.6102
X1.0433Y-0.5315
X1.0433Y-0.5709
X1.0433Y-0.6102
X1.0827Y-0.5315
X1.0827Y-0.5709
X1.122Y-0.5315
X1.122Y-0.5709
X1.1614Y-0.5512
X1.2008Y-0.5512
X1.2402Y-0.5512
X1.2402Y-0.5906
X1.2402Y-0.7087
X1.2795Y-0.5512
X1.2795Y-0.5906
X1.3189Y-0.5512
X1.3189Y-0.5906
X1.3189Y-0.6299
X1.7323Y-0.7283
X1.7323Y-0.7677
X1.7323Y-0.8071
X1.7717Y-0.7677
X1.7717Y-0.8071
X1.811Y-0.7677
X1.811Y-0.8071
X1.8504Y-0.689
X1.8504Y-0.7283
X1.8504Y-0.7677
X1.8504Y-0.8071
T3
X0.4724Y-0.4724
X0.4724Y-0.8268
X0.4724Y-1.1811
X2.0472Y-0.4724
X2.0472Y-0.748
X2.0472Y-0.9055
X2.0472Y-1.1811
T0
M30
