%FSLAX45Y45*%
G04 Gerber Fmt 4.5, Leading zero omitted, Abs format (unit mm)*
G04 Created by KiCad (PCBNEW (5.1.2-1)-1) date 2020-02-13 23:28:22*
%MOMM*%
%LPD*%
G04 APERTURE LIST*
%ADD10C,0.050000*%
%ADD11C,0.200000*%
%ADD12C,0.300000*%
G04 APERTURE END LIST*
D10*
X6200000Y-7100000D02*
X6200000Y-6200000D01*
X1200000Y-7100000D02*
X6200000Y-7100000D01*
X1200000Y-6200000D02*
X1200000Y-7100000D01*
X1200000Y-6200000D02*
X1200000Y-1200000D01*
X6200000Y-1200000D02*
X6200000Y-6200000D01*
X1200000Y-1200000D02*
X6200000Y-1200000D01*
D11*
X5046000Y-6700000D02*
X5146000Y-6800000D01*
X5146000Y-6700000D02*
X5046000Y-6800000D01*
X5300000Y-6700000D02*
X5400000Y-6800000D01*
X5400000Y-6700000D02*
X5300000Y-6800000D01*
X5750000Y-6050000D02*
X5850000Y-6150000D01*
X5850000Y-6050000D02*
X5750000Y-6150000D01*
X5750000Y-6304000D02*
X5850000Y-6404000D01*
X5850000Y-6304000D02*
X5750000Y-6404000D01*
X1996000Y-6750000D02*
X2096000Y-6850000D01*
X2096000Y-6750000D02*
X1996000Y-6850000D01*
X2250000Y-6750000D02*
X2350000Y-6850000D01*
X2350000Y-6750000D02*
X2250000Y-6850000D01*
X5750000Y-3096000D02*
X5850000Y-3196000D01*
X5850000Y-3096000D02*
X5750000Y-3196000D01*
X5750000Y-3350000D02*
X5850000Y-3450000D01*
X5850000Y-3350000D02*
X5750000Y-3450000D01*
X5750000Y-3604000D02*
X5850000Y-3704000D01*
X5850000Y-3604000D02*
X5750000Y-3704000D01*
X1550000Y-6050000D02*
X1650000Y-6150000D01*
X1650000Y-6050000D02*
X1550000Y-6150000D01*
X1550000Y-6304000D02*
X1650000Y-6404000D01*
X1650000Y-6304000D02*
X1550000Y-6404000D01*
X3260000Y-6000000D02*
G75*
G03X3260000Y-6000000I-60000J0D01*
G01*
X4260000Y-6000000D02*
G75*
G03X4260000Y-6000000I-60000J0D01*
G01*
X3526000Y-4020000D02*
X3526000Y-4180000D01*
X3446000Y-4100000D02*
X3606000Y-4100000D01*
X5050000Y-4020000D02*
X5050000Y-4180000D01*
X4970000Y-4100000D02*
X5130000Y-4100000D01*
D12*
X1483928Y-7568214D02*
X1483928Y-7268214D01*
X1555357Y-7268214D01*
X1598214Y-7282500D01*
X1626786Y-7311071D01*
X1641071Y-7339643D01*
X1655357Y-7396786D01*
X1655357Y-7439643D01*
X1641071Y-7496786D01*
X1626786Y-7525357D01*
X1598214Y-7553929D01*
X1555357Y-7568214D01*
X1483928Y-7568214D01*
X1783928Y-7568214D02*
X1783928Y-7368214D01*
X1783928Y-7425357D02*
X1798214Y-7396786D01*
X1812500Y-7382500D01*
X1841071Y-7368214D01*
X1869643Y-7368214D01*
X1969643Y-7568214D02*
X1969643Y-7368214D01*
X1969643Y-7268214D02*
X1955357Y-7282500D01*
X1969643Y-7296786D01*
X1983928Y-7282500D01*
X1969643Y-7268214D01*
X1969643Y-7296786D01*
X2155357Y-7568214D02*
X2126786Y-7553929D01*
X2112500Y-7525357D01*
X2112500Y-7268214D01*
X2312500Y-7568214D02*
X2283928Y-7553929D01*
X2269643Y-7525357D01*
X2269643Y-7268214D01*
X2655357Y-7568214D02*
X2655357Y-7268214D01*
X2755357Y-7482500D01*
X2855357Y-7268214D01*
X2855357Y-7568214D01*
X3126786Y-7568214D02*
X3126786Y-7411071D01*
X3112500Y-7382500D01*
X3083928Y-7368214D01*
X3026786Y-7368214D01*
X2998214Y-7382500D01*
X3126786Y-7553929D02*
X3098214Y-7568214D01*
X3026786Y-7568214D01*
X2998214Y-7553929D01*
X2983928Y-7525357D01*
X2983928Y-7496786D01*
X2998214Y-7468214D01*
X3026786Y-7453929D01*
X3098214Y-7453929D01*
X3126786Y-7439643D01*
X3269643Y-7368214D02*
X3269643Y-7668214D01*
X3269643Y-7382500D02*
X3298214Y-7368214D01*
X3355357Y-7368214D01*
X3383928Y-7382500D01*
X3398214Y-7396786D01*
X3412500Y-7425357D01*
X3412500Y-7511071D01*
X3398214Y-7539643D01*
X3383928Y-7553929D01*
X3355357Y-7568214D01*
X3298214Y-7568214D01*
X3269643Y-7553929D01*
X3541071Y-7539643D02*
X3555357Y-7553929D01*
X3541071Y-7568214D01*
X3526786Y-7553929D01*
X3541071Y-7539643D01*
X3541071Y-7568214D01*
X3541071Y-7382500D02*
X3555357Y-7396786D01*
X3541071Y-7411071D01*
X3526786Y-7396786D01*
X3541071Y-7382500D01*
X3541071Y-7411071D01*
X1097500Y-8012500D02*
X1197500Y-8112500D01*
X1197500Y-8012500D02*
X1097500Y-8112500D01*
X1641071Y-8198214D02*
X1469643Y-8198214D01*
X1555357Y-8198214D02*
X1555357Y-7898214D01*
X1526786Y-7941071D01*
X1498214Y-7969643D01*
X1469643Y-7983929D01*
X1769643Y-8169643D02*
X1783928Y-8183929D01*
X1769643Y-8198214D01*
X1755357Y-8183929D01*
X1769643Y-8169643D01*
X1769643Y-8198214D01*
X1969643Y-7898214D02*
X1998214Y-7898214D01*
X2026786Y-7912500D01*
X2041071Y-7926786D01*
X2055357Y-7955357D01*
X2069643Y-8012500D01*
X2069643Y-8083929D01*
X2055357Y-8141071D01*
X2041071Y-8169643D01*
X2026786Y-8183929D01*
X1998214Y-8198214D01*
X1969643Y-8198214D01*
X1941071Y-8183929D01*
X1926786Y-8169643D01*
X1912500Y-8141071D01*
X1898214Y-8083929D01*
X1898214Y-8012500D01*
X1912500Y-7955357D01*
X1926786Y-7926786D01*
X1941071Y-7912500D01*
X1969643Y-7898214D01*
X2255357Y-7898214D02*
X2283928Y-7898214D01*
X2312500Y-7912500D01*
X2326786Y-7926786D01*
X2341071Y-7955357D01*
X2355357Y-8012500D01*
X2355357Y-8083929D01*
X2341071Y-8141071D01*
X2326786Y-8169643D01*
X2312500Y-8183929D01*
X2283928Y-8198214D01*
X2255357Y-8198214D01*
X2226786Y-8183929D01*
X2212500Y-8169643D01*
X2198214Y-8141071D01*
X2183928Y-8083929D01*
X2183928Y-8012500D01*
X2198214Y-7955357D01*
X2212500Y-7926786D01*
X2226786Y-7912500D01*
X2255357Y-7898214D01*
X2483928Y-8198214D02*
X2483928Y-7998214D01*
X2483928Y-8026786D02*
X2498214Y-8012500D01*
X2526786Y-7998214D01*
X2569643Y-7998214D01*
X2598214Y-8012500D01*
X2612500Y-8041071D01*
X2612500Y-8198214D01*
X2612500Y-8041071D02*
X2626786Y-8012500D01*
X2655357Y-7998214D01*
X2698214Y-7998214D01*
X2726786Y-8012500D01*
X2741071Y-8041071D01*
X2741071Y-8198214D01*
X2883928Y-8198214D02*
X2883928Y-7998214D01*
X2883928Y-8026786D02*
X2898214Y-8012500D01*
X2926786Y-7998214D01*
X2969643Y-7998214D01*
X2998214Y-8012500D01*
X3012500Y-8041071D01*
X3012500Y-8198214D01*
X3012500Y-8041071D02*
X3026786Y-8012500D01*
X3055357Y-7998214D01*
X3098214Y-7998214D01*
X3126786Y-8012500D01*
X3141071Y-8041071D01*
X3141071Y-8198214D01*
X3726786Y-7883929D02*
X3469643Y-8269643D01*
X4112500Y-7898214D02*
X4141071Y-7898214D01*
X4169643Y-7912500D01*
X4183928Y-7926786D01*
X4198214Y-7955357D01*
X4212500Y-8012500D01*
X4212500Y-8083929D01*
X4198214Y-8141071D01*
X4183928Y-8169643D01*
X4169643Y-8183929D01*
X4141071Y-8198214D01*
X4112500Y-8198214D01*
X4083928Y-8183929D01*
X4069643Y-8169643D01*
X4055357Y-8141071D01*
X4041071Y-8083929D01*
X4041071Y-8012500D01*
X4055357Y-7955357D01*
X4069643Y-7926786D01*
X4083928Y-7912500D01*
X4112500Y-7898214D01*
X4341071Y-8169643D02*
X4355357Y-8183929D01*
X4341071Y-8198214D01*
X4326786Y-8183929D01*
X4341071Y-8169643D01*
X4341071Y-8198214D01*
X4541071Y-7898214D02*
X4569643Y-7898214D01*
X4598214Y-7912500D01*
X4612500Y-7926786D01*
X4626786Y-7955357D01*
X4641071Y-8012500D01*
X4641071Y-8083929D01*
X4626786Y-8141071D01*
X4612500Y-8169643D01*
X4598214Y-8183929D01*
X4569643Y-8198214D01*
X4541071Y-8198214D01*
X4512500Y-8183929D01*
X4498214Y-8169643D01*
X4483928Y-8141071D01*
X4469643Y-8083929D01*
X4469643Y-8012500D01*
X4483928Y-7955357D01*
X4498214Y-7926786D01*
X4512500Y-7912500D01*
X4541071Y-7898214D01*
X4741071Y-7898214D02*
X4926786Y-7898214D01*
X4826786Y-8012500D01*
X4869643Y-8012500D01*
X4898214Y-8026786D01*
X4912500Y-8041071D01*
X4926786Y-8069643D01*
X4926786Y-8141071D01*
X4912500Y-8169643D01*
X4898214Y-8183929D01*
X4869643Y-8198214D01*
X4783928Y-8198214D01*
X4755357Y-8183929D01*
X4741071Y-8169643D01*
X5069643Y-8198214D02*
X5126786Y-8198214D01*
X5155357Y-8183929D01*
X5169643Y-8169643D01*
X5198214Y-8126786D01*
X5212500Y-8069643D01*
X5212500Y-7955357D01*
X5198214Y-7926786D01*
X5183928Y-7912500D01*
X5155357Y-7898214D01*
X5098214Y-7898214D01*
X5069643Y-7912500D01*
X5055357Y-7926786D01*
X5041071Y-7955357D01*
X5041071Y-8026786D01*
X5055357Y-8055357D01*
X5069643Y-8069643D01*
X5098214Y-8083929D01*
X5155357Y-8083929D01*
X5183928Y-8069643D01*
X5198214Y-8055357D01*
X5212500Y-8026786D01*
X5326786Y-7898214D02*
X5326786Y-7955357D01*
X5441071Y-7898214D02*
X5441071Y-7955357D01*
X5883928Y-8312500D02*
X5869643Y-8298214D01*
X5841071Y-8255357D01*
X5826786Y-8226786D01*
X5812500Y-8183929D01*
X5798214Y-8112500D01*
X5798214Y-8055357D01*
X5812500Y-7983929D01*
X5826786Y-7941071D01*
X5841071Y-7912500D01*
X5869643Y-7869643D01*
X5883928Y-7855357D01*
X6155357Y-8198214D02*
X5983928Y-8198214D01*
X6069643Y-8198214D02*
X6069643Y-7898214D01*
X6041071Y-7941071D01*
X6012500Y-7969643D01*
X5983928Y-7983929D01*
X6441071Y-8198214D02*
X6269643Y-8198214D01*
X6355357Y-8198214D02*
X6355357Y-7898214D01*
X6326786Y-7941071D01*
X6298214Y-7969643D01*
X6269643Y-7983929D01*
X6798214Y-8198214D02*
X6798214Y-7898214D01*
X6926786Y-8198214D02*
X6926786Y-8041071D01*
X6912500Y-8012500D01*
X6883928Y-7998214D01*
X6841071Y-7998214D01*
X6812500Y-8012500D01*
X6798214Y-8026786D01*
X7112500Y-8198214D02*
X7083928Y-8183929D01*
X7069643Y-8169643D01*
X7055357Y-8141071D01*
X7055357Y-8055357D01*
X7069643Y-8026786D01*
X7083928Y-8012500D01*
X7112500Y-7998214D01*
X7155357Y-7998214D01*
X7183928Y-8012500D01*
X7198214Y-8026786D01*
X7212500Y-8055357D01*
X7212500Y-8141071D01*
X7198214Y-8169643D01*
X7183928Y-8183929D01*
X7155357Y-8198214D01*
X7112500Y-8198214D01*
X7383928Y-8198214D02*
X7355357Y-8183929D01*
X7341071Y-8155357D01*
X7341071Y-7898214D01*
X7612500Y-8183929D02*
X7583928Y-8198214D01*
X7526786Y-8198214D01*
X7498214Y-8183929D01*
X7483928Y-8155357D01*
X7483928Y-8041071D01*
X7498214Y-8012500D01*
X7526786Y-7998214D01*
X7583928Y-7998214D01*
X7612500Y-8012500D01*
X7626786Y-8041071D01*
X7626786Y-8069643D01*
X7483928Y-8098214D01*
X7741071Y-8183929D02*
X7769643Y-8198214D01*
X7826786Y-8198214D01*
X7855357Y-8183929D01*
X7869643Y-8155357D01*
X7869643Y-8141071D01*
X7855357Y-8112500D01*
X7826786Y-8098214D01*
X7783928Y-8098214D01*
X7755357Y-8083929D01*
X7741071Y-8055357D01*
X7741071Y-8041071D01*
X7755357Y-8012500D01*
X7783928Y-7998214D01*
X7826786Y-7998214D01*
X7855357Y-8012500D01*
X7969643Y-8312500D02*
X7983928Y-8298214D01*
X8012500Y-8255357D01*
X8026786Y-8226786D01*
X8041071Y-8183929D01*
X8055357Y-8112500D01*
X8055357Y-8055357D01*
X8041071Y-7983929D01*
X8026786Y-7941071D01*
X8012500Y-7912500D01*
X7983928Y-7869643D01*
X7969643Y-7855357D01*
X1197500Y-8458500D02*
G75*
G03X1197500Y-8458500I-60000J0D01*
G01*
X1641071Y-8594214D02*
X1469643Y-8594214D01*
X1555357Y-8594214D02*
X1555357Y-8294214D01*
X1526786Y-8337071D01*
X1498214Y-8365643D01*
X1469643Y-8379929D01*
X1769643Y-8565643D02*
X1783928Y-8579929D01*
X1769643Y-8594214D01*
X1755357Y-8579929D01*
X1769643Y-8565643D01*
X1769643Y-8594214D01*
X1898214Y-8322786D02*
X1912500Y-8308500D01*
X1941071Y-8294214D01*
X2012500Y-8294214D01*
X2041071Y-8308500D01*
X2055357Y-8322786D01*
X2069643Y-8351357D01*
X2069643Y-8379929D01*
X2055357Y-8422786D01*
X1883928Y-8594214D01*
X2069643Y-8594214D01*
X2255357Y-8294214D02*
X2283928Y-8294214D01*
X2312500Y-8308500D01*
X2326786Y-8322786D01*
X2341071Y-8351357D01*
X2355357Y-8408500D01*
X2355357Y-8479929D01*
X2341071Y-8537072D01*
X2326786Y-8565643D01*
X2312500Y-8579929D01*
X2283928Y-8594214D01*
X2255357Y-8594214D01*
X2226786Y-8579929D01*
X2212500Y-8565643D01*
X2198214Y-8537072D01*
X2183928Y-8479929D01*
X2183928Y-8408500D01*
X2198214Y-8351357D01*
X2212500Y-8322786D01*
X2226786Y-8308500D01*
X2255357Y-8294214D01*
X2483928Y-8594214D02*
X2483928Y-8394214D01*
X2483928Y-8422786D02*
X2498214Y-8408500D01*
X2526786Y-8394214D01*
X2569643Y-8394214D01*
X2598214Y-8408500D01*
X2612500Y-8437072D01*
X2612500Y-8594214D01*
X2612500Y-8437072D02*
X2626786Y-8408500D01*
X2655357Y-8394214D01*
X2698214Y-8394214D01*
X2726786Y-8408500D01*
X2741071Y-8437072D01*
X2741071Y-8594214D01*
X2883928Y-8594214D02*
X2883928Y-8394214D01*
X2883928Y-8422786D02*
X2898214Y-8408500D01*
X2926786Y-8394214D01*
X2969643Y-8394214D01*
X2998214Y-8408500D01*
X3012500Y-8437072D01*
X3012500Y-8594214D01*
X3012500Y-8437072D02*
X3026786Y-8408500D01*
X3055357Y-8394214D01*
X3098214Y-8394214D01*
X3126786Y-8408500D01*
X3141071Y-8437072D01*
X3141071Y-8594214D01*
X3726786Y-8279929D02*
X3469643Y-8665643D01*
X4112500Y-8294214D02*
X4141071Y-8294214D01*
X4169643Y-8308500D01*
X4183928Y-8322786D01*
X4198214Y-8351357D01*
X4212500Y-8408500D01*
X4212500Y-8479929D01*
X4198214Y-8537072D01*
X4183928Y-8565643D01*
X4169643Y-8579929D01*
X4141071Y-8594214D01*
X4112500Y-8594214D01*
X4083928Y-8579929D01*
X4069643Y-8565643D01*
X4055357Y-8537072D01*
X4041071Y-8479929D01*
X4041071Y-8408500D01*
X4055357Y-8351357D01*
X4069643Y-8322786D01*
X4083928Y-8308500D01*
X4112500Y-8294214D01*
X4341071Y-8565643D02*
X4355357Y-8579929D01*
X4341071Y-8594214D01*
X4326786Y-8579929D01*
X4341071Y-8565643D01*
X4341071Y-8594214D01*
X4541071Y-8294214D02*
X4569643Y-8294214D01*
X4598214Y-8308500D01*
X4612500Y-8322786D01*
X4626786Y-8351357D01*
X4641071Y-8408500D01*
X4641071Y-8479929D01*
X4626786Y-8537072D01*
X4612500Y-8565643D01*
X4598214Y-8579929D01*
X4569643Y-8594214D01*
X4541071Y-8594214D01*
X4512500Y-8579929D01*
X4498214Y-8565643D01*
X4483928Y-8537072D01*
X4469643Y-8479929D01*
X4469643Y-8408500D01*
X4483928Y-8351357D01*
X4498214Y-8322786D01*
X4512500Y-8308500D01*
X4541071Y-8294214D01*
X4898214Y-8394214D02*
X4898214Y-8594214D01*
X4826786Y-8279929D02*
X4755357Y-8494214D01*
X4941071Y-8494214D01*
X5026786Y-8294214D02*
X5226786Y-8294214D01*
X5098214Y-8594214D01*
X5326786Y-8294214D02*
X5326786Y-8351357D01*
X5441071Y-8294214D02*
X5441071Y-8351357D01*
X5883928Y-8708500D02*
X5869643Y-8694214D01*
X5841071Y-8651357D01*
X5826786Y-8622786D01*
X5812500Y-8579929D01*
X5798214Y-8508500D01*
X5798214Y-8451357D01*
X5812500Y-8379929D01*
X5826786Y-8337071D01*
X5841071Y-8308500D01*
X5869643Y-8265643D01*
X5883928Y-8251357D01*
X5983928Y-8322786D02*
X5998214Y-8308500D01*
X6026786Y-8294214D01*
X6098214Y-8294214D01*
X6126786Y-8308500D01*
X6141071Y-8322786D01*
X6155357Y-8351357D01*
X6155357Y-8379929D01*
X6141071Y-8422786D01*
X5969643Y-8594214D01*
X6155357Y-8594214D01*
X6512500Y-8594214D02*
X6512500Y-8294214D01*
X6641071Y-8594214D02*
X6641071Y-8437072D01*
X6626786Y-8408500D01*
X6598214Y-8394214D01*
X6555357Y-8394214D01*
X6526786Y-8408500D01*
X6512500Y-8422786D01*
X6826786Y-8594214D02*
X6798214Y-8579929D01*
X6783928Y-8565643D01*
X6769643Y-8537072D01*
X6769643Y-8451357D01*
X6783928Y-8422786D01*
X6798214Y-8408500D01*
X6826786Y-8394214D01*
X6869643Y-8394214D01*
X6898214Y-8408500D01*
X6912500Y-8422786D01*
X6926786Y-8451357D01*
X6926786Y-8537072D01*
X6912500Y-8565643D01*
X6898214Y-8579929D01*
X6869643Y-8594214D01*
X6826786Y-8594214D01*
X7098214Y-8594214D02*
X7069643Y-8579929D01*
X7055357Y-8551357D01*
X7055357Y-8294214D01*
X7326786Y-8579929D02*
X7298214Y-8594214D01*
X7241071Y-8594214D01*
X7212500Y-8579929D01*
X7198214Y-8551357D01*
X7198214Y-8437072D01*
X7212500Y-8408500D01*
X7241071Y-8394214D01*
X7298214Y-8394214D01*
X7326786Y-8408500D01*
X7341071Y-8437072D01*
X7341071Y-8465643D01*
X7198214Y-8494214D01*
X7455357Y-8579929D02*
X7483928Y-8594214D01*
X7541071Y-8594214D01*
X7569643Y-8579929D01*
X7583928Y-8551357D01*
X7583928Y-8537072D01*
X7569643Y-8508500D01*
X7541071Y-8494214D01*
X7498214Y-8494214D01*
X7469643Y-8479929D01*
X7455357Y-8451357D01*
X7455357Y-8437072D01*
X7469643Y-8408500D01*
X7498214Y-8394214D01*
X7541071Y-8394214D01*
X7569643Y-8408500D01*
X7683928Y-8708500D02*
X7698214Y-8694214D01*
X7726786Y-8651357D01*
X7741071Y-8622786D01*
X7755357Y-8579929D01*
X7769643Y-8508500D01*
X7769643Y-8451357D01*
X7755357Y-8379929D01*
X7741071Y-8337071D01*
X7726786Y-8308500D01*
X7698214Y-8265643D01*
X7683928Y-8251357D01*
X1117500Y-8774500D02*
X1117500Y-8934500D01*
X1037500Y-8854500D02*
X1197500Y-8854500D01*
X1641071Y-8990214D02*
X1469643Y-8990214D01*
X1555357Y-8990214D02*
X1555357Y-8690214D01*
X1526786Y-8733072D01*
X1498214Y-8761643D01*
X1469643Y-8775929D01*
X1769643Y-8961643D02*
X1783928Y-8975929D01*
X1769643Y-8990214D01*
X1755357Y-8975929D01*
X1769643Y-8961643D01*
X1769643Y-8990214D01*
X2041071Y-8690214D02*
X1983928Y-8690214D01*
X1955357Y-8704500D01*
X1941071Y-8718786D01*
X1912500Y-8761643D01*
X1898214Y-8818786D01*
X1898214Y-8933072D01*
X1912500Y-8961643D01*
X1926786Y-8975929D01*
X1955357Y-8990214D01*
X2012500Y-8990214D01*
X2041071Y-8975929D01*
X2055357Y-8961643D01*
X2069643Y-8933072D01*
X2069643Y-8861643D01*
X2055357Y-8833072D01*
X2041071Y-8818786D01*
X2012500Y-8804500D01*
X1955357Y-8804500D01*
X1926786Y-8818786D01*
X1912500Y-8833072D01*
X1898214Y-8861643D01*
X2255357Y-8690214D02*
X2283928Y-8690214D01*
X2312500Y-8704500D01*
X2326786Y-8718786D01*
X2341071Y-8747357D01*
X2355357Y-8804500D01*
X2355357Y-8875929D01*
X2341071Y-8933072D01*
X2326786Y-8961643D01*
X2312500Y-8975929D01*
X2283928Y-8990214D01*
X2255357Y-8990214D01*
X2226786Y-8975929D01*
X2212500Y-8961643D01*
X2198214Y-8933072D01*
X2183928Y-8875929D01*
X2183928Y-8804500D01*
X2198214Y-8747357D01*
X2212500Y-8718786D01*
X2226786Y-8704500D01*
X2255357Y-8690214D01*
X2483928Y-8990214D02*
X2483928Y-8790214D01*
X2483928Y-8818786D02*
X2498214Y-8804500D01*
X2526786Y-8790214D01*
X2569643Y-8790214D01*
X2598214Y-8804500D01*
X2612500Y-8833072D01*
X2612500Y-8990214D01*
X2612500Y-8833072D02*
X2626786Y-8804500D01*
X2655357Y-8790214D01*
X2698214Y-8790214D01*
X2726786Y-8804500D01*
X2741071Y-8833072D01*
X2741071Y-8990214D01*
X2883928Y-8990214D02*
X2883928Y-8790214D01*
X2883928Y-8818786D02*
X2898214Y-8804500D01*
X2926786Y-8790214D01*
X2969643Y-8790214D01*
X2998214Y-8804500D01*
X3012500Y-8833072D01*
X3012500Y-8990214D01*
X3012500Y-8833072D02*
X3026786Y-8804500D01*
X3055357Y-8790214D01*
X3098214Y-8790214D01*
X3126786Y-8804500D01*
X3141071Y-8833072D01*
X3141071Y-8990214D01*
X3726786Y-8675929D02*
X3469643Y-9061643D01*
X4112500Y-8690214D02*
X4141071Y-8690214D01*
X4169643Y-8704500D01*
X4183928Y-8718786D01*
X4198214Y-8747357D01*
X4212500Y-8804500D01*
X4212500Y-8875929D01*
X4198214Y-8933072D01*
X4183928Y-8961643D01*
X4169643Y-8975929D01*
X4141071Y-8990214D01*
X4112500Y-8990214D01*
X4083928Y-8975929D01*
X4069643Y-8961643D01*
X4055357Y-8933072D01*
X4041071Y-8875929D01*
X4041071Y-8804500D01*
X4055357Y-8747357D01*
X4069643Y-8718786D01*
X4083928Y-8704500D01*
X4112500Y-8690214D01*
X4341071Y-8961643D02*
X4355357Y-8975929D01*
X4341071Y-8990214D01*
X4326786Y-8975929D01*
X4341071Y-8961643D01*
X4341071Y-8990214D01*
X4541071Y-8690214D02*
X4569643Y-8690214D01*
X4598214Y-8704500D01*
X4612500Y-8718786D01*
X4626786Y-8747357D01*
X4641071Y-8804500D01*
X4641071Y-8875929D01*
X4626786Y-8933072D01*
X4612500Y-8961643D01*
X4598214Y-8975929D01*
X4569643Y-8990214D01*
X4541071Y-8990214D01*
X4512500Y-8975929D01*
X4498214Y-8961643D01*
X4483928Y-8933072D01*
X4469643Y-8875929D01*
X4469643Y-8804500D01*
X4483928Y-8747357D01*
X4498214Y-8718786D01*
X4512500Y-8704500D01*
X4541071Y-8690214D01*
X4898214Y-8690214D02*
X4841071Y-8690214D01*
X4812500Y-8704500D01*
X4798214Y-8718786D01*
X4769643Y-8761643D01*
X4755357Y-8818786D01*
X4755357Y-8933072D01*
X4769643Y-8961643D01*
X4783928Y-8975929D01*
X4812500Y-8990214D01*
X4869643Y-8990214D01*
X4898214Y-8975929D01*
X4912500Y-8961643D01*
X4926786Y-8933072D01*
X4926786Y-8861643D01*
X4912500Y-8833072D01*
X4898214Y-8818786D01*
X4869643Y-8804500D01*
X4812500Y-8804500D01*
X4783928Y-8818786D01*
X4769643Y-8833072D01*
X4755357Y-8861643D01*
X5026786Y-8690214D02*
X5212500Y-8690214D01*
X5112500Y-8804500D01*
X5155357Y-8804500D01*
X5183928Y-8818786D01*
X5198214Y-8833072D01*
X5212500Y-8861643D01*
X5212500Y-8933072D01*
X5198214Y-8961643D01*
X5183928Y-8975929D01*
X5155357Y-8990214D01*
X5069643Y-8990214D01*
X5041071Y-8975929D01*
X5026786Y-8961643D01*
X5326786Y-8690214D02*
X5326786Y-8747357D01*
X5441071Y-8690214D02*
X5441071Y-8747357D01*
X5883928Y-9104500D02*
X5869643Y-9090214D01*
X5841071Y-9047357D01*
X5826786Y-9018786D01*
X5812500Y-8975929D01*
X5798214Y-8904500D01*
X5798214Y-8847357D01*
X5812500Y-8775929D01*
X5826786Y-8733072D01*
X5841071Y-8704500D01*
X5869643Y-8661643D01*
X5883928Y-8647357D01*
X5983928Y-8718786D02*
X5998214Y-8704500D01*
X6026786Y-8690214D01*
X6098214Y-8690214D01*
X6126786Y-8704500D01*
X6141071Y-8718786D01*
X6155357Y-8747357D01*
X6155357Y-8775929D01*
X6141071Y-8818786D01*
X5969643Y-8990214D01*
X6155357Y-8990214D01*
X6512500Y-8990214D02*
X6512500Y-8690214D01*
X6641071Y-8990214D02*
X6641071Y-8833072D01*
X6626786Y-8804500D01*
X6598214Y-8790214D01*
X6555357Y-8790214D01*
X6526786Y-8804500D01*
X6512500Y-8818786D01*
X6826786Y-8990214D02*
X6798214Y-8975929D01*
X6783928Y-8961643D01*
X6769643Y-8933072D01*
X6769643Y-8847357D01*
X6783928Y-8818786D01*
X6798214Y-8804500D01*
X6826786Y-8790214D01*
X6869643Y-8790214D01*
X6898214Y-8804500D01*
X6912500Y-8818786D01*
X6926786Y-8847357D01*
X6926786Y-8933072D01*
X6912500Y-8961643D01*
X6898214Y-8975929D01*
X6869643Y-8990214D01*
X6826786Y-8990214D01*
X7098214Y-8990214D02*
X7069643Y-8975929D01*
X7055357Y-8947357D01*
X7055357Y-8690214D01*
X7326786Y-8975929D02*
X7298214Y-8990214D01*
X7241071Y-8990214D01*
X7212500Y-8975929D01*
X7198214Y-8947357D01*
X7198214Y-8833072D01*
X7212500Y-8804500D01*
X7241071Y-8790214D01*
X7298214Y-8790214D01*
X7326786Y-8804500D01*
X7341071Y-8833072D01*
X7341071Y-8861643D01*
X7198214Y-8890214D01*
X7455357Y-8975929D02*
X7483928Y-8990214D01*
X7541071Y-8990214D01*
X7569643Y-8975929D01*
X7583928Y-8947357D01*
X7583928Y-8933072D01*
X7569643Y-8904500D01*
X7541071Y-8890214D01*
X7498214Y-8890214D01*
X7469643Y-8875929D01*
X7455357Y-8847357D01*
X7455357Y-8833072D01*
X7469643Y-8804500D01*
X7498214Y-8790214D01*
X7541071Y-8790214D01*
X7569643Y-8804500D01*
X7683928Y-9104500D02*
X7698214Y-9090214D01*
X7726786Y-9047357D01*
X7741071Y-9018786D01*
X7755357Y-8975929D01*
X7769643Y-8904500D01*
X7769643Y-8847357D01*
X7755357Y-8775929D01*
X7741071Y-8733072D01*
X7726786Y-8704500D01*
X7698214Y-8661643D01*
X7683928Y-8647357D01*
M02*
