G04 #@! TF.GenerationSoftware,KiCad,Pcbnew,(5.1.2-1)-1*
G04 #@! TF.CreationDate,2020-02-13T23:28:20-08:00*
G04 #@! TF.ProjectId,LM2576,4c4d3235-3736-42e6-9b69-6361645f7063,rev?*
G04 #@! TF.SameCoordinates,Original*
G04 #@! TF.FileFunction,Legend,Top*
G04 #@! TF.FilePolarity,Positive*
%FSLAX46Y46*%
G04 Gerber Fmt 4.6, Leading zero omitted, Abs format (unit mm)*
G04 Created by KiCad (PCBNEW (5.1.2-1)-1) date 2020-02-13 23:28:20*
%MOMM*%
%LPD*%
G04 APERTURE LIST*
%ADD10C,0.120000*%
%ADD11C,0.150000*%
G04 APERTURE END LIST*
D10*
X54830000Y-66170000D02*
X54830000Y-67500000D01*
X53500000Y-66170000D02*
X54830000Y-66170000D01*
X52230000Y-66170000D02*
X52230000Y-68830000D01*
X52230000Y-68830000D02*
X49630000Y-68830000D01*
X52230000Y-66170000D02*
X49630000Y-66170000D01*
X49630000Y-66170000D02*
X49630000Y-68830000D01*
X19130000Y-69330000D02*
X19130000Y-68000000D01*
X20460000Y-69330000D02*
X19130000Y-69330000D01*
X21730000Y-69330000D02*
X21730000Y-66670000D01*
X21730000Y-66670000D02*
X24330000Y-66670000D01*
X21730000Y-69330000D02*
X24330000Y-69330000D01*
X24330000Y-69330000D02*
X24330000Y-66670000D01*
X41250000Y-31175000D02*
X41250000Y-32275000D01*
X42200000Y-31175000D02*
X41250000Y-31175000D01*
X42200000Y-29675000D02*
X42200000Y-31175000D01*
X32750000Y-31175000D02*
X32750000Y-36300000D01*
X31800000Y-31175000D02*
X32750000Y-31175000D01*
X31800000Y-29675000D02*
X31800000Y-31175000D01*
X44220000Y-60000000D02*
G75*
G03X44220000Y-60000000I-7220000J0D01*
G01*
X56670000Y-30130000D02*
X58000000Y-30130000D01*
X56670000Y-31460000D02*
X56670000Y-30130000D01*
X56670000Y-32730000D02*
X59330000Y-32730000D01*
X59330000Y-32730000D02*
X59330000Y-37870000D01*
X56670000Y-32730000D02*
X56670000Y-37870000D01*
X56670000Y-37870000D02*
X59330000Y-37870000D01*
X56670000Y-59670000D02*
X58000000Y-59670000D01*
X56670000Y-61000000D02*
X56670000Y-59670000D01*
X56670000Y-62270000D02*
X59330000Y-62270000D01*
X59330000Y-62270000D02*
X59330000Y-64870000D01*
X56670000Y-62270000D02*
X56670000Y-64870000D01*
X56670000Y-64870000D02*
X59330000Y-64870000D01*
X17330000Y-64870000D02*
X16000000Y-64870000D01*
X17330000Y-63540000D02*
X17330000Y-64870000D01*
X17330000Y-62270000D02*
X14670000Y-62270000D01*
X14670000Y-62270000D02*
X14670000Y-59670000D01*
X17330000Y-62270000D02*
X17330000Y-59670000D01*
X17330000Y-59670000D02*
X14670000Y-59670000D01*
X38010000Y-38280000D02*
X38010000Y-43720000D01*
X38010000Y-43720000D02*
X47750000Y-43720000D01*
X47750000Y-43720000D02*
X47750000Y-38280000D01*
X47750000Y-38280000D02*
X38010000Y-38280000D01*
X37100000Y-41000000D02*
X38010000Y-41000000D01*
X48660000Y-41000000D02*
X47750000Y-41000000D01*
X39555000Y-38280000D02*
X39555000Y-43720000D01*
X39675000Y-38280000D02*
X39675000Y-43720000D01*
X39435000Y-38280000D02*
X39435000Y-43720000D01*
X46740000Y-54195563D02*
X47804437Y-55260000D01*
X46740000Y-45804437D02*
X47804437Y-44740000D01*
X46740000Y-45804437D02*
X46740000Y-48690000D01*
X46740000Y-54195563D02*
X46740000Y-51310000D01*
X47804437Y-55260000D02*
X57260000Y-55260000D01*
X47804437Y-44740000D02*
X57260000Y-44740000D01*
X57260000Y-44740000D02*
X57260000Y-48690000D01*
X57260000Y-55260000D02*
X57260000Y-51310000D01*
X18740000Y-53195563D02*
X19804437Y-54260000D01*
X18740000Y-46804437D02*
X19804437Y-45740000D01*
X18740000Y-46804437D02*
X18740000Y-48690000D01*
X18740000Y-53195563D02*
X18740000Y-51310000D01*
X19804437Y-54260000D02*
X27260000Y-54260000D01*
X19804437Y-45740000D02*
X27260000Y-45740000D01*
X27260000Y-45740000D02*
X27260000Y-48690000D01*
X27260000Y-54260000D02*
X27260000Y-51310000D01*
D11*
X55282380Y-67833333D02*
X55996666Y-67833333D01*
X56139523Y-67880952D01*
X56234761Y-67976190D01*
X56282380Y-68119047D01*
X56282380Y-68214285D01*
X55282380Y-66880952D02*
X55282380Y-67357142D01*
X55758571Y-67404761D01*
X55710952Y-67357142D01*
X55663333Y-67261904D01*
X55663333Y-67023809D01*
X55710952Y-66928571D01*
X55758571Y-66880952D01*
X55853809Y-66833333D01*
X56091904Y-66833333D01*
X56187142Y-66880952D01*
X56234761Y-66928571D01*
X56282380Y-67023809D01*
X56282380Y-67261904D01*
X56234761Y-67357142D01*
X56187142Y-67404761D01*
X17582380Y-68333333D02*
X18296666Y-68333333D01*
X18439523Y-68380952D01*
X18534761Y-68476190D01*
X18582380Y-68619047D01*
X18582380Y-68714285D01*
X17915714Y-67428571D02*
X18582380Y-67428571D01*
X17534761Y-67666666D02*
X18249047Y-67904761D01*
X18249047Y-67285714D01*
X29802380Y-28986904D02*
X30611904Y-28986904D01*
X30707142Y-28939285D01*
X30754761Y-28891666D01*
X30802380Y-28796428D01*
X30802380Y-28605952D01*
X30754761Y-28510714D01*
X30707142Y-28463095D01*
X30611904Y-28415476D01*
X29802380Y-28415476D01*
X30802380Y-27415476D02*
X30802380Y-27986904D01*
X30802380Y-27701190D02*
X29802380Y-27701190D01*
X29945238Y-27796428D01*
X30040476Y-27891666D01*
X30088095Y-27986904D01*
X36833333Y-52102380D02*
X36357142Y-52102380D01*
X36357142Y-51102380D01*
X37690476Y-52102380D02*
X37119047Y-52102380D01*
X37404761Y-52102380D02*
X37404761Y-51102380D01*
X37309523Y-51245238D01*
X37214285Y-51340476D01*
X37119047Y-51388095D01*
X57666666Y-28582380D02*
X57666666Y-29296666D01*
X57619047Y-29439523D01*
X57523809Y-29534761D01*
X57380952Y-29582380D01*
X57285714Y-29582380D01*
X58047619Y-28582380D02*
X58666666Y-28582380D01*
X58333333Y-28963333D01*
X58476190Y-28963333D01*
X58571428Y-29010952D01*
X58619047Y-29058571D01*
X58666666Y-29153809D01*
X58666666Y-29391904D01*
X58619047Y-29487142D01*
X58571428Y-29534761D01*
X58476190Y-29582380D01*
X58190476Y-29582380D01*
X58095238Y-29534761D01*
X58047619Y-29487142D01*
X57666666Y-58122380D02*
X57666666Y-58836666D01*
X57619047Y-58979523D01*
X57523809Y-59074761D01*
X57380952Y-59122380D01*
X57285714Y-59122380D01*
X58095238Y-58217619D02*
X58142857Y-58170000D01*
X58238095Y-58122380D01*
X58476190Y-58122380D01*
X58571428Y-58170000D01*
X58619047Y-58217619D01*
X58666666Y-58312857D01*
X58666666Y-58408095D01*
X58619047Y-58550952D01*
X58047619Y-59122380D01*
X58666666Y-59122380D01*
X15666666Y-65322380D02*
X15666666Y-66036666D01*
X15619047Y-66179523D01*
X15523809Y-66274761D01*
X15380952Y-66322380D01*
X15285714Y-66322380D01*
X16666666Y-66322380D02*
X16095238Y-66322380D01*
X16380952Y-66322380D02*
X16380952Y-65322380D01*
X16285714Y-65465238D01*
X16190476Y-65560476D01*
X16095238Y-65608095D01*
X42141904Y-37732380D02*
X42141904Y-36732380D01*
X42380000Y-36732380D01*
X42522857Y-36780000D01*
X42618095Y-36875238D01*
X42665714Y-36970476D01*
X42713333Y-37160952D01*
X42713333Y-37303809D01*
X42665714Y-37494285D01*
X42618095Y-37589523D01*
X42522857Y-37684761D01*
X42380000Y-37732380D01*
X42141904Y-37732380D01*
X43665714Y-37732380D02*
X43094285Y-37732380D01*
X43380000Y-37732380D02*
X43380000Y-36732380D01*
X43284761Y-36875238D01*
X43189523Y-36970476D01*
X43094285Y-37018095D01*
X34998095Y-38852380D02*
X34998095Y-37852380D01*
X35569523Y-38852380D02*
X35140952Y-38280952D01*
X35569523Y-37852380D02*
X34998095Y-38423809D01*
X51833333Y-44157142D02*
X51785714Y-44204761D01*
X51642857Y-44252380D01*
X51547619Y-44252380D01*
X51404761Y-44204761D01*
X51309523Y-44109523D01*
X51261904Y-44014285D01*
X51214285Y-43823809D01*
X51214285Y-43680952D01*
X51261904Y-43490476D01*
X51309523Y-43395238D01*
X51404761Y-43300000D01*
X51547619Y-43252380D01*
X51642857Y-43252380D01*
X51785714Y-43300000D01*
X51833333Y-43347619D01*
X52214285Y-43347619D02*
X52261904Y-43300000D01*
X52357142Y-43252380D01*
X52595238Y-43252380D01*
X52690476Y-43300000D01*
X52738095Y-43347619D01*
X52785714Y-43442857D01*
X52785714Y-43538095D01*
X52738095Y-43680952D01*
X52166666Y-44252380D01*
X52785714Y-44252380D01*
X22833333Y-45157142D02*
X22785714Y-45204761D01*
X22642857Y-45252380D01*
X22547619Y-45252380D01*
X22404761Y-45204761D01*
X22309523Y-45109523D01*
X22261904Y-45014285D01*
X22214285Y-44823809D01*
X22214285Y-44680952D01*
X22261904Y-44490476D01*
X22309523Y-44395238D01*
X22404761Y-44300000D01*
X22547619Y-44252380D01*
X22642857Y-44252380D01*
X22785714Y-44300000D01*
X22833333Y-44347619D01*
X23785714Y-45252380D02*
X23214285Y-45252380D01*
X23500000Y-45252380D02*
X23500000Y-44252380D01*
X23404761Y-44395238D01*
X23309523Y-44490476D01*
X23214285Y-44538095D01*
M02*
