G04 #@! TF.GenerationSoftware,KiCad,Pcbnew,(5.1.2-1)-1*
G04 #@! TF.CreationDate,2020-02-13T23:28:20-08:00*
G04 #@! TF.ProjectId,LM2576,4c4d3235-3736-42e6-9b69-6361645f7063,rev?*
G04 #@! TF.SameCoordinates,Original*
G04 #@! TF.FileFunction,Paste,Top*
G04 #@! TF.FilePolarity,Positive*
%FSLAX46Y46*%
G04 Gerber Fmt 4.6, Leading zero omitted, Abs format (unit mm)*
G04 Created by KiCad (PCBNEW (5.1.2-1)-1) date 2020-02-13 23:28:20*
%MOMM*%
%LPD*%
G04 APERTURE LIST*
%ADD10R,5.250000X4.550000*%
%ADD11R,1.100000X4.600000*%
%ADD12C,0.100000*%
%ADD13C,2.100000*%
G04 APERTURE END LIST*
D10*
X39775000Y-27275000D03*
X34225000Y-22425000D03*
X34225000Y-27275000D03*
X39775000Y-22425000D03*
D11*
X40400000Y-34000000D03*
X38700000Y-34000000D03*
X37000000Y-34000000D03*
X35300000Y-34000000D03*
X33600000Y-34000000D03*
D12*
G36*
X58474504Y-48951204D02*
G01*
X58498773Y-48954804D01*
X58522571Y-48960765D01*
X58545671Y-48969030D01*
X58567849Y-48979520D01*
X58588893Y-48992133D01*
X58608598Y-49006747D01*
X58626777Y-49023223D01*
X58643253Y-49041402D01*
X58657867Y-49061107D01*
X58670480Y-49082151D01*
X58680970Y-49104329D01*
X58689235Y-49127429D01*
X58695196Y-49151227D01*
X58698796Y-49175496D01*
X58700000Y-49200000D01*
X58700000Y-50800000D01*
X58698796Y-50824504D01*
X58695196Y-50848773D01*
X58689235Y-50872571D01*
X58680970Y-50895671D01*
X58670480Y-50917849D01*
X58657867Y-50938893D01*
X58643253Y-50958598D01*
X58626777Y-50976777D01*
X58608598Y-50993253D01*
X58588893Y-51007867D01*
X58567849Y-51020480D01*
X58545671Y-51030970D01*
X58522571Y-51039235D01*
X58498773Y-51045196D01*
X58474504Y-51048796D01*
X58450000Y-51050000D01*
X54350000Y-51050000D01*
X54325496Y-51048796D01*
X54301227Y-51045196D01*
X54277429Y-51039235D01*
X54254329Y-51030970D01*
X54232151Y-51020480D01*
X54211107Y-51007867D01*
X54191402Y-50993253D01*
X54173223Y-50976777D01*
X54156747Y-50958598D01*
X54142133Y-50938893D01*
X54129520Y-50917849D01*
X54119030Y-50895671D01*
X54110765Y-50872571D01*
X54104804Y-50848773D01*
X54101204Y-50824504D01*
X54100000Y-50800000D01*
X54100000Y-49200000D01*
X54101204Y-49175496D01*
X54104804Y-49151227D01*
X54110765Y-49127429D01*
X54119030Y-49104329D01*
X54129520Y-49082151D01*
X54142133Y-49061107D01*
X54156747Y-49041402D01*
X54173223Y-49023223D01*
X54191402Y-49006747D01*
X54211107Y-48992133D01*
X54232151Y-48979520D01*
X54254329Y-48969030D01*
X54277429Y-48960765D01*
X54301227Y-48954804D01*
X54325496Y-48951204D01*
X54350000Y-48950000D01*
X58450000Y-48950000D01*
X58474504Y-48951204D01*
X58474504Y-48951204D01*
G37*
D13*
X56400000Y-50000000D03*
D12*
G36*
X49674504Y-48951204D02*
G01*
X49698773Y-48954804D01*
X49722571Y-48960765D01*
X49745671Y-48969030D01*
X49767849Y-48979520D01*
X49788893Y-48992133D01*
X49808598Y-49006747D01*
X49826777Y-49023223D01*
X49843253Y-49041402D01*
X49857867Y-49061107D01*
X49870480Y-49082151D01*
X49880970Y-49104329D01*
X49889235Y-49127429D01*
X49895196Y-49151227D01*
X49898796Y-49175496D01*
X49900000Y-49200000D01*
X49900000Y-50800000D01*
X49898796Y-50824504D01*
X49895196Y-50848773D01*
X49889235Y-50872571D01*
X49880970Y-50895671D01*
X49870480Y-50917849D01*
X49857867Y-50938893D01*
X49843253Y-50958598D01*
X49826777Y-50976777D01*
X49808598Y-50993253D01*
X49788893Y-51007867D01*
X49767849Y-51020480D01*
X49745671Y-51030970D01*
X49722571Y-51039235D01*
X49698773Y-51045196D01*
X49674504Y-51048796D01*
X49650000Y-51050000D01*
X45550000Y-51050000D01*
X45525496Y-51048796D01*
X45501227Y-51045196D01*
X45477429Y-51039235D01*
X45454329Y-51030970D01*
X45432151Y-51020480D01*
X45411107Y-51007867D01*
X45391402Y-50993253D01*
X45373223Y-50976777D01*
X45356747Y-50958598D01*
X45342133Y-50938893D01*
X45329520Y-50917849D01*
X45319030Y-50895671D01*
X45310765Y-50872571D01*
X45304804Y-50848773D01*
X45301204Y-50824504D01*
X45300000Y-50800000D01*
X45300000Y-49200000D01*
X45301204Y-49175496D01*
X45304804Y-49151227D01*
X45310765Y-49127429D01*
X45319030Y-49104329D01*
X45329520Y-49082151D01*
X45342133Y-49061107D01*
X45356747Y-49041402D01*
X45373223Y-49023223D01*
X45391402Y-49006747D01*
X45411107Y-48992133D01*
X45432151Y-48979520D01*
X45454329Y-48969030D01*
X45477429Y-48960765D01*
X45501227Y-48954804D01*
X45525496Y-48951204D01*
X45550000Y-48950000D01*
X49650000Y-48950000D01*
X49674504Y-48951204D01*
X49674504Y-48951204D01*
G37*
D13*
X47600000Y-50000000D03*
D12*
G36*
X28624504Y-48951204D02*
G01*
X28648773Y-48954804D01*
X28672571Y-48960765D01*
X28695671Y-48969030D01*
X28717849Y-48979520D01*
X28738893Y-48992133D01*
X28758598Y-49006747D01*
X28776777Y-49023223D01*
X28793253Y-49041402D01*
X28807867Y-49061107D01*
X28820480Y-49082151D01*
X28830970Y-49104329D01*
X28839235Y-49127429D01*
X28845196Y-49151227D01*
X28848796Y-49175496D01*
X28850000Y-49200000D01*
X28850000Y-50800000D01*
X28848796Y-50824504D01*
X28845196Y-50848773D01*
X28839235Y-50872571D01*
X28830970Y-50895671D01*
X28820480Y-50917849D01*
X28807867Y-50938893D01*
X28793253Y-50958598D01*
X28776777Y-50976777D01*
X28758598Y-50993253D01*
X28738893Y-51007867D01*
X28717849Y-51020480D01*
X28695671Y-51030970D01*
X28672571Y-51039235D01*
X28648773Y-51045196D01*
X28624504Y-51048796D01*
X28600000Y-51050000D01*
X24600000Y-51050000D01*
X24575496Y-51048796D01*
X24551227Y-51045196D01*
X24527429Y-51039235D01*
X24504329Y-51030970D01*
X24482151Y-51020480D01*
X24461107Y-51007867D01*
X24441402Y-50993253D01*
X24423223Y-50976777D01*
X24406747Y-50958598D01*
X24392133Y-50938893D01*
X24379520Y-50917849D01*
X24369030Y-50895671D01*
X24360765Y-50872571D01*
X24354804Y-50848773D01*
X24351204Y-50824504D01*
X24350000Y-50800000D01*
X24350000Y-49200000D01*
X24351204Y-49175496D01*
X24354804Y-49151227D01*
X24360765Y-49127429D01*
X24369030Y-49104329D01*
X24379520Y-49082151D01*
X24392133Y-49061107D01*
X24406747Y-49041402D01*
X24423223Y-49023223D01*
X24441402Y-49006747D01*
X24461107Y-48992133D01*
X24482151Y-48979520D01*
X24504329Y-48969030D01*
X24527429Y-48960765D01*
X24551227Y-48954804D01*
X24575496Y-48951204D01*
X24600000Y-48950000D01*
X28600000Y-48950000D01*
X28624504Y-48951204D01*
X28624504Y-48951204D01*
G37*
D13*
X26600000Y-50000000D03*
D12*
G36*
X21424504Y-48951204D02*
G01*
X21448773Y-48954804D01*
X21472571Y-48960765D01*
X21495671Y-48969030D01*
X21517849Y-48979520D01*
X21538893Y-48992133D01*
X21558598Y-49006747D01*
X21576777Y-49023223D01*
X21593253Y-49041402D01*
X21607867Y-49061107D01*
X21620480Y-49082151D01*
X21630970Y-49104329D01*
X21639235Y-49127429D01*
X21645196Y-49151227D01*
X21648796Y-49175496D01*
X21650000Y-49200000D01*
X21650000Y-50800000D01*
X21648796Y-50824504D01*
X21645196Y-50848773D01*
X21639235Y-50872571D01*
X21630970Y-50895671D01*
X21620480Y-50917849D01*
X21607867Y-50938893D01*
X21593253Y-50958598D01*
X21576777Y-50976777D01*
X21558598Y-50993253D01*
X21538893Y-51007867D01*
X21517849Y-51020480D01*
X21495671Y-51030970D01*
X21472571Y-51039235D01*
X21448773Y-51045196D01*
X21424504Y-51048796D01*
X21400000Y-51050000D01*
X17400000Y-51050000D01*
X17375496Y-51048796D01*
X17351227Y-51045196D01*
X17327429Y-51039235D01*
X17304329Y-51030970D01*
X17282151Y-51020480D01*
X17261107Y-51007867D01*
X17241402Y-50993253D01*
X17223223Y-50976777D01*
X17206747Y-50958598D01*
X17192133Y-50938893D01*
X17179520Y-50917849D01*
X17169030Y-50895671D01*
X17160765Y-50872571D01*
X17154804Y-50848773D01*
X17151204Y-50824504D01*
X17150000Y-50800000D01*
X17150000Y-49200000D01*
X17151204Y-49175496D01*
X17154804Y-49151227D01*
X17160765Y-49127429D01*
X17169030Y-49104329D01*
X17179520Y-49082151D01*
X17192133Y-49061107D01*
X17206747Y-49041402D01*
X17223223Y-49023223D01*
X17241402Y-49006747D01*
X17261107Y-48992133D01*
X17282151Y-48979520D01*
X17304329Y-48969030D01*
X17327429Y-48960765D01*
X17351227Y-48954804D01*
X17375496Y-48951204D01*
X17400000Y-48950000D01*
X21400000Y-48950000D01*
X21424504Y-48951204D01*
X21424504Y-48951204D01*
G37*
D13*
X19400000Y-50000000D03*
M02*
