M48
; DRILL file {KiCad (5.1.2-1)-1} date Thursday, January 30, 2020 at 11:37:24 PM
; FORMAT={-:-/ absolute / metric / decimal}
; #@! TF.CreationDate,2020-01-30T23:37:24-08:00
; #@! TF.GenerationSoftware,Kicad,Pcbnew,(5.1.2-1)-1
FMAT,2
METRIC
T1C0.300
T2C0.400
T3C0.500
T4C1.000
T5C1.100
T6C1.270
T7C3.200
%
G90
G05
T1
X17.9Y-149.663
X19.9Y-156.9
X20.96Y-177.46
X21.0Y-167.0
X21.0Y-172.0
X21.0Y-183.0
X23.8Y-167.0
X23.9Y-177.5
X24.0Y-172.0
X25.45Y-183.0
X25.95Y-162.0
X26.1Y-156.9
X26.4Y-158.8
X26.862Y-159.146
X29.1Y-159.2
X30.0Y-162.05
X34.0Y-158.7
X34.0Y-162.0
X34.9Y-159.2
X35.1Y-152.8
X35.95Y-152.85
X36.3Y-154.2
X36.3Y-155.4
X36.8Y-152.0
X36.925Y-159.085
X37.25Y-153.25
X37.5Y-141.0
X37.814Y-140.464
X37.9Y-133.5
X38.0Y-162.0
X38.199Y-139.985
X38.2Y-138.0
X38.3Y-134.0
X40.5Y-138.5
X40.9Y-139.0
X41.5Y-130.2
X42.0Y-133.0
X42.0Y-137.5
X42.0Y-139.5
X42.0Y-166.9
X43.5Y-144.0
X43.55Y-154.95
X43.6Y-152.85
X44.0Y-148.0
X45.5Y-140.7
X46.5Y-140.2
X46.5Y-152.85
X46.5Y-155.15
X47.492Y-139.692
X48.5Y-138.0
X48.651Y-135.149
X48.8Y-149.9
X48.8Y-152.0
X49.0Y-134.0
X49.2Y-135.628
X49.5Y-144.5
X49.651Y-136.149
X50.0Y-145.1
X50.5Y-145.4
X50.75Y-149.95
X50.8Y-152.0
X51.0Y-134.0
X51.0Y-145.7
X51.539Y-129.639
X52.0Y-140.0
X52.61Y-143.694
X53.089Y-144.142
X53.3Y-139.2
X54.0Y-181.35
X54.0Y-183.65
X56.8Y-192.0
X56.85Y-183.55
X56.9Y-139.5
X56.9Y-181.35
X57.0Y-136.2
X57.089Y-131.989
X59.2Y-114.0
X59.5Y-176.4
X60.3Y-176.3
X60.8Y-135.8
X61.2Y-175.9
X62.5Y-114.0
X62.9Y-112.1
X63.433Y-109.733
X63.75Y-187.75
X64.2Y-177.6
X64.2Y-179.6
X66.3Y-175.9
X66.76Y-187.76
X67.141Y-109.8
X67.2Y-112.1
X67.4Y-114.8
X79.95Y-80.05
X79.95Y-89.0
X79.95Y-92.0
X80.0Y-77.05
X80.0Y-83.0
X80.0Y-86.0
X80.5Y-121.0
X80.5Y-125.0
X80.5Y-129.0
X80.5Y-133.0
X80.5Y-137.0
X80.5Y-141.0
X84.0Y-100.0
X84.0Y-103.0
X84.0Y-106.0
X84.0Y-109.0
X84.0Y-112.0
X84.0Y-115.0
X84.5Y-121.0
X84.5Y-125.0
X84.5Y-129.0
X84.5Y-133.0
X84.5Y-137.0
X84.5Y-141.0
X86.0Y-80.0
X86.0Y-83.0
X86.0Y-89.0
X86.1Y-77.0
X86.1Y-86.0
X86.1Y-92.0
T2
X35.3Y-164.9
X35.3Y-171.1
X35.3Y-173.9
X35.3Y-180.2
T3
X19.85Y-153.15
X28.95Y-176.65
X29.05Y-167.3
X42.0Y-176.65
X60.25Y-179.75
X61.6Y-187.9
X68.8Y-187.85
X14.6Y-53.0
X15.303Y-51.303
X15.303Y-54.697
X17.0Y-50.6
X17.0Y-55.4
X18.697Y-51.303
X18.697Y-54.697
X19.4Y-53.0
X104.6Y-53.0
X105.303Y-51.303
X105.303Y-54.697
X107.0Y-50.6
X107.0Y-55.4
X108.697Y-51.303
X108.697Y-54.697
X109.4Y-53.0
X14.6Y-193.0
X15.303Y-191.303
X15.303Y-194.697
X17.0Y-190.6
X17.0Y-195.4
X18.697Y-191.303
X18.697Y-194.697
X19.4Y-193.0
X104.6Y-193.0
X105.303Y-191.303
X105.303Y-194.697
X107.0Y-190.6
X107.0Y-195.4
X108.697Y-191.303
X108.697Y-194.697
X109.4Y-193.0
T4
X91.7Y-153.6
X91.7Y-158.6
X96.7Y-156.1
X40.46Y-196.0
X43.0Y-196.0
X15.0Y-143.0
X15.0Y-145.54
X15.0Y-148.08
X15.0Y-150.62
X15.0Y-153.16
X15.0Y-155.7
X70.46Y-78.3
X70.46Y-80.84
X70.46Y-83.38
X70.46Y-85.92
X70.46Y-88.46
X70.46Y-91.0
X73.0Y-78.3
X73.0Y-80.84
X73.0Y-83.38
X73.0Y-85.92
X73.0Y-88.46
X73.0Y-91.0
X39.4Y-97.0
X39.4Y-99.5
X102.46Y-151.0
X102.46Y-153.54
X102.46Y-156.08
X102.46Y-158.62
X102.46Y-161.16
X102.46Y-163.7
X102.46Y-166.24
X102.46Y-168.78
X102.46Y-171.32
X102.46Y-173.86
X102.46Y-176.4
X102.46Y-178.94
X105.0Y-151.0
X105.0Y-153.54
X105.0Y-156.08
X105.0Y-158.62
X105.0Y-161.16
X105.0Y-163.7
X105.0Y-166.24
X105.0Y-168.78
X105.0Y-171.32
X105.0Y-173.86
X105.0Y-176.4
X105.0Y-178.94
X64.0Y-78.3
X64.0Y-80.84
X64.0Y-83.38
X64.0Y-85.92
X64.0Y-88.46
X64.0Y-91.0
X66.54Y-78.3
X66.54Y-80.84
X66.54Y-83.38
X66.54Y-85.92
X66.54Y-88.46
X66.54Y-91.0
X39.4Y-80.1
X39.4Y-82.6
X70.96Y-126.3
X70.96Y-128.84
X70.96Y-131.38
X70.96Y-133.92
X70.96Y-136.46
X70.96Y-139.0
X73.5Y-126.3
X73.5Y-128.84
X73.5Y-131.38
X73.5Y-133.92
X73.5Y-136.46
X73.5Y-139.0
X30.46Y-196.0
X33.0Y-196.0
X70.96Y-100.8
X70.96Y-103.34
X70.96Y-105.88
X70.96Y-108.42
X70.96Y-110.96
X70.96Y-113.5
X73.5Y-100.8
X73.5Y-103.34
X73.5Y-105.88
X73.5Y-108.42
X73.5Y-110.96
X73.5Y-113.5
X93.0Y-77.0
X93.0Y-79.54
X93.0Y-82.08
X93.0Y-84.62
X93.0Y-87.16
X93.0Y-89.7
X93.0Y-92.24
X95.54Y-77.0
X95.54Y-79.54
X95.54Y-82.08
X95.54Y-84.62
X95.54Y-87.16
X95.54Y-89.7
X95.54Y-92.24
X40.46Y-192.0
X43.0Y-192.0
X15.46Y-162.22
X15.46Y-164.76
X15.46Y-167.3
X15.46Y-169.84
X15.46Y-172.38
X15.46Y-174.92
X15.46Y-177.46
X15.46Y-180.0
X15.46Y-182.54
X15.46Y-185.08
X18.0Y-162.22
X18.0Y-164.76
X18.0Y-167.3
X18.0Y-169.84
X18.0Y-172.38
X18.0Y-174.92
X18.0Y-177.46
X18.0Y-180.0
X18.0Y-182.54
X18.0Y-185.08
X26.46Y-143.0
X26.46Y-145.54
X26.46Y-148.08
X29.0Y-143.0
X29.0Y-145.54
X29.0Y-148.08
X39.4Y-114.0
X39.4Y-116.5
T5
X53.9Y-113.92
X53.9Y-116.46
X53.9Y-119.0
X53.9Y-96.92
X53.9Y-99.46
X53.9Y-102.0
X53.9Y-80.02
X53.9Y-82.56
X53.9Y-85.1
T6
X60.6Y-191.142
X60.6Y-195.46
X69.236Y-191.142
X69.236Y-195.46
T7
X17.0Y-53.0
X107.0Y-53.0
X17.0Y-193.0
X107.0Y-193.0
T0
M30
