G04 #@! TF.GenerationSoftware,KiCad,Pcbnew,(5.1.2-1)-1*
G04 #@! TF.CreationDate,2020-02-14T00:11:40-08:00*
G04 #@! TF.ProjectId,KEYPAD,4b455950-4144-42e6-9b69-6361645f7063,rev?*
G04 #@! TF.SameCoordinates,Original*
G04 #@! TF.FileFunction,Copper,L2,Bot*
G04 #@! TF.FilePolarity,Positive*
%FSLAX46Y46*%
G04 Gerber Fmt 4.6, Leading zero omitted, Abs format (unit mm)*
G04 Created by KiCad (PCBNEW (5.1.2-1)-1) date 2020-02-14 00:11:40*
%MOMM*%
%LPD*%
G04 APERTURE LIST*
%ADD10O,1.700000X1.700000*%
%ADD11R,1.700000X1.700000*%
%ADD12C,0.800000*%
%ADD13C,0.406400*%
G04 APERTURE END LIST*
D10*
X15760000Y-31040000D03*
X18300000Y-31040000D03*
X15760000Y-28500000D03*
X18300000Y-28500000D03*
X15760000Y-25960000D03*
X18300000Y-25960000D03*
X15760000Y-23420000D03*
X18300000Y-23420000D03*
X15760000Y-20880000D03*
X18300000Y-20880000D03*
X15760000Y-18340000D03*
X18300000Y-18340000D03*
X15760000Y-15800000D03*
D11*
X18300000Y-15800000D03*
D10*
X27300000Y-32500000D03*
X27300000Y-29960000D03*
X27300000Y-27420000D03*
X27300000Y-24880000D03*
X27300000Y-22340000D03*
X27300000Y-19800000D03*
X27300000Y-17260000D03*
D11*
X27300000Y-14720000D03*
D12*
X24500000Y-27400000D03*
X23309610Y-24900002D03*
X23705999Y-19805999D03*
D13*
X27200000Y-27400000D02*
X25065685Y-27400000D01*
X27300000Y-27300000D02*
X27200000Y-27400000D01*
X25065685Y-27400000D02*
X24500000Y-27400000D01*
X27499998Y-24900002D02*
X23875295Y-24900002D01*
X27500000Y-24900000D02*
X27499998Y-24900002D01*
X23875295Y-24900002D02*
X23309610Y-24900002D01*
X28759601Y-33640399D02*
X28759601Y-23559601D01*
X28440399Y-33959601D02*
X28759601Y-33640399D01*
X16519391Y-33959601D02*
X28440399Y-33959601D01*
X14300399Y-31740609D02*
X16519391Y-33959601D01*
X14300399Y-27419601D02*
X14300399Y-31740609D01*
X15760000Y-25960000D02*
X14300399Y-27419601D01*
X28759601Y-23559601D02*
X27500000Y-22300000D01*
X18300000Y-25960000D02*
X15860000Y-25960000D01*
X15860000Y-25960000D02*
X15700000Y-25800000D01*
X21400000Y-25020210D02*
X21400000Y-22111998D01*
X21400000Y-22111998D02*
X23306000Y-20205998D01*
X17920210Y-28500000D02*
X21400000Y-25020210D01*
X23306000Y-20205998D02*
X23705999Y-19805999D01*
X15760000Y-28500000D02*
X17920210Y-28500000D01*
X22300000Y-22639790D02*
X27300000Y-17639790D01*
X22300000Y-26660210D02*
X22300000Y-22639790D01*
X27300000Y-17639790D02*
X27300000Y-17200000D01*
X17920210Y-31040000D02*
X22300000Y-26660210D01*
X15760000Y-31040000D02*
X17920210Y-31040000D01*
M02*
