%FSLAX45Y45*%
G04 Gerber Fmt 4.5, Leading zero omitted, Abs format (unit mm)*
G04 Created by KiCad (PCBNEW (5.1.2-1)-1) date 2020-02-14 00:11:38*
%MOMM*%
%LPD*%
G04 APERTURE LIST*
%ADD10C,0.050000*%
%ADD11C,0.200000*%
%ADD12C,0.300000*%
G04 APERTURE END LIST*
D10*
X3100000Y-1200000D02*
X3100000Y-3600000D01*
X1200000Y-3600000D02*
X1200000Y-1200000D01*
X3100000Y-3600000D02*
X1200000Y-3600000D01*
X1200000Y-1200000D02*
X3100000Y-1200000D01*
D11*
X2300961Y-2460000D02*
X2360961Y-2520000D01*
X2360961Y-2460000D02*
X2300961Y-2520000D01*
X2340600Y-1950600D02*
X2400600Y-2010600D01*
X2400600Y-1950600D02*
X2340600Y-2010600D01*
X2420000Y-2710000D02*
X2480000Y-2770000D01*
X2480000Y-2710000D02*
X2420000Y-2770000D01*
X1626000Y-1580000D02*
G75*
G03X1626000Y-1580000I-50000J0D01*
G01*
X1626000Y-1834000D02*
G75*
G03X1626000Y-1834000I-50000J0D01*
G01*
X1626000Y-2088000D02*
G75*
G03X1626000Y-2088000I-50000J0D01*
G01*
X1626000Y-2342000D02*
G75*
G03X1626000Y-2342000I-50000J0D01*
G01*
X1626000Y-2596000D02*
G75*
G03X1626000Y-2596000I-50000J0D01*
G01*
X1626000Y-2850000D02*
G75*
G03X1626000Y-2850000I-50000J0D01*
G01*
X1626000Y-3104000D02*
G75*
G03X1626000Y-3104000I-50000J0D01*
G01*
X1880000Y-1580000D02*
G75*
G03X1880000Y-1580000I-50000J0D01*
G01*
X1880000Y-1834000D02*
G75*
G03X1880000Y-1834000I-50000J0D01*
G01*
X1880000Y-2088000D02*
G75*
G03X1880000Y-2088000I-50000J0D01*
G01*
X1880000Y-2342000D02*
G75*
G03X1880000Y-2342000I-50000J0D01*
G01*
X1880000Y-2596000D02*
G75*
G03X1880000Y-2596000I-50000J0D01*
G01*
X1880000Y-2850000D02*
G75*
G03X1880000Y-2850000I-50000J0D01*
G01*
X1880000Y-3104000D02*
G75*
G03X1880000Y-3104000I-50000J0D01*
G01*
X2780000Y-1472000D02*
G75*
G03X2780000Y-1472000I-50000J0D01*
G01*
X2780000Y-1726000D02*
G75*
G03X2780000Y-1726000I-50000J0D01*
G01*
X2780000Y-1980000D02*
G75*
G03X2780000Y-1980000I-50000J0D01*
G01*
X2780000Y-2234000D02*
G75*
G03X2780000Y-2234000I-50000J0D01*
G01*
X2780000Y-2488000D02*
G75*
G03X2780000Y-2488000I-50000J0D01*
G01*
X2780000Y-2742000D02*
G75*
G03X2780000Y-2742000I-50000J0D01*
G01*
X2780000Y-2996000D02*
G75*
G03X2780000Y-2996000I-50000J0D01*
G01*
X2780000Y-3250000D02*
G75*
G03X2780000Y-3250000I-50000J0D01*
G01*
D12*
X1483928Y-4068214D02*
X1483928Y-3768214D01*
X1555357Y-3768214D01*
X1598214Y-3782500D01*
X1626786Y-3811071D01*
X1641071Y-3839643D01*
X1655357Y-3896786D01*
X1655357Y-3939643D01*
X1641071Y-3996786D01*
X1626786Y-4025357D01*
X1598214Y-4053929D01*
X1555357Y-4068214D01*
X1483928Y-4068214D01*
X1783928Y-4068214D02*
X1783928Y-3868214D01*
X1783928Y-3925357D02*
X1798214Y-3896786D01*
X1812500Y-3882500D01*
X1841071Y-3868214D01*
X1869643Y-3868214D01*
X1969643Y-4068214D02*
X1969643Y-3868214D01*
X1969643Y-3768214D02*
X1955357Y-3782500D01*
X1969643Y-3796786D01*
X1983928Y-3782500D01*
X1969643Y-3768214D01*
X1969643Y-3796786D01*
X2155357Y-4068214D02*
X2126786Y-4053929D01*
X2112500Y-4025357D01*
X2112500Y-3768214D01*
X2312500Y-4068214D02*
X2283928Y-4053929D01*
X2269643Y-4025357D01*
X2269643Y-3768214D01*
X2655357Y-4068214D02*
X2655357Y-3768214D01*
X2755357Y-3982500D01*
X2855357Y-3768214D01*
X2855357Y-4068214D01*
X3126786Y-4068214D02*
X3126786Y-3911071D01*
X3112500Y-3882500D01*
X3083928Y-3868214D01*
X3026786Y-3868214D01*
X2998214Y-3882500D01*
X3126786Y-4053929D02*
X3098214Y-4068214D01*
X3026786Y-4068214D01*
X2998214Y-4053929D01*
X2983928Y-4025357D01*
X2983928Y-3996786D01*
X2998214Y-3968214D01*
X3026786Y-3953929D01*
X3098214Y-3953929D01*
X3126786Y-3939643D01*
X3269643Y-3868214D02*
X3269643Y-4168214D01*
X3269643Y-3882500D02*
X3298214Y-3868214D01*
X3355357Y-3868214D01*
X3383928Y-3882500D01*
X3398214Y-3896786D01*
X3412500Y-3925357D01*
X3412500Y-4011071D01*
X3398214Y-4039643D01*
X3383928Y-4053929D01*
X3355357Y-4068214D01*
X3298214Y-4068214D01*
X3269643Y-4053929D01*
X3541071Y-4039643D02*
X3555357Y-4053929D01*
X3541071Y-4068214D01*
X3526786Y-4053929D01*
X3541071Y-4039643D01*
X3541071Y-4068214D01*
X3541071Y-3882500D02*
X3555357Y-3896786D01*
X3541071Y-3911071D01*
X3526786Y-3896786D01*
X3541071Y-3882500D01*
X3541071Y-3911071D01*
X1137500Y-4532500D02*
X1197500Y-4592500D01*
X1197500Y-4532500D02*
X1137500Y-4592500D01*
X1541071Y-4398214D02*
X1569643Y-4398214D01*
X1598214Y-4412500D01*
X1612500Y-4426786D01*
X1626786Y-4455357D01*
X1641071Y-4512500D01*
X1641071Y-4583929D01*
X1626786Y-4641072D01*
X1612500Y-4669643D01*
X1598214Y-4683929D01*
X1569643Y-4698214D01*
X1541071Y-4698214D01*
X1512500Y-4683929D01*
X1498214Y-4669643D01*
X1483928Y-4641072D01*
X1469643Y-4583929D01*
X1469643Y-4512500D01*
X1483928Y-4455357D01*
X1498214Y-4426786D01*
X1512500Y-4412500D01*
X1541071Y-4398214D01*
X1769643Y-4669643D02*
X1783928Y-4683929D01*
X1769643Y-4698214D01*
X1755357Y-4683929D01*
X1769643Y-4669643D01*
X1769643Y-4698214D01*
X2041071Y-4398214D02*
X1983928Y-4398214D01*
X1955357Y-4412500D01*
X1941071Y-4426786D01*
X1912500Y-4469643D01*
X1898214Y-4526786D01*
X1898214Y-4641072D01*
X1912500Y-4669643D01*
X1926786Y-4683929D01*
X1955357Y-4698214D01*
X2012500Y-4698214D01*
X2041071Y-4683929D01*
X2055357Y-4669643D01*
X2069643Y-4641072D01*
X2069643Y-4569643D01*
X2055357Y-4541072D01*
X2041071Y-4526786D01*
X2012500Y-4512500D01*
X1955357Y-4512500D01*
X1926786Y-4526786D01*
X1912500Y-4541072D01*
X1898214Y-4569643D01*
X2255357Y-4398214D02*
X2283928Y-4398214D01*
X2312500Y-4412500D01*
X2326786Y-4426786D01*
X2341071Y-4455357D01*
X2355357Y-4512500D01*
X2355357Y-4583929D01*
X2341071Y-4641072D01*
X2326786Y-4669643D01*
X2312500Y-4683929D01*
X2283928Y-4698214D01*
X2255357Y-4698214D01*
X2226786Y-4683929D01*
X2212500Y-4669643D01*
X2198214Y-4641072D01*
X2183928Y-4583929D01*
X2183928Y-4512500D01*
X2198214Y-4455357D01*
X2212500Y-4426786D01*
X2226786Y-4412500D01*
X2255357Y-4398214D01*
X2483928Y-4698214D02*
X2483928Y-4498214D01*
X2483928Y-4526786D02*
X2498214Y-4512500D01*
X2526786Y-4498214D01*
X2569643Y-4498214D01*
X2598214Y-4512500D01*
X2612500Y-4541072D01*
X2612500Y-4698214D01*
X2612500Y-4541072D02*
X2626786Y-4512500D01*
X2655357Y-4498214D01*
X2698214Y-4498214D01*
X2726786Y-4512500D01*
X2741071Y-4541072D01*
X2741071Y-4698214D01*
X2883928Y-4698214D02*
X2883928Y-4498214D01*
X2883928Y-4526786D02*
X2898214Y-4512500D01*
X2926786Y-4498214D01*
X2969643Y-4498214D01*
X2998214Y-4512500D01*
X3012500Y-4541072D01*
X3012500Y-4698214D01*
X3012500Y-4541072D02*
X3026786Y-4512500D01*
X3055357Y-4498214D01*
X3098214Y-4498214D01*
X3126786Y-4512500D01*
X3141071Y-4541072D01*
X3141071Y-4698214D01*
X3726786Y-4383929D02*
X3469643Y-4769643D01*
X4112500Y-4398214D02*
X4141071Y-4398214D01*
X4169643Y-4412500D01*
X4183928Y-4426786D01*
X4198214Y-4455357D01*
X4212500Y-4512500D01*
X4212500Y-4583929D01*
X4198214Y-4641072D01*
X4183928Y-4669643D01*
X4169643Y-4683929D01*
X4141071Y-4698214D01*
X4112500Y-4698214D01*
X4083928Y-4683929D01*
X4069643Y-4669643D01*
X4055357Y-4641072D01*
X4041071Y-4583929D01*
X4041071Y-4512500D01*
X4055357Y-4455357D01*
X4069643Y-4426786D01*
X4083928Y-4412500D01*
X4112500Y-4398214D01*
X4341071Y-4669643D02*
X4355357Y-4683929D01*
X4341071Y-4698214D01*
X4326786Y-4683929D01*
X4341071Y-4669643D01*
X4341071Y-4698214D01*
X4541071Y-4398214D02*
X4569643Y-4398214D01*
X4598214Y-4412500D01*
X4612500Y-4426786D01*
X4626786Y-4455357D01*
X4641071Y-4512500D01*
X4641071Y-4583929D01*
X4626786Y-4641072D01*
X4612500Y-4669643D01*
X4598214Y-4683929D01*
X4569643Y-4698214D01*
X4541071Y-4698214D01*
X4512500Y-4683929D01*
X4498214Y-4669643D01*
X4483928Y-4641072D01*
X4469643Y-4583929D01*
X4469643Y-4512500D01*
X4483928Y-4455357D01*
X4498214Y-4426786D01*
X4512500Y-4412500D01*
X4541071Y-4398214D01*
X4755357Y-4426786D02*
X4769643Y-4412500D01*
X4798214Y-4398214D01*
X4869643Y-4398214D01*
X4898214Y-4412500D01*
X4912500Y-4426786D01*
X4926786Y-4455357D01*
X4926786Y-4483929D01*
X4912500Y-4526786D01*
X4741071Y-4698214D01*
X4926786Y-4698214D01*
X5183928Y-4498214D02*
X5183928Y-4698214D01*
X5112500Y-4383929D02*
X5041071Y-4598214D01*
X5226786Y-4598214D01*
X5326786Y-4398214D02*
X5326786Y-4455357D01*
X5441071Y-4398214D02*
X5441071Y-4455357D01*
X5883928Y-4812500D02*
X5869643Y-4798214D01*
X5841071Y-4755357D01*
X5826786Y-4726786D01*
X5812500Y-4683929D01*
X5798214Y-4612500D01*
X5798214Y-4555357D01*
X5812500Y-4483929D01*
X5826786Y-4441072D01*
X5841071Y-4412500D01*
X5869643Y-4369643D01*
X5883928Y-4355357D01*
X5969643Y-4398214D02*
X6155357Y-4398214D01*
X6055357Y-4512500D01*
X6098214Y-4512500D01*
X6126786Y-4526786D01*
X6141071Y-4541072D01*
X6155357Y-4569643D01*
X6155357Y-4641072D01*
X6141071Y-4669643D01*
X6126786Y-4683929D01*
X6098214Y-4698214D01*
X6012500Y-4698214D01*
X5983928Y-4683929D01*
X5969643Y-4669643D01*
X6512500Y-4698214D02*
X6512500Y-4398214D01*
X6641071Y-4698214D02*
X6641071Y-4541072D01*
X6626786Y-4512500D01*
X6598214Y-4498214D01*
X6555357Y-4498214D01*
X6526786Y-4512500D01*
X6512500Y-4526786D01*
X6826786Y-4698214D02*
X6798214Y-4683929D01*
X6783928Y-4669643D01*
X6769643Y-4641072D01*
X6769643Y-4555357D01*
X6783928Y-4526786D01*
X6798214Y-4512500D01*
X6826786Y-4498214D01*
X6869643Y-4498214D01*
X6898214Y-4512500D01*
X6912500Y-4526786D01*
X6926786Y-4555357D01*
X6926786Y-4641072D01*
X6912500Y-4669643D01*
X6898214Y-4683929D01*
X6869643Y-4698214D01*
X6826786Y-4698214D01*
X7098214Y-4698214D02*
X7069643Y-4683929D01*
X7055357Y-4655357D01*
X7055357Y-4398214D01*
X7326786Y-4683929D02*
X7298214Y-4698214D01*
X7241071Y-4698214D01*
X7212500Y-4683929D01*
X7198214Y-4655357D01*
X7198214Y-4541072D01*
X7212500Y-4512500D01*
X7241071Y-4498214D01*
X7298214Y-4498214D01*
X7326786Y-4512500D01*
X7341071Y-4541072D01*
X7341071Y-4569643D01*
X7198214Y-4598214D01*
X7455357Y-4683929D02*
X7483928Y-4698214D01*
X7541071Y-4698214D01*
X7569643Y-4683929D01*
X7583928Y-4655357D01*
X7583928Y-4641072D01*
X7569643Y-4612500D01*
X7541071Y-4598214D01*
X7498214Y-4598214D01*
X7469643Y-4583929D01*
X7455357Y-4555357D01*
X7455357Y-4541072D01*
X7469643Y-4512500D01*
X7498214Y-4498214D01*
X7541071Y-4498214D01*
X7569643Y-4512500D01*
X7683928Y-4812500D02*
X7698214Y-4798214D01*
X7726786Y-4755357D01*
X7741071Y-4726786D01*
X7755357Y-4683929D01*
X7769643Y-4612500D01*
X7769643Y-4555357D01*
X7755357Y-4483929D01*
X7741071Y-4441072D01*
X7726786Y-4412500D01*
X7698214Y-4369643D01*
X7683928Y-4355357D01*
X1197500Y-4958500D02*
G75*
G03X1197500Y-4958500I-50000J0D01*
G01*
X1641071Y-5094214D02*
X1469643Y-5094214D01*
X1555357Y-5094214D02*
X1555357Y-4794214D01*
X1526786Y-4837072D01*
X1498214Y-4865643D01*
X1469643Y-4879929D01*
X1769643Y-5065643D02*
X1783928Y-5079929D01*
X1769643Y-5094214D01*
X1755357Y-5079929D01*
X1769643Y-5065643D01*
X1769643Y-5094214D01*
X1969643Y-4794214D02*
X1998214Y-4794214D01*
X2026786Y-4808500D01*
X2041071Y-4822786D01*
X2055357Y-4851357D01*
X2069643Y-4908500D01*
X2069643Y-4979929D01*
X2055357Y-5037072D01*
X2041071Y-5065643D01*
X2026786Y-5079929D01*
X1998214Y-5094214D01*
X1969643Y-5094214D01*
X1941071Y-5079929D01*
X1926786Y-5065643D01*
X1912500Y-5037072D01*
X1898214Y-4979929D01*
X1898214Y-4908500D01*
X1912500Y-4851357D01*
X1926786Y-4822786D01*
X1941071Y-4808500D01*
X1969643Y-4794214D01*
X2255357Y-4794214D02*
X2283928Y-4794214D01*
X2312500Y-4808500D01*
X2326786Y-4822786D01*
X2341071Y-4851357D01*
X2355357Y-4908500D01*
X2355357Y-4979929D01*
X2341071Y-5037072D01*
X2326786Y-5065643D01*
X2312500Y-5079929D01*
X2283928Y-5094214D01*
X2255357Y-5094214D01*
X2226786Y-5079929D01*
X2212500Y-5065643D01*
X2198214Y-5037072D01*
X2183928Y-4979929D01*
X2183928Y-4908500D01*
X2198214Y-4851357D01*
X2212500Y-4822786D01*
X2226786Y-4808500D01*
X2255357Y-4794214D01*
X2483928Y-5094214D02*
X2483928Y-4894214D01*
X2483928Y-4922786D02*
X2498214Y-4908500D01*
X2526786Y-4894214D01*
X2569643Y-4894214D01*
X2598214Y-4908500D01*
X2612500Y-4937072D01*
X2612500Y-5094214D01*
X2612500Y-4937072D02*
X2626786Y-4908500D01*
X2655357Y-4894214D01*
X2698214Y-4894214D01*
X2726786Y-4908500D01*
X2741071Y-4937072D01*
X2741071Y-5094214D01*
X2883928Y-5094214D02*
X2883928Y-4894214D01*
X2883928Y-4922786D02*
X2898214Y-4908500D01*
X2926786Y-4894214D01*
X2969643Y-4894214D01*
X2998214Y-4908500D01*
X3012500Y-4937072D01*
X3012500Y-5094214D01*
X3012500Y-4937072D02*
X3026786Y-4908500D01*
X3055357Y-4894214D01*
X3098214Y-4894214D01*
X3126786Y-4908500D01*
X3141071Y-4937072D01*
X3141071Y-5094214D01*
X3726786Y-4779929D02*
X3469643Y-5165643D01*
X4112500Y-4794214D02*
X4141071Y-4794214D01*
X4169643Y-4808500D01*
X4183928Y-4822786D01*
X4198214Y-4851357D01*
X4212500Y-4908500D01*
X4212500Y-4979929D01*
X4198214Y-5037072D01*
X4183928Y-5065643D01*
X4169643Y-5079929D01*
X4141071Y-5094214D01*
X4112500Y-5094214D01*
X4083928Y-5079929D01*
X4069643Y-5065643D01*
X4055357Y-5037072D01*
X4041071Y-4979929D01*
X4041071Y-4908500D01*
X4055357Y-4851357D01*
X4069643Y-4822786D01*
X4083928Y-4808500D01*
X4112500Y-4794214D01*
X4341071Y-5065643D02*
X4355357Y-5079929D01*
X4341071Y-5094214D01*
X4326786Y-5079929D01*
X4341071Y-5065643D01*
X4341071Y-5094214D01*
X4541071Y-4794214D02*
X4569643Y-4794214D01*
X4598214Y-4808500D01*
X4612500Y-4822786D01*
X4626786Y-4851357D01*
X4641071Y-4908500D01*
X4641071Y-4979929D01*
X4626786Y-5037072D01*
X4612500Y-5065643D01*
X4598214Y-5079929D01*
X4569643Y-5094214D01*
X4541071Y-5094214D01*
X4512500Y-5079929D01*
X4498214Y-5065643D01*
X4483928Y-5037072D01*
X4469643Y-4979929D01*
X4469643Y-4908500D01*
X4483928Y-4851357D01*
X4498214Y-4822786D01*
X4512500Y-4808500D01*
X4541071Y-4794214D01*
X4741071Y-4794214D02*
X4926786Y-4794214D01*
X4826786Y-4908500D01*
X4869643Y-4908500D01*
X4898214Y-4922786D01*
X4912500Y-4937072D01*
X4926786Y-4965643D01*
X4926786Y-5037072D01*
X4912500Y-5065643D01*
X4898214Y-5079929D01*
X4869643Y-5094214D01*
X4783928Y-5094214D01*
X4755357Y-5079929D01*
X4741071Y-5065643D01*
X5069643Y-5094214D02*
X5126786Y-5094214D01*
X5155357Y-5079929D01*
X5169643Y-5065643D01*
X5198214Y-5022786D01*
X5212500Y-4965643D01*
X5212500Y-4851357D01*
X5198214Y-4822786D01*
X5183928Y-4808500D01*
X5155357Y-4794214D01*
X5098214Y-4794214D01*
X5069643Y-4808500D01*
X5055357Y-4822786D01*
X5041071Y-4851357D01*
X5041071Y-4922786D01*
X5055357Y-4951357D01*
X5069643Y-4965643D01*
X5098214Y-4979929D01*
X5155357Y-4979929D01*
X5183928Y-4965643D01*
X5198214Y-4951357D01*
X5212500Y-4922786D01*
X5326786Y-4794214D02*
X5326786Y-4851357D01*
X5441071Y-4794214D02*
X5441071Y-4851357D01*
X5883928Y-5208500D02*
X5869643Y-5194214D01*
X5841071Y-5151357D01*
X5826786Y-5122786D01*
X5812500Y-5079929D01*
X5798214Y-5008500D01*
X5798214Y-4951357D01*
X5812500Y-4879929D01*
X5826786Y-4837072D01*
X5841071Y-4808500D01*
X5869643Y-4765643D01*
X5883928Y-4751357D01*
X5983928Y-4822786D02*
X5998214Y-4808500D01*
X6026786Y-4794214D01*
X6098214Y-4794214D01*
X6126786Y-4808500D01*
X6141071Y-4822786D01*
X6155357Y-4851357D01*
X6155357Y-4879929D01*
X6141071Y-4922786D01*
X5969643Y-5094214D01*
X6155357Y-5094214D01*
X6269643Y-4822786D02*
X6283928Y-4808500D01*
X6312500Y-4794214D01*
X6383928Y-4794214D01*
X6412500Y-4808500D01*
X6426786Y-4822786D01*
X6441071Y-4851357D01*
X6441071Y-4879929D01*
X6426786Y-4922786D01*
X6255357Y-5094214D01*
X6441071Y-5094214D01*
X6798214Y-5094214D02*
X6798214Y-4794214D01*
X6926786Y-5094214D02*
X6926786Y-4937072D01*
X6912500Y-4908500D01*
X6883928Y-4894214D01*
X6841071Y-4894214D01*
X6812500Y-4908500D01*
X6798214Y-4922786D01*
X7112500Y-5094214D02*
X7083928Y-5079929D01*
X7069643Y-5065643D01*
X7055357Y-5037072D01*
X7055357Y-4951357D01*
X7069643Y-4922786D01*
X7083928Y-4908500D01*
X7112500Y-4894214D01*
X7155357Y-4894214D01*
X7183928Y-4908500D01*
X7198214Y-4922786D01*
X7212500Y-4951357D01*
X7212500Y-5037072D01*
X7198214Y-5065643D01*
X7183928Y-5079929D01*
X7155357Y-5094214D01*
X7112500Y-5094214D01*
X7383928Y-5094214D02*
X7355357Y-5079929D01*
X7341071Y-5051357D01*
X7341071Y-4794214D01*
X7612500Y-5079929D02*
X7583928Y-5094214D01*
X7526786Y-5094214D01*
X7498214Y-5079929D01*
X7483928Y-5051357D01*
X7483928Y-4937072D01*
X7498214Y-4908500D01*
X7526786Y-4894214D01*
X7583928Y-4894214D01*
X7612500Y-4908500D01*
X7626786Y-4937072D01*
X7626786Y-4965643D01*
X7483928Y-4994214D01*
X7741071Y-5079929D02*
X7769643Y-5094214D01*
X7826786Y-5094214D01*
X7855357Y-5079929D01*
X7869643Y-5051357D01*
X7869643Y-5037072D01*
X7855357Y-5008500D01*
X7826786Y-4994214D01*
X7783928Y-4994214D01*
X7755357Y-4979929D01*
X7741071Y-4951357D01*
X7741071Y-4937072D01*
X7755357Y-4908500D01*
X7783928Y-4894214D01*
X7826786Y-4894214D01*
X7855357Y-4908500D01*
X7969643Y-5208500D02*
X7983928Y-5194214D01*
X8012500Y-5151357D01*
X8026786Y-5122786D01*
X8041071Y-5079929D01*
X8055357Y-5008500D01*
X8055357Y-4951357D01*
X8041071Y-4879929D01*
X8026786Y-4837072D01*
X8012500Y-4808500D01*
X7983928Y-4765643D01*
X7969643Y-4751357D01*
M02*
