M48
; DRILL file {KiCad (5.1.2-1)-1} date Friday, February 14, 2020 at 12:11:37 AM
; FORMAT={-:-/ absolute / metric / decimal}
; #@! TF.CreationDate,2020-02-14T00:11:37-08:00
; #@! TF.GenerationSoftware,Kicad,Pcbnew,(5.1.2-1)-1
FMAT,2
METRIC
T1C0.600
T2C1.000
%
G90
G05
T1
X23.31Y-24.9
X23.706Y-19.806
X24.5Y-27.4
T2
X15.76Y-15.8
X15.76Y-18.34
X15.76Y-20.88
X15.76Y-23.42
X15.76Y-25.96
X15.76Y-28.5
X15.76Y-31.04
X18.3Y-15.8
X18.3Y-18.34
X18.3Y-20.88
X18.3Y-23.42
X18.3Y-25.96
X18.3Y-28.5
X18.3Y-31.04
X27.3Y-14.72
X27.3Y-17.26
X27.3Y-19.8
X27.3Y-22.34
X27.3Y-24.88
X27.3Y-27.42
X27.3Y-29.96
X27.3Y-32.5
T0
M30
