G04 #@! TF.GenerationSoftware,KiCad,Pcbnew,(5.1.2-1)-1*
G04 #@! TF.CreationDate,2020-02-14T00:00:27-08:00*
G04 #@! TF.ProjectId,LCD,4c43442e-6b69-4636-9164-5f7063625858,rev?*
G04 #@! TF.SameCoordinates,Original*
G04 #@! TF.FileFunction,Copper,L2,Bot*
G04 #@! TF.FilePolarity,Positive*
%FSLAX46Y46*%
G04 Gerber Fmt 4.6, Leading zero omitted, Abs format (unit mm)*
G04 Created by KiCad (PCBNEW (5.1.2-1)-1) date 2020-02-14 00:00:27*
%MOMM*%
%LPD*%
G04 APERTURE LIST*
%ADD10O,1.700000X1.700000*%
%ADD11R,1.700000X1.700000*%
%ADD12C,0.800000*%
%ADD13C,0.254000*%
G04 APERTURE END LIST*
D10*
X35000000Y-53100000D03*
X35000000Y-50560000D03*
X35000000Y-48020000D03*
X35000000Y-45480000D03*
X35000000Y-42940000D03*
X35000000Y-40400000D03*
X35000000Y-37860000D03*
X35000000Y-35320000D03*
X35000000Y-32780000D03*
X35000000Y-30240000D03*
X35000000Y-27700000D03*
X35000000Y-25160000D03*
X35000000Y-22620000D03*
X35000000Y-20080000D03*
X35000000Y-17540000D03*
D11*
X35000000Y-15000000D03*
D10*
X17460000Y-47940000D03*
X20000000Y-47940000D03*
X17460000Y-45400000D03*
X20000000Y-45400000D03*
X17460000Y-42860000D03*
X20000000Y-42860000D03*
X17460000Y-40320000D03*
X20000000Y-40320000D03*
X17460000Y-37780000D03*
X20000000Y-37780000D03*
X17460000Y-35240000D03*
X20000000Y-35240000D03*
X17460000Y-32700000D03*
X20000000Y-32700000D03*
X17460000Y-30160000D03*
X20000000Y-30160000D03*
X17460000Y-27620000D03*
X20000000Y-27620000D03*
X17460000Y-25080000D03*
X20000000Y-25080000D03*
X17460000Y-22540000D03*
X20000000Y-22540000D03*
X17460000Y-20000000D03*
D11*
X20000000Y-20000000D03*
D12*
X32566600Y-17500000D03*
X31633200Y-20250000D03*
X30699800Y-22750000D03*
X29766400Y-25250000D03*
X28833000Y-26752342D03*
X28699800Y-40500000D03*
X29633200Y-43000000D03*
X30566600Y-45500000D03*
X31500000Y-47750000D03*
X32500000Y-50500000D03*
D13*
X33500000Y-16500000D02*
X35000000Y-15000000D01*
X33500000Y-34318366D02*
X33500000Y-16500000D01*
X19878366Y-47940000D02*
X33500000Y-34318366D01*
X17460000Y-47940000D02*
X19878366Y-47940000D01*
X18662081Y-45400000D02*
X18762081Y-45500000D01*
X17460000Y-45400000D02*
X18662081Y-45400000D01*
X18762081Y-45500000D02*
X21384406Y-45500000D01*
X32566600Y-34317806D02*
X32566600Y-17500000D01*
X21384406Y-45500000D02*
X32566600Y-34317806D01*
X17460000Y-42860000D02*
X20250000Y-42860000D01*
X20250000Y-42860000D02*
X23090446Y-42860000D01*
X31633200Y-34317246D02*
X31633200Y-20250000D01*
X23090446Y-42860000D02*
X31633200Y-34317246D01*
X17460000Y-40320000D02*
X24696486Y-40320000D01*
X30699800Y-34316686D02*
X30699800Y-22750000D01*
X24696486Y-40320000D02*
X30699800Y-34316686D01*
X17460000Y-37780000D02*
X25720000Y-37780000D01*
X29766400Y-33733600D02*
X29766400Y-25250000D01*
X25720000Y-37780000D02*
X29766400Y-33733600D01*
X17460000Y-35240000D02*
X27326040Y-35240000D01*
X28833000Y-33733040D02*
X28833000Y-26752342D01*
X27326040Y-35240000D02*
X28833000Y-33733040D01*
X28699800Y-40500000D02*
X35000000Y-40500000D01*
X35000000Y-40500000D02*
X35250000Y-40250000D01*
X29633200Y-43000000D02*
X34750000Y-43000000D01*
X34750000Y-43000000D02*
X35000000Y-42750000D01*
X30566600Y-45500000D02*
X35000000Y-45500000D01*
X34840000Y-48000000D02*
X31750000Y-48000000D01*
X31750000Y-48000000D02*
X31500000Y-47750000D01*
X34940000Y-48100000D02*
X34840000Y-48000000D01*
X34940000Y-50640000D02*
X34800000Y-50500000D01*
X33065685Y-50500000D02*
X32500000Y-50500000D01*
X34800000Y-50500000D02*
X33065685Y-50500000D01*
M02*
