M48
; DRILL file {KiCad (5.1.2-1)-1} date Friday, February 14, 2020 at 12:00:28 AM
; FORMAT={-:-/ absolute / metric / decimal}
; #@! TF.CreationDate,2020-02-14T00:00:28-08:00
; #@! TF.GenerationSoftware,Kicad,Pcbnew,(5.1.2-1)-1
FMAT,2
METRIC
T1C0.500
T2C1.000
%
G90
G05
T1
X28.7Y-40.5
X28.833Y-26.752
X29.633Y-43.0
X29.766Y-25.25
X30.567Y-45.5
X30.7Y-22.75
X31.5Y-47.75
X31.633Y-20.25
X32.5Y-50.5
X32.567Y-17.5
T2
X17.46Y-20.0
X17.46Y-22.54
X17.46Y-25.08
X17.46Y-27.62
X17.46Y-30.16
X17.46Y-32.7
X17.46Y-35.24
X17.46Y-37.78
X17.46Y-40.32
X17.46Y-42.86
X17.46Y-45.4
X17.46Y-47.94
X20.0Y-20.0
X20.0Y-22.54
X20.0Y-25.08
X20.0Y-27.62
X20.0Y-30.16
X20.0Y-32.7
X20.0Y-35.24
X20.0Y-37.78
X20.0Y-40.32
X20.0Y-42.86
X20.0Y-45.4
X20.0Y-47.94
X35.0Y-15.0
X35.0Y-17.54
X35.0Y-20.08
X35.0Y-22.62
X35.0Y-25.16
X35.0Y-27.7
X35.0Y-30.24
X35.0Y-32.78
X35.0Y-35.32
X35.0Y-37.86
X35.0Y-40.4
X35.0Y-42.94
X35.0Y-45.48
X35.0Y-48.02
X35.0Y-50.56
X35.0Y-53.1
T0
M30
