M48
; DRILL file {KiCad (5.1.2-1)-1} date Sunday, April 05, 2020 at 07:27:45 PM
; FORMAT={-:-/ absolute / metric / decimal}
; #@! TF.CreationDate,2020-04-05T19:27:45+05:30
; #@! TF.GenerationSoftware,Kicad,Pcbnew,(5.1.2-1)-1
FMAT,2
METRIC
T1C0.300
T2C0.400
T3C0.600
T4C0.762
T5C0.800
T6C0.920
T7C1.000
T8C1.016
T9C1.100
T10C1.320
T11C1.500
T12C2.200
T13C2.300
%
G90
G05
T1
X21.547Y-55.147
X22.647Y-54.047
X22.8Y-47.6
X24.1Y-52.8
X31.0Y-44.0
X31.0Y-45.0
X35.5Y-59.5
X36.0Y-58.5
X36.5Y-57.5
X44.0Y-31.0
X44.0Y-32.0
X54.0Y-58.5
X54.9Y-65.4
X57.0Y-59.5
X58.0Y-57.5
X90.1Y-61.0
X93.0Y-56.0
X93.01Y-51.99
X93.1Y-61.0
T2
X14.35Y-81.0
X14.833Y-79.833
X14.833Y-82.167
X16.0Y-79.35
X16.0Y-82.65
X17.167Y-79.833
X17.167Y-82.167
X17.65Y-81.0
X96.35Y-16.0
X96.833Y-14.833
X96.833Y-17.167
X98.0Y-14.35
X98.0Y-17.65
X99.167Y-14.833
X99.167Y-17.167
X99.65Y-16.0
X14.35Y-16.0
X14.833Y-14.833
X14.833Y-17.167
X16.0Y-14.35
X16.0Y-17.65
X17.167Y-14.833
X17.167Y-17.167
X17.65Y-16.0
X96.35Y-81.0
X96.833Y-79.833
X96.833Y-82.167
X98.0Y-79.35
X98.0Y-82.65
X99.167Y-79.833
X99.167Y-82.167
X99.65Y-81.0
T3
X57.0Y-13.0
X62.5Y-23.0
X84.1Y-56.3
T4
X34.0Y-31.0
X34.0Y-33.54
X34.0Y-48.78
X34.0Y-51.32
X36.54Y-31.0
X36.54Y-33.54
X36.54Y-48.78
X36.54Y-51.32
X56.86Y-27.19
X79.72Y-31.0
X79.72Y-33.54
X79.72Y-48.78
X79.72Y-51.32
T5
X65.38Y-14.38
X65.38Y-16.92
X65.38Y-19.46
X65.38Y-22.0
X73.0Y-14.38
X73.0Y-16.92
X73.0Y-19.46
X73.0Y-22.0
T6
X89.0Y-34.0
X89.0Y-36.5
X89.0Y-38.5
X89.0Y-41.0
T7
X96.9Y-58.96
X96.9Y-61.5
X99.44Y-58.96
X99.44Y-61.5
X97.0Y-47.0
X97.0Y-49.54
X97.0Y-52.08
X97.0Y-54.62
T8
X16.0Y-45.0
X16.0Y-47.54
X16.0Y-50.08
X16.0Y-52.62
X16.0Y-55.16
X16.0Y-57.7
X16.0Y-60.24
X16.0Y-62.78
X18.54Y-45.0
X18.54Y-47.54
X18.54Y-50.08
X18.54Y-52.62
X18.54Y-55.16
X18.54Y-57.7
X18.54Y-60.24
X18.54Y-62.78
T9
X63.0Y-60.92
X63.0Y-63.46
X63.0Y-66.0
T10
X93.0Y-67.0
X93.0Y-72.0
X32.0Y-19.0
X37.0Y-19.0
X19.0Y-32.0
X19.0Y-37.0
X44.0Y-19.0
X49.0Y-19.0
X19.0Y-71.0
X19.0Y-76.0
X19.0Y-20.75
X19.0Y-25.75
T12
X98.0Y-16.0
X16.0Y-16.0
X98.0Y-81.0
X16.0Y-81.0
T13
X91.71Y-30.93
X91.71Y-44.07
T4
G00X74.791Y-31.0
M15
G01X77.029Y-31.0
M16
G05
G00X74.791Y-33.54
M15
G01X77.029Y-33.54
M16
G05
G00X74.791Y-48.78
M15
G01X77.029Y-48.78
M16
G05
G00X74.791Y-51.32
M15
G01X77.029Y-51.32
M16
G05
T11
G00X55.75Y-63.5
M15
G01X58.25Y-63.5
M16
G05
T0
M30
