M48
; DRILL file {KiCad (5.99.0-1662-g9db296991)} date 05/23/20 19:33:25
; FORMAT={-:-/ absolute / inch / decimal}
; #@! TF.CreationDate,2020-05-23T19:33:25+05:30
; #@! TF.GenerationSoftware,Kicad,Pcbnew,(5.99.0-1662-g9db296991)
; #@! TF.FileFunction,Plated,1,2,PTH
FMAT,2
INCH
T1C0.0118
T2C0.0157
T3C0.0236
T4C0.0300
T5C0.0315
T6C0.0362
T7C0.0394
T8C0.0400
T9C0.0433
T10C0.0520
T11C0.0591
T12C0.0866
T13C0.0906
%
G90
G05
T1
X0.5515Y-2.0467
X0.5685Y-1.8492
X0.5697Y-1.7311
X0.5736Y-2.0285
X0.5928Y-2.0614
X0.6126Y-2.0827
X0.6133Y-1.9145
X0.6154Y-1.574
X0.6229Y-1.7307
X0.6335Y-2.1386
X0.6336Y-1.9463
X0.6515Y-1.731
X0.6546Y-2.118
X0.6551Y-1.9244
X0.6969Y-2.2639
X0.7965Y-2.3433
X1.328Y-2.1161
X1.3287Y-2.7067
X1.3287Y-1.9193
X1.3287Y-2.3126
X1.3287Y-2.5094
X1.3878Y-1.939
X1.3878Y-2.1358
X1.3878Y-2.3327
X1.3878Y-2.5295
X1.3878Y-2.7264
X1.6441Y-2.4453
X1.6441Y-2.039
X1.6675Y-2.3933
X1.6752Y-2.0965
X1.728Y-2.1992
X2.3401Y-2.3933
X2.5445Y-2.239
X2.5654Y-2.0965
X2.7756Y-1.9882
X2.8563Y-2.7543
X3.0748Y-1.9882
X3.5433Y-2.4016
X3.8189Y-1.9882
T2
X3.7933Y-3.189
X0.565Y-3.189
X0.584Y-3.143
X0.584Y-3.2349
X0.6299Y-3.124
X0.6299Y-3.2539
X0.6759Y-3.143
X0.6759Y-3.2349
X0.6949Y-3.189
X3.8123Y-3.143
X3.8123Y-3.2349
X3.8583Y-3.124
X0.565Y-0.6299
X0.584Y-0.584
X0.584Y-0.6759
X0.6299Y-0.565
X0.6299Y-0.6949
X3.8583Y-3.2539
X3.9042Y-3.143
X3.9042Y-3.2349
X3.9232Y-3.189
X0.6759Y-0.584
X0.6759Y-0.6759
X0.6949Y-0.6299
X3.7933Y-0.6299
X3.8123Y-0.584
X3.8123Y-0.6759
X3.8583Y-0.565
X3.8583Y-0.6949
X3.9042Y-0.584
X3.9042Y-0.6759
X3.9232Y-0.6299
T3
X1.2099Y-2.5945
X1.2106Y-2.0079
X1.2129Y-2.4014
X1.2134Y-2.206
X1.231Y-1.8097
X1.274Y-1.937
X1.274Y-2.1358
X1.274Y-2.3346
X1.274Y-2.5276
X1.2786Y-2.7251
X1.4252Y-2.5472
X1.4291Y-2.4626
X3.3268Y-2.0472
X3.4843Y-2.3228
X3.7795Y-1.2894
T4
X1.6929Y-1.1024
X1.6929Y-1.4567
X1.6929Y-1.811
X3.2677Y-1.1024
X3.2677Y-1.378
X3.2677Y-1.5354
X3.2677Y-1.811
T5
X3.3614Y-0.6646
X3.3614Y-0.7646
X3.3614Y-0.8646
X3.3614Y-0.9646
X3.6614Y-0.6646
X3.6614Y-0.7646
X3.6614Y-0.8646
X3.6614Y-0.9646
T6
X3.5039Y-1.3386
X3.5039Y-1.437
X3.5039Y-1.5157
X3.5039Y-1.6142
T7
X3.8583Y-1.926
X3.8583Y-2.026
X3.8583Y-2.126
X1.7764Y-2.2461
X1.7764Y-2.3461
X1.8764Y-2.2461
X1.8764Y-2.3461
X1.9764Y-2.2461
X1.9764Y-2.3461
X3.815Y-2.3213
X3.815Y-2.4213
X3.915Y-2.3213
X3.915Y-2.4213
T8
X1.1996Y-0.6098
X1.1996Y-0.7098
X1.2996Y-0.6098
X1.2996Y-0.7098
X1.3996Y-0.6098
X1.3996Y-0.7098
X1.4996Y-0.6098
X1.4996Y-0.7098
X1.5996Y-0.6098
X1.5996Y-0.7098
X1.6996Y-0.6098
X1.6996Y-0.7098
X1.7996Y-0.6098
X1.7996Y-0.7098
X1.8996Y-0.6098
X1.8996Y-0.7098
X0.6969Y-1.4539
X0.6969Y-1.5539
X0.6969Y-1.6539
X0.6969Y-1.7539
X0.6969Y-1.8539
X0.6969Y-1.9539
X0.6969Y-2.0539
X0.6969Y-2.1539
X0.7969Y-1.4539
X0.7969Y-1.5539
X0.7969Y-1.6539
X0.7969Y-1.7539
X0.7969Y-1.8539
X0.7969Y-1.9539
X0.7969Y-2.0539
X0.7969Y-2.1539
T9
X3.1102Y-2.5559
X3.1102Y-2.6559
X3.1102Y-2.7559
T10
X2.3524Y-0.7185
X2.5492Y-0.7185
X2.7461Y-0.7185
X2.9429Y-0.7185
X0.748Y-2.7953
X0.748Y-2.9921
X3.7795Y-2.6378
X3.7795Y-2.8346
T12
X3.8583Y-0.6299
X3.8583Y-3.189
X0.6299Y-3.189
X0.6299Y-0.6299
T13
X3.6106Y-1.2177
X3.6106Y-1.735
T11
G00X2.8543Y-2.6575
M15
G01X2.9528Y-2.6575
M16
G05
T0
M30
