G04 #@! TF.GenerationSoftware,KiCad,Pcbnew,(5.99.0-1662-g9db296991)*
G04 #@! TF.CreationDate,2020-05-23T19:33:28+05:30*
G04 #@! TF.ProjectId,Locker1,4c6f636b-6572-4312-9e6b-696361645f70,rev?*
G04 #@! TF.SameCoordinates,Original*
G04 #@! TF.FileFunction,Legend,Bot*
G04 #@! TF.FilePolarity,Positive*
%FSLAX46Y46*%
G04 Gerber Fmt 4.6, Leading zero omitted, Abs format (unit mm)*
G04 Created by KiCad (PCBNEW (5.99.0-1662-g9db296991)) date 2020-05-23 19:33:28*
%MOMM*%
%LPD*%
G01*
G04 APERTURE LIST*
%ADD10C,0.150000*%
%ADD11C,0.120000*%
G04 APERTURE END LIST*
D10*
X74416666Y-73952380D02*
X74750000Y-73476190D01*
X74988095Y-73952380D02*
X74988095Y-72952380D01*
X74607142Y-72952380D01*
X74511904Y-73000000D01*
X74464285Y-73047619D01*
X74416666Y-73142857D01*
X74416666Y-73285714D01*
X74464285Y-73380952D01*
X74511904Y-73428571D01*
X74607142Y-73476190D01*
X74988095Y-73476190D01*
X73464285Y-73952380D02*
X74035714Y-73952380D01*
X73750000Y-73952380D02*
X73750000Y-72952380D01*
X73845238Y-73095238D01*
X73940476Y-73190476D01*
X74035714Y-73238095D01*
X99142857Y-38952380D02*
X99476190Y-38476190D01*
X99714285Y-38952380D02*
X99714285Y-37952380D01*
X99333333Y-37952380D01*
X99238095Y-38000000D01*
X99190476Y-38047619D01*
X99142857Y-38142857D01*
X99142857Y-38285714D01*
X99190476Y-38380952D01*
X99238095Y-38428571D01*
X99333333Y-38476190D01*
X99714285Y-38476190D01*
X98190476Y-38952380D02*
X98761904Y-38952380D01*
X98476190Y-38952380D02*
X98476190Y-37952380D01*
X98571428Y-38095238D01*
X98666666Y-38190476D01*
X98761904Y-38238095D01*
X97571428Y-37952380D02*
X97476190Y-37952380D01*
X97380952Y-38000000D01*
X97333333Y-38047619D01*
X97285714Y-38142857D01*
X97238095Y-38333333D01*
X97238095Y-38571428D01*
X97285714Y-38761904D01*
X97333333Y-38857142D01*
X97380952Y-38904761D01*
X97476190Y-38952380D01*
X97571428Y-38952380D01*
X97666666Y-38904761D01*
X97714285Y-38857142D01*
X97761904Y-38761904D01*
X97809523Y-38571428D01*
X97809523Y-38333333D01*
X97761904Y-38142857D01*
X97714285Y-38047619D01*
X97666666Y-38000000D01*
X97571428Y-37952380D01*
X92241666Y-41052380D02*
X92575000Y-40576190D01*
X92813095Y-41052380D02*
X92813095Y-40052380D01*
X92432142Y-40052380D01*
X92336904Y-40100000D01*
X92289285Y-40147619D01*
X92241666Y-40242857D01*
X92241666Y-40385714D01*
X92289285Y-40480952D01*
X92336904Y-40528571D01*
X92432142Y-40576190D01*
X92813095Y-40576190D01*
X91765476Y-41052380D02*
X91575000Y-41052380D01*
X91479761Y-41004761D01*
X91432142Y-40957142D01*
X91336904Y-40814285D01*
X91289285Y-40623809D01*
X91289285Y-40242857D01*
X91336904Y-40147619D01*
X91384523Y-40100000D01*
X91479761Y-40052380D01*
X91670238Y-40052380D01*
X91765476Y-40100000D01*
X91813095Y-40147619D01*
X91860714Y-40242857D01*
X91860714Y-40480952D01*
X91813095Y-40576190D01*
X91765476Y-40623809D01*
X91670238Y-40671428D01*
X91479761Y-40671428D01*
X91384523Y-40623809D01*
X91336904Y-40576190D01*
X91289285Y-40480952D01*
X98166666Y-36952380D02*
X98500000Y-36476190D01*
X98738095Y-36952380D02*
X98738095Y-35952380D01*
X98357142Y-35952380D01*
X98261904Y-36000000D01*
X98214285Y-36047619D01*
X98166666Y-36142857D01*
X98166666Y-36285714D01*
X98214285Y-36380952D01*
X98261904Y-36428571D01*
X98357142Y-36476190D01*
X98738095Y-36476190D01*
X97595238Y-36380952D02*
X97690476Y-36333333D01*
X97738095Y-36285714D01*
X97785714Y-36190476D01*
X97785714Y-36142857D01*
X97738095Y-36047619D01*
X97690476Y-36000000D01*
X97595238Y-35952380D01*
X97404761Y-35952380D01*
X97309523Y-36000000D01*
X97261904Y-36047619D01*
X97214285Y-36142857D01*
X97214285Y-36190476D01*
X97261904Y-36285714D01*
X97309523Y-36333333D01*
X97404761Y-36380952D01*
X97595238Y-36380952D01*
X97690476Y-36428571D01*
X97738095Y-36476190D01*
X97785714Y-36571428D01*
X97785714Y-36761904D01*
X97738095Y-36857142D01*
X97690476Y-36904761D01*
X97595238Y-36952380D01*
X97404761Y-36952380D01*
X97309523Y-36904761D01*
X97261904Y-36857142D01*
X97214285Y-36761904D01*
X97214285Y-36571428D01*
X97261904Y-36476190D01*
X97309523Y-36428571D01*
X97404761Y-36380952D01*
X92191666Y-34802380D02*
X92525000Y-34326190D01*
X92763095Y-34802380D02*
X92763095Y-33802380D01*
X92382142Y-33802380D01*
X92286904Y-33850000D01*
X92239285Y-33897619D01*
X92191666Y-33992857D01*
X92191666Y-34135714D01*
X92239285Y-34230952D01*
X92286904Y-34278571D01*
X92382142Y-34326190D01*
X92763095Y-34326190D01*
X91858333Y-33802380D02*
X91191666Y-33802380D01*
X91620238Y-34802380D01*
X90916666Y-15452380D02*
X91250000Y-14976190D01*
X91488095Y-15452380D02*
X91488095Y-14452380D01*
X91107142Y-14452380D01*
X91011904Y-14500000D01*
X90964285Y-14547619D01*
X90916666Y-14642857D01*
X90916666Y-14785714D01*
X90964285Y-14880952D01*
X91011904Y-14928571D01*
X91107142Y-14976190D01*
X91488095Y-14976190D01*
X90059523Y-14452380D02*
X90250000Y-14452380D01*
X90345238Y-14500000D01*
X90392857Y-14547619D01*
X90488095Y-14690476D01*
X90535714Y-14880952D01*
X90535714Y-15261904D01*
X90488095Y-15357142D01*
X90440476Y-15404761D01*
X90345238Y-15452380D01*
X90154761Y-15452380D01*
X90059523Y-15404761D01*
X90011904Y-15357142D01*
X89964285Y-15261904D01*
X89964285Y-15023809D01*
X90011904Y-14928571D01*
X90059523Y-14880952D01*
X90154761Y-14833333D01*
X90345238Y-14833333D01*
X90440476Y-14880952D01*
X90488095Y-14928571D01*
X90535714Y-15023809D01*
X88988095Y-15452380D02*
X88988095Y-14452380D01*
X88750000Y-14452380D01*
X88607142Y-14500000D01*
X88511904Y-14595238D01*
X88464285Y-14690476D01*
X88416666Y-14880952D01*
X88416666Y-15023809D01*
X88464285Y-15214285D01*
X88511904Y-15309523D01*
X88607142Y-15404761D01*
X88750000Y-15452380D01*
X88988095Y-15452380D01*
X87511904Y-14452380D02*
X87988095Y-14452380D01*
X88035714Y-14928571D01*
X87988095Y-14880952D01*
X87892857Y-14833333D01*
X87654761Y-14833333D01*
X87559523Y-14880952D01*
X87511904Y-14928571D01*
X87464285Y-15023809D01*
X87464285Y-15261904D01*
X87511904Y-15357142D01*
X87559523Y-15404761D01*
X87654761Y-15452380D01*
X87892857Y-15452380D01*
X87988095Y-15404761D01*
X88035714Y-15357142D01*
X90166666Y-62952380D02*
X90500000Y-62476190D01*
X90738095Y-62952380D02*
X90738095Y-61952380D01*
X90357142Y-61952380D01*
X90261904Y-62000000D01*
X90214285Y-62047619D01*
X90166666Y-62142857D01*
X90166666Y-62285714D01*
X90214285Y-62380952D01*
X90261904Y-62428571D01*
X90357142Y-62476190D01*
X90738095Y-62476190D01*
X89261904Y-61952380D02*
X89738095Y-61952380D01*
X89785714Y-62428571D01*
X89738095Y-62380952D01*
X89642857Y-62333333D01*
X89404761Y-62333333D01*
X89309523Y-62380952D01*
X89261904Y-62428571D01*
X89214285Y-62523809D01*
X89214285Y-62761904D01*
X89261904Y-62857142D01*
X89309523Y-62904761D01*
X89404761Y-62952380D01*
X89642857Y-62952380D01*
X89738095Y-62904761D01*
X89785714Y-62857142D01*
X83166666Y-25857142D02*
X83214285Y-25904761D01*
X83357142Y-25952380D01*
X83452380Y-25952380D01*
X83595238Y-25904761D01*
X83690476Y-25809523D01*
X83738095Y-25714285D01*
X83785714Y-25523809D01*
X83785714Y-25380952D01*
X83738095Y-25190476D01*
X83690476Y-25095238D01*
X83595238Y-25000000D01*
X83452380Y-24952380D01*
X83357142Y-24952380D01*
X83214285Y-25000000D01*
X83166666Y-25047619D01*
X82833333Y-24952380D02*
X82166666Y-24952380D01*
X82595238Y-25952380D01*
D11*
X75110000Y-70713748D02*
X75110000Y-71236252D01*
X73690000Y-70713748D02*
X73690000Y-71236252D01*
X95286252Y-39210000D02*
X94763748Y-39210000D01*
X95286252Y-37790000D02*
X94763748Y-37790000D01*
X94788748Y-39890000D02*
X95311252Y-39890000D01*
X94788748Y-41310000D02*
X95311252Y-41310000D01*
X95286252Y-37210000D02*
X94763748Y-37210000D01*
X95286252Y-35790000D02*
X94763748Y-35790000D01*
X94738748Y-33640000D02*
X95261252Y-33640000D01*
X94738748Y-35060000D02*
X95261252Y-35060000D01*
X91460000Y-17263748D02*
X91460000Y-17786252D01*
X90040000Y-17263748D02*
X90040000Y-17786252D01*
X87500000Y-15800000D02*
X87500000Y-19650000D01*
X89500000Y-15800000D02*
X89500000Y-19650000D01*
X87500000Y-15800000D02*
X89500000Y-15800000D01*
X89290000Y-60236252D02*
X89290000Y-59713748D01*
X90710000Y-60236252D02*
X90710000Y-59713748D01*
X82140000Y-23286252D02*
X82140000Y-22763748D01*
X83560000Y-23286252D02*
X83560000Y-22763748D01*
M02*
