G04 #@! TF.GenerationSoftware,KiCad,Pcbnew,(5.99.0-1662-g9db296991)*
G04 #@! TF.CreationDate,2020-05-23T19:33:27+05:30*
G04 #@! TF.ProjectId,Locker1,4c6f636b-6572-4312-9e6b-696361645f70,rev?*
G04 #@! TF.SameCoordinates,Original*
G04 #@! TF.FileFunction,Paste,Bot*
G04 #@! TF.FilePolarity,Positive*
%FSLAX46Y46*%
G04 Gerber Fmt 4.6, Leading zero omitted, Abs format (unit mm)*
G04 Created by KiCad (PCBNEW (5.99.0-1662-g9db296991)) date 2020-05-23 19:33:27*
%MOMM*%
%LPD*%
G01*
G04 APERTURE LIST*
%ADD10R,1.100000X1.100000*%
G04 APERTURE END LIST*
G36*
G01*
X73949999Y-71425000D02*
X74850001Y-71425000D01*
G75*
G02*
X75100000Y-71674999I0J-249999D01*
G01*
X75100000Y-72325001D01*
G75*
G02*
X74850001Y-72575000I-249999J0D01*
G01*
X73949999Y-72575000D01*
G75*
G02*
X73700000Y-72325001I0J249999D01*
G01*
X73700000Y-71674999D01*
G75*
G02*
X73949999Y-71425000I249999J0D01*
G01*
G37*
G36*
G01*
X73949999Y-69375000D02*
X74850001Y-69375000D01*
G75*
G02*
X75100000Y-69624999I0J-249999D01*
G01*
X75100000Y-70275001D01*
G75*
G02*
X74850001Y-70525000I-249999J0D01*
G01*
X73949999Y-70525000D01*
G75*
G02*
X73700000Y-70275001I0J249999D01*
G01*
X73700000Y-69624999D01*
G75*
G02*
X73949999Y-69375000I249999J0D01*
G01*
G37*
G36*
G01*
X94575000Y-38049999D02*
X94575000Y-38950001D01*
G75*
G02*
X94325001Y-39200000I-249999J0D01*
G01*
X93674999Y-39200000D01*
G75*
G02*
X93425000Y-38950001I0J249999D01*
G01*
X93425000Y-38049999D01*
G75*
G02*
X93674999Y-37800000I249999J0D01*
G01*
X94325001Y-37800000D01*
G75*
G02*
X94575000Y-38049999I0J-249999D01*
G01*
G37*
G36*
G01*
X96625000Y-38049999D02*
X96625000Y-38950001D01*
G75*
G02*
X96375001Y-39200000I-249999J0D01*
G01*
X95724999Y-39200000D01*
G75*
G02*
X95475000Y-38950001I0J249999D01*
G01*
X95475000Y-38049999D01*
G75*
G02*
X95724999Y-37800000I249999J0D01*
G01*
X96375001Y-37800000D01*
G75*
G02*
X96625000Y-38049999I0J-249999D01*
G01*
G37*
G36*
G01*
X95500000Y-41050001D02*
X95500000Y-40149999D01*
G75*
G02*
X95749999Y-39900000I249999J0D01*
G01*
X96400001Y-39900000D01*
G75*
G02*
X96650000Y-40149999I0J-249999D01*
G01*
X96650000Y-41050001D01*
G75*
G02*
X96400001Y-41300000I-249999J0D01*
G01*
X95749999Y-41300000D01*
G75*
G02*
X95500000Y-41050001I0J249999D01*
G01*
G37*
G36*
G01*
X93450000Y-41050001D02*
X93450000Y-40149999D01*
G75*
G02*
X93699999Y-39900000I249999J0D01*
G01*
X94350001Y-39900000D01*
G75*
G02*
X94600000Y-40149999I0J-249999D01*
G01*
X94600000Y-41050001D01*
G75*
G02*
X94350001Y-41300000I-249999J0D01*
G01*
X93699999Y-41300000D01*
G75*
G02*
X93450000Y-41050001I0J249999D01*
G01*
G37*
G36*
G01*
X94575000Y-36049999D02*
X94575000Y-36950001D01*
G75*
G02*
X94325001Y-37200000I-249999J0D01*
G01*
X93674999Y-37200000D01*
G75*
G02*
X93425000Y-36950001I0J249999D01*
G01*
X93425000Y-36049999D01*
G75*
G02*
X93674999Y-35800000I249999J0D01*
G01*
X94325001Y-35800000D01*
G75*
G02*
X94575000Y-36049999I0J-249999D01*
G01*
G37*
G36*
G01*
X96625000Y-36049999D02*
X96625000Y-36950001D01*
G75*
G02*
X96375001Y-37200000I-249999J0D01*
G01*
X95724999Y-37200000D01*
G75*
G02*
X95475000Y-36950001I0J249999D01*
G01*
X95475000Y-36049999D01*
G75*
G02*
X95724999Y-35800000I249999J0D01*
G01*
X96375001Y-35800000D01*
G75*
G02*
X96625000Y-36049999I0J-249999D01*
G01*
G37*
G36*
G01*
X95450000Y-34800001D02*
X95450000Y-33899999D01*
G75*
G02*
X95699999Y-33650000I249999J0D01*
G01*
X96350001Y-33650000D01*
G75*
G02*
X96600000Y-33899999I0J-249999D01*
G01*
X96600000Y-34800001D01*
G75*
G02*
X96350001Y-35050000I-249999J0D01*
G01*
X95699999Y-35050000D01*
G75*
G02*
X95450000Y-34800001I0J249999D01*
G01*
G37*
G36*
G01*
X93400000Y-34800001D02*
X93400000Y-33899999D01*
G75*
G02*
X93649999Y-33650000I249999J0D01*
G01*
X94300001Y-33650000D01*
G75*
G02*
X94550000Y-33899999I0J-249999D01*
G01*
X94550000Y-34800001D01*
G75*
G02*
X94300001Y-35050000I-249999J0D01*
G01*
X93649999Y-35050000D01*
G75*
G02*
X93400000Y-34800001I0J249999D01*
G01*
G37*
G36*
G01*
X90299999Y-17975000D02*
X91200001Y-17975000D01*
G75*
G02*
X91450000Y-18224999I0J-249999D01*
G01*
X91450000Y-18875001D01*
G75*
G02*
X91200001Y-19125000I-249999J0D01*
G01*
X90299999Y-19125000D01*
G75*
G02*
X90050000Y-18875001I0J249999D01*
G01*
X90050000Y-18224999D01*
G75*
G02*
X90299999Y-17975000I249999J0D01*
G01*
G37*
G36*
G01*
X90299999Y-15925000D02*
X91200001Y-15925000D01*
G75*
G02*
X91450000Y-16174999I0J-249999D01*
G01*
X91450000Y-16825001D01*
G75*
G02*
X91200001Y-17075000I-249999J0D01*
G01*
X90299999Y-17075000D01*
G75*
G02*
X90050000Y-16825001I0J249999D01*
G01*
X90050000Y-16174999D01*
G75*
G02*
X90299999Y-15925000I249999J0D01*
G01*
G37*
D10*
X88500000Y-19400000D03*
X88500000Y-16600000D03*
G36*
G01*
X90450001Y-59525000D02*
X89549999Y-59525000D01*
G75*
G02*
X89300000Y-59275001I0J249999D01*
G01*
X89300000Y-58624999D01*
G75*
G02*
X89549999Y-58375000I249999J0D01*
G01*
X90450001Y-58375000D01*
G75*
G02*
X90700000Y-58624999I0J-249999D01*
G01*
X90700000Y-59275001D01*
G75*
G02*
X90450001Y-59525000I-249999J0D01*
G01*
G37*
G36*
G01*
X90450001Y-61575000D02*
X89549999Y-61575000D01*
G75*
G02*
X89300000Y-61325001I0J249999D01*
G01*
X89300000Y-60674999D01*
G75*
G02*
X89549999Y-60425000I249999J0D01*
G01*
X90450001Y-60425000D01*
G75*
G02*
X90700000Y-60674999I0J-249999D01*
G01*
X90700000Y-61325001D01*
G75*
G02*
X90450001Y-61575000I-249999J0D01*
G01*
G37*
G36*
G01*
X83300001Y-22575000D02*
X82399999Y-22575000D01*
G75*
G02*
X82150000Y-22325001I0J249999D01*
G01*
X82150000Y-21674999D01*
G75*
G02*
X82399999Y-21425000I249999J0D01*
G01*
X83300001Y-21425000D01*
G75*
G02*
X83550000Y-21674999I0J-249999D01*
G01*
X83550000Y-22325001D01*
G75*
G02*
X83300001Y-22575000I-249999J0D01*
G01*
G37*
G36*
G01*
X83300001Y-24625000D02*
X82399999Y-24625000D01*
G75*
G02*
X82150000Y-24375001I0J249999D01*
G01*
X82150000Y-23724999D01*
G75*
G02*
X82399999Y-23475000I249999J0D01*
G01*
X83300001Y-23475000D01*
G75*
G02*
X83550000Y-23724999I0J-249999D01*
G01*
X83550000Y-24375001D01*
G75*
G02*
X83300001Y-24625000I-249999J0D01*
G01*
G37*
M02*
