G04 #@! TF.GenerationSoftware,KiCad,Pcbnew,(5.99.0-1662-g9db296991)*
G04 #@! TF.CreationDate,2020-05-23T19:33:29+05:30*
G04 #@! TF.ProjectId,Locker1,4c6f636b-6572-4312-9e6b-696361645f70,rev?*
G04 #@! TF.SameCoordinates,Original*
G04 #@! TF.FileFunction,Soldermask,Bot*
G04 #@! TF.FilePolarity,Negative*
%FSLAX46Y46*%
G04 Gerber Fmt 4.6, Leading zero omitted, Abs format (unit mm)*
G04 Created by KiCad (PCBNEW (5.99.0-1662-g9db296991)) date 2020-05-23 19:33:29*
%MOMM*%
%LPD*%
G01*
G04 APERTURE LIST*
%ADD10O,1.802000X1.802000*%
%ADD11O,1.702000X1.702000*%
%ADD12C,1.626000*%
%ADD13C,3.102000*%
%ADD14O,5.102000X2.602000*%
%ADD15C,1.702000*%
%ADD16O,2.082000X4.062000*%
%ADD17O,1.829200X1.829200*%
%ADD18O,4.062000X2.082000*%
%ADD19C,4.502000*%
%ADD20C,0.802000*%
%ADD21O,2.102000X2.007000*%
G04 APERTURE END LIST*
D10*
X45120000Y-59590000D03*
X45120000Y-57050000D03*
X47660000Y-59590000D03*
X47660000Y-57050000D03*
X50200000Y-59590000D03*
G36*
G01*
X49350000Y-56149000D02*
X51050000Y-56149000D01*
G75*
G02*
X51101000Y-56200000I0J-51000D01*
G01*
X51101000Y-57900000D01*
G75*
G02*
X51050000Y-57951000I-51000J0D01*
G01*
X49350000Y-57951000D01*
G75*
G02*
X49299000Y-57900000I0J51000D01*
G01*
X49299000Y-56200000D01*
G75*
G02*
X49350000Y-56149000I51000J0D01*
G01*
G37*
D11*
X85380000Y-24500000D03*
X93000000Y-16880000D03*
X85380000Y-21960000D03*
X93000000Y-19420000D03*
X85380000Y-19420000D03*
X93000000Y-21960000D03*
X85380000Y-16880000D03*
G36*
G01*
X93851000Y-23700000D02*
X93851000Y-25300000D01*
G75*
G02*
X93800000Y-25351000I-51000J0D01*
G01*
X92200000Y-25351000D01*
G75*
G02*
X92149000Y-25300000I0J51000D01*
G01*
X92149000Y-23700000D01*
G75*
G02*
X92200000Y-23649000I51000J0D01*
G01*
X93800000Y-23649000D01*
G75*
G02*
X93851000Y-23700000I0J-51000D01*
G01*
G37*
D12*
X43000000Y-28000000D03*
X43000000Y-46000000D03*
D13*
X48000000Y-29000000D03*
D12*
X43000000Y-37000000D03*
X83000000Y-46000000D03*
D13*
X78000000Y-45000000D03*
D12*
X83000000Y-35000000D03*
X83000000Y-28000000D03*
X83000000Y-39000000D03*
D14*
X73750000Y-67500000D03*
D15*
X89000000Y-34000000D03*
X89000000Y-36500000D03*
X89000000Y-38500000D03*
G36*
G01*
X89800000Y-41851000D02*
X88200000Y-41851000D01*
G75*
G02*
X88149000Y-41800000I0J51000D01*
G01*
X88149000Y-40200000D01*
G75*
G02*
X88200000Y-40149000I51000J0D01*
G01*
X89800000Y-40149000D01*
G75*
G02*
X89851000Y-40200000I0J-51000D01*
G01*
X89851000Y-41800000D01*
G75*
G02*
X89800000Y-41851000I-51000J0D01*
G01*
G37*
D13*
X91710000Y-44070000D03*
X91710000Y-30930000D03*
D16*
X64750000Y-18250000D03*
X59750000Y-18250000D03*
X69750000Y-18250000D03*
G36*
G01*
X75791000Y-16270000D02*
X75791000Y-20230000D01*
G75*
G02*
X75740000Y-20281000I-51000J0D01*
G01*
X73760000Y-20281000D01*
G75*
G02*
X73709000Y-20230000I0J51000D01*
G01*
X73709000Y-16270000D01*
G75*
G02*
X73760000Y-16219000I51000J0D01*
G01*
X75740000Y-16219000D01*
G75*
G02*
X75791000Y-16270000I0J-51000D01*
G01*
G37*
G36*
G01*
X16785400Y-37793600D02*
X16785400Y-36066400D01*
G75*
G02*
X16836400Y-36015400I51000J0D01*
G01*
X18563600Y-36015400D01*
G75*
G02*
X18614600Y-36066400I0J-51000D01*
G01*
X18614600Y-37793600D01*
G75*
G02*
X18563600Y-37844600I-51000J0D01*
G01*
X16836400Y-37844600D01*
G75*
G02*
X16785400Y-37793600I0J51000D01*
G01*
G37*
D17*
X20240000Y-36930000D03*
X17700000Y-39470000D03*
X20240000Y-39470000D03*
X17700000Y-42010000D03*
X20240000Y-42010000D03*
X17700000Y-44550000D03*
X20240000Y-44550000D03*
X17700000Y-47090000D03*
X20240000Y-47090000D03*
X17700000Y-49630000D03*
X20240000Y-49630000D03*
X17700000Y-52170000D03*
X20240000Y-52170000D03*
X17700000Y-54710000D03*
X20240000Y-54710000D03*
D10*
X98000000Y-48920000D03*
X98000000Y-51460000D03*
G36*
G01*
X98901000Y-53150000D02*
X98901000Y-54850000D01*
G75*
G02*
X98850000Y-54901000I-51000J0D01*
G01*
X97150000Y-54901000D01*
G75*
G02*
X97099000Y-54850000I0J51000D01*
G01*
X97099000Y-53150000D01*
G75*
G02*
X97150000Y-53099000I51000J0D01*
G01*
X98850000Y-53099000D01*
G75*
G02*
X98901000Y-53150000I0J-51000D01*
G01*
G37*
G36*
G01*
X31333600Y-18944600D02*
X29606400Y-18944600D01*
G75*
G02*
X29555400Y-18893600I0J51000D01*
G01*
X29555400Y-17166400D01*
G75*
G02*
X29606400Y-17115400I51000J0D01*
G01*
X31333600Y-17115400D01*
G75*
G02*
X31384600Y-17166400I0J-51000D01*
G01*
X31384600Y-18893600D01*
G75*
G02*
X31333600Y-18944600I-51000J0D01*
G01*
G37*
D17*
X30470000Y-15490000D03*
X33010000Y-18030000D03*
X33010000Y-15490000D03*
X35550000Y-18030000D03*
X35550000Y-15490000D03*
X38090000Y-18030000D03*
X38090000Y-15490000D03*
X40630000Y-18030000D03*
X40630000Y-15490000D03*
X43170000Y-18030000D03*
X43170000Y-15490000D03*
X45710000Y-18030000D03*
X45710000Y-15490000D03*
X48250000Y-18030000D03*
X48250000Y-15490000D03*
D18*
X96000000Y-67000000D03*
G36*
G01*
X97980000Y-73041000D02*
X94020000Y-73041000D01*
G75*
G02*
X93969000Y-72990000I0J51000D01*
G01*
X93969000Y-71010000D01*
G75*
G02*
X94020000Y-70959000I51000J0D01*
G01*
X97980000Y-70959000D01*
G75*
G02*
X98031000Y-71010000I0J-51000D01*
G01*
X98031000Y-72990000D01*
G75*
G02*
X97980000Y-73041000I-51000J0D01*
G01*
G37*
X19000000Y-76000000D03*
G36*
G01*
X17020000Y-69959000D02*
X20980000Y-69959000D01*
G75*
G02*
X21031000Y-70010000I0J-51000D01*
G01*
X21031000Y-71990000D01*
G75*
G02*
X20980000Y-72041000I-51000J0D01*
G01*
X17020000Y-72041000D01*
G75*
G02*
X16969000Y-71990000I0J51000D01*
G01*
X16969000Y-70010000D01*
G75*
G02*
X17020000Y-69959000I51000J0D01*
G01*
G37*
G36*
G01*
X73921172Y-71374000D02*
X74878828Y-71374000D01*
G75*
G02*
X75151000Y-71646172I0J-272172D01*
G01*
X75151000Y-72353828D01*
G75*
G02*
X74878828Y-72626000I-272172J0D01*
G01*
X73921172Y-72626000D01*
G75*
G02*
X73649000Y-72353828I0J272172D01*
G01*
X73649000Y-71646172D01*
G75*
G02*
X73921172Y-71374000I272172J0D01*
G01*
G37*
G36*
G01*
X73921172Y-69324000D02*
X74878828Y-69324000D01*
G75*
G02*
X75151000Y-69596172I0J-272172D01*
G01*
X75151000Y-70303828D01*
G75*
G02*
X74878828Y-70576000I-272172J0D01*
G01*
X73921172Y-70576000D01*
G75*
G02*
X73649000Y-70303828I0J272172D01*
G01*
X73649000Y-69596172D01*
G75*
G02*
X73921172Y-69324000I272172J0D01*
G01*
G37*
G36*
G01*
X94626000Y-38021172D02*
X94626000Y-38978828D01*
G75*
G02*
X94353828Y-39251000I-272172J0D01*
G01*
X93646172Y-39251000D01*
G75*
G02*
X93374000Y-38978828I0J272172D01*
G01*
X93374000Y-38021172D01*
G75*
G02*
X93646172Y-37749000I272172J0D01*
G01*
X94353828Y-37749000D01*
G75*
G02*
X94626000Y-38021172I0J-272172D01*
G01*
G37*
G36*
G01*
X96676000Y-38021172D02*
X96676000Y-38978828D01*
G75*
G02*
X96403828Y-39251000I-272172J0D01*
G01*
X95696172Y-39251000D01*
G75*
G02*
X95424000Y-38978828I0J272172D01*
G01*
X95424000Y-38021172D01*
G75*
G02*
X95696172Y-37749000I272172J0D01*
G01*
X96403828Y-37749000D01*
G75*
G02*
X96676000Y-38021172I0J-272172D01*
G01*
G37*
G36*
G01*
X95449000Y-41078828D02*
X95449000Y-40121172D01*
G75*
G02*
X95721172Y-39849000I272172J0D01*
G01*
X96428828Y-39849000D01*
G75*
G02*
X96701000Y-40121172I0J-272172D01*
G01*
X96701000Y-41078828D01*
G75*
G02*
X96428828Y-41351000I-272172J0D01*
G01*
X95721172Y-41351000D01*
G75*
G02*
X95449000Y-41078828I0J272172D01*
G01*
G37*
G36*
G01*
X93399000Y-41078828D02*
X93399000Y-40121172D01*
G75*
G02*
X93671172Y-39849000I272172J0D01*
G01*
X94378828Y-39849000D01*
G75*
G02*
X94651000Y-40121172I0J-272172D01*
G01*
X94651000Y-41078828D01*
G75*
G02*
X94378828Y-41351000I-272172J0D01*
G01*
X93671172Y-41351000D01*
G75*
G02*
X93399000Y-41078828I0J272172D01*
G01*
G37*
G36*
G01*
X94626000Y-36021172D02*
X94626000Y-36978828D01*
G75*
G02*
X94353828Y-37251000I-272172J0D01*
G01*
X93646172Y-37251000D01*
G75*
G02*
X93374000Y-36978828I0J272172D01*
G01*
X93374000Y-36021172D01*
G75*
G02*
X93646172Y-35749000I272172J0D01*
G01*
X94353828Y-35749000D01*
G75*
G02*
X94626000Y-36021172I0J-272172D01*
G01*
G37*
G36*
G01*
X96676000Y-36021172D02*
X96676000Y-36978828D01*
G75*
G02*
X96403828Y-37251000I-272172J0D01*
G01*
X95696172Y-37251000D01*
G75*
G02*
X95424000Y-36978828I0J272172D01*
G01*
X95424000Y-36021172D01*
G75*
G02*
X95696172Y-35749000I272172J0D01*
G01*
X96403828Y-35749000D01*
G75*
G02*
X96676000Y-36021172I0J-272172D01*
G01*
G37*
G36*
G01*
X95399000Y-34828828D02*
X95399000Y-33871172D01*
G75*
G02*
X95671172Y-33599000I272172J0D01*
G01*
X96378828Y-33599000D01*
G75*
G02*
X96651000Y-33871172I0J-272172D01*
G01*
X96651000Y-34828828D01*
G75*
G02*
X96378828Y-35101000I-272172J0D01*
G01*
X95671172Y-35101000D01*
G75*
G02*
X95399000Y-34828828I0J272172D01*
G01*
G37*
G36*
G01*
X93349000Y-34828828D02*
X93349000Y-33871172D01*
G75*
G02*
X93621172Y-33599000I272172J0D01*
G01*
X94328828Y-33599000D01*
G75*
G02*
X94601000Y-33871172I0J-272172D01*
G01*
X94601000Y-34828828D01*
G75*
G02*
X94328828Y-35101000I-272172J0D01*
G01*
X93621172Y-35101000D01*
G75*
G02*
X93349000Y-34828828I0J272172D01*
G01*
G37*
D10*
X99440000Y-58960000D03*
X99440000Y-61500000D03*
X96900000Y-58960000D03*
G36*
G01*
X97750000Y-62401000D02*
X96050000Y-62401000D01*
G75*
G02*
X95999000Y-62350000I0J51000D01*
G01*
X95999000Y-60650000D01*
G75*
G02*
X96050000Y-60599000I51000J0D01*
G01*
X97750000Y-60599000D01*
G75*
G02*
X97801000Y-60650000I0J-51000D01*
G01*
X97801000Y-62350000D01*
G75*
G02*
X97750000Y-62401000I-51000J0D01*
G01*
G37*
G36*
G01*
X90271172Y-17924000D02*
X91228828Y-17924000D01*
G75*
G02*
X91501000Y-18196172I0J-272172D01*
G01*
X91501000Y-18903828D01*
G75*
G02*
X91228828Y-19176000I-272172J0D01*
G01*
X90271172Y-19176000D01*
G75*
G02*
X89999000Y-18903828I0J272172D01*
G01*
X89999000Y-18196172D01*
G75*
G02*
X90271172Y-17924000I272172J0D01*
G01*
G37*
G36*
G01*
X90271172Y-15874000D02*
X91228828Y-15874000D01*
G75*
G02*
X91501000Y-16146172I0J-272172D01*
G01*
X91501000Y-16853828D01*
G75*
G02*
X91228828Y-17126000I-272172J0D01*
G01*
X90271172Y-17126000D01*
G75*
G02*
X89999000Y-16853828I0J272172D01*
G01*
X89999000Y-16146172D01*
G75*
G02*
X90271172Y-15874000I272172J0D01*
G01*
G37*
G36*
G01*
X87950000Y-18799000D02*
X89050000Y-18799000D01*
G75*
G02*
X89101000Y-18850000I0J-51000D01*
G01*
X89101000Y-19950000D01*
G75*
G02*
X89050000Y-20001000I-51000J0D01*
G01*
X87950000Y-20001000D01*
G75*
G02*
X87899000Y-19950000I0J51000D01*
G01*
X87899000Y-18850000D01*
G75*
G02*
X87950000Y-18799000I51000J0D01*
G01*
G37*
G36*
G01*
X87950000Y-15999000D02*
X89050000Y-15999000D01*
G75*
G02*
X89101000Y-16050000I0J-51000D01*
G01*
X89101000Y-17150000D01*
G75*
G02*
X89050000Y-17201000I-51000J0D01*
G01*
X87950000Y-17201000D01*
G75*
G02*
X87899000Y-17150000I0J51000D01*
G01*
X87899000Y-16050000D01*
G75*
G02*
X87950000Y-15999000I51000J0D01*
G01*
G37*
D19*
X98000000Y-16000000D03*
D20*
X99650000Y-16000000D03*
X99166726Y-17166726D03*
X98000000Y-17650000D03*
X96833274Y-17166726D03*
X96350000Y-16000000D03*
X96833274Y-14833274D03*
X98000000Y-14350000D03*
X99166726Y-14833274D03*
D19*
X16000000Y-81000000D03*
D20*
X17650000Y-81000000D03*
X17166726Y-82166726D03*
X16000000Y-82650000D03*
X14833274Y-82166726D03*
X14350000Y-81000000D03*
X14833274Y-79833274D03*
X16000000Y-79350000D03*
X17166726Y-79833274D03*
D19*
X98000000Y-81000000D03*
D20*
X99650000Y-81000000D03*
X99166726Y-82166726D03*
X98000000Y-82650000D03*
X96833274Y-82166726D03*
X96350000Y-81000000D03*
X96833274Y-79833274D03*
X98000000Y-79350000D03*
X99166726Y-79833274D03*
D19*
X16000000Y-16000000D03*
D20*
X17650000Y-16000000D03*
X17166726Y-17166726D03*
X16000000Y-17650000D03*
X14833274Y-17166726D03*
X14350000Y-16000000D03*
X14833274Y-14833274D03*
X16000000Y-14350000D03*
X17166726Y-14833274D03*
G36*
G01*
X90478828Y-59576000D02*
X89521172Y-59576000D01*
G75*
G02*
X89249000Y-59303828I0J272172D01*
G01*
X89249000Y-58596172D01*
G75*
G02*
X89521172Y-58324000I272172J0D01*
G01*
X90478828Y-58324000D01*
G75*
G02*
X90751000Y-58596172I0J-272172D01*
G01*
X90751000Y-59303828D01*
G75*
G02*
X90478828Y-59576000I-272172J0D01*
G01*
G37*
G36*
G01*
X90478828Y-61626000D02*
X89521172Y-61626000D01*
G75*
G02*
X89249000Y-61353828I0J272172D01*
G01*
X89249000Y-60646172D01*
G75*
G02*
X89521172Y-60374000I272172J0D01*
G01*
X90478828Y-60374000D01*
G75*
G02*
X90751000Y-60646172I0J-272172D01*
G01*
X90751000Y-61353828D01*
G75*
G02*
X90478828Y-61626000I-272172J0D01*
G01*
G37*
D21*
X79000000Y-64920000D03*
X79000000Y-67460000D03*
G36*
G01*
X80000000Y-71003500D02*
X78000000Y-71003500D01*
G75*
G02*
X77949000Y-70952500I0J51000D01*
G01*
X77949000Y-69047500D01*
G75*
G02*
X78000000Y-68996500I51000J0D01*
G01*
X80000000Y-68996500D01*
G75*
G02*
X80051000Y-69047500I0J-51000D01*
G01*
X80051000Y-70952500D01*
G75*
G02*
X80000000Y-71003500I-51000J0D01*
G01*
G37*
G36*
G01*
X83328828Y-22626000D02*
X82371172Y-22626000D01*
G75*
G02*
X82099000Y-22353828I0J272172D01*
G01*
X82099000Y-21646172D01*
G75*
G02*
X82371172Y-21374000I272172J0D01*
G01*
X83328828Y-21374000D01*
G75*
G02*
X83601000Y-21646172I0J-272172D01*
G01*
X83601000Y-22353828D01*
G75*
G02*
X83328828Y-22626000I-272172J0D01*
G01*
G37*
G36*
G01*
X83328828Y-24676000D02*
X82371172Y-24676000D01*
G75*
G02*
X82099000Y-24403828I0J272172D01*
G01*
X82099000Y-23696172D01*
G75*
G02*
X82371172Y-23424000I272172J0D01*
G01*
X83328828Y-23424000D01*
G75*
G02*
X83601000Y-23696172I0J-272172D01*
G01*
X83601000Y-24403828D01*
G75*
G02*
X83328828Y-24676000I-272172J0D01*
G01*
G37*
M02*
