G04 #@! TF.GenerationSoftware,KiCad,Pcbnew,(5.99.0-1662-g9db296991)*
G04 #@! TF.CreationDate,2020-05-30T17:55:15+05:30*
G04 #@! TF.ProjectId,UI,55492e6b-6963-4616-945f-706362585858,rev?*
G04 #@! TF.SameCoordinates,Original*
G04 #@! TF.FileFunction,Soldermask,Bot*
G04 #@! TF.FilePolarity,Negative*
%FSLAX46Y46*%
G04 Gerber Fmt 4.6, Leading zero omitted, Abs format (unit mm)*
G04 Created by KiCad (PCBNEW (5.99.0-1662-g9db296991)) date 2020-05-30 17:55:15*
%MOMM*%
%LPD*%
G01*
G04 APERTURE LIST*
%ADD10O,2.102000X2.007000*%
%ADD11O,1.802000X1.802000*%
%ADD12C,1.652000*%
%ADD13O,1.829200X1.829200*%
%ADD14C,2.602000*%
%ADD15O,4.062000X2.082000*%
%ADD16O,1.702000X1.102000*%
%ADD17O,2.202000X1.102000*%
%ADD18C,0.752000*%
%ADD19C,1.626000*%
%ADD20C,2.302000*%
%ADD21C,3.102000*%
%ADD22C,4.502000*%
%ADD23C,0.802000*%
%ADD24C,0.127000*%
G04 APERTURE END LIST*
D10*
X122500000Y-104982500D03*
X122500000Y-107522500D03*
G36*
G01*
X123500000Y-111066000D02*
X121500000Y-111066000D01*
G75*
G02*
X121449000Y-111015000I0J51000D01*
G01*
X121449000Y-109110000D01*
G75*
G02*
X121500000Y-109059000I51000J0D01*
G01*
X123500000Y-109059000D01*
G75*
G02*
X123551000Y-109110000I0J-51000D01*
G01*
X123551000Y-111015000D01*
G75*
G02*
X123500000Y-111066000I-51000J0D01*
G01*
G37*
D11*
X130500000Y-105540000D03*
G36*
G01*
X129599000Y-103850000D02*
X129599000Y-102150000D01*
G75*
G02*
X129650000Y-102099000I51000J0D01*
G01*
X131350000Y-102099000D01*
G75*
G02*
X131401000Y-102150000I0J-51000D01*
G01*
X131401000Y-103850000D01*
G75*
G02*
X131350000Y-103901000I-51000J0D01*
G01*
X129650000Y-103901000D01*
G75*
G02*
X129599000Y-103850000I0J51000D01*
G01*
G37*
D12*
X33500000Y-124500000D03*
G36*
G01*
X30174000Y-120275000D02*
X30174000Y-118725000D01*
G75*
G02*
X30225000Y-118674000I51000J0D01*
G01*
X31775000Y-118674000D01*
G75*
G02*
X31826000Y-118725000I0J-51000D01*
G01*
X31826000Y-120275000D01*
G75*
G02*
X31775000Y-120326000I-51000J0D01*
G01*
X30225000Y-120326000D01*
G75*
G02*
X30174000Y-120275000I0J51000D01*
G01*
G37*
X36000000Y-119500000D03*
D13*
X91810000Y-125740000D03*
X91810000Y-128280000D03*
X89270000Y-125740000D03*
X89270000Y-128280000D03*
X86730000Y-125740000D03*
X86730000Y-128280000D03*
X84190000Y-125740000D03*
X84190000Y-128280000D03*
X81650000Y-125740000D03*
X81650000Y-128280000D03*
X79110000Y-125740000D03*
X79110000Y-128280000D03*
X76570000Y-125740000D03*
X76570000Y-128280000D03*
X74030000Y-125740000D03*
G36*
G01*
X74893600Y-129194600D02*
X73166400Y-129194600D01*
G75*
G02*
X73115400Y-129143600I0J51000D01*
G01*
X73115400Y-127416400D01*
G75*
G02*
X73166400Y-127365400I51000J0D01*
G01*
X74893600Y-127365400D01*
G75*
G02*
X74944600Y-127416400I0J-51000D01*
G01*
X74944600Y-129143600D01*
G75*
G02*
X74893600Y-129194600I-51000J0D01*
G01*
G37*
X120780000Y-125710000D03*
X120780000Y-128250000D03*
X118240000Y-125710000D03*
X118240000Y-128250000D03*
X115700000Y-125710000D03*
X115700000Y-128250000D03*
X113160000Y-125710000D03*
X113160000Y-128250000D03*
X110620000Y-125710000D03*
X110620000Y-128250000D03*
X108080000Y-125710000D03*
X108080000Y-128250000D03*
X105540000Y-125710000D03*
X105540000Y-128250000D03*
X103000000Y-125710000D03*
G36*
G01*
X103863600Y-129164600D02*
X102136400Y-129164600D01*
G75*
G02*
X102085400Y-129113600I0J51000D01*
G01*
X102085400Y-127386400D01*
G75*
G02*
X102136400Y-127335400I51000J0D01*
G01*
X103863600Y-127335400D01*
G75*
G02*
X103914600Y-127386400I0J-51000D01*
G01*
X103914600Y-129113600D01*
G75*
G02*
X103863600Y-129164600I-51000J0D01*
G01*
G37*
D14*
X125750000Y-68000000D03*
X125750000Y-73000000D03*
X125750000Y-78000000D03*
X125750000Y-83000000D03*
X125750000Y-88000000D03*
G36*
G01*
X127000000Y-94301000D02*
X124500000Y-94301000D01*
G75*
G02*
X124449000Y-94250000I0J51000D01*
G01*
X124449000Y-91750000D01*
G75*
G02*
X124500000Y-91699000I51000J0D01*
G01*
X127000000Y-91699000D01*
G75*
G02*
X127051000Y-91750000I0J-51000D01*
G01*
X127051000Y-94250000D01*
G75*
G02*
X127000000Y-94301000I-51000J0D01*
G01*
G37*
D15*
X126000000Y-48250000D03*
X126000000Y-43250000D03*
X126000000Y-53250000D03*
G36*
G01*
X127980000Y-59291000D02*
X124020000Y-59291000D01*
G75*
G02*
X123969000Y-59240000I0J51000D01*
G01*
X123969000Y-57260000D01*
G75*
G02*
X124020000Y-57209000I51000J0D01*
G01*
X127980000Y-57209000D01*
G75*
G02*
X128031000Y-57260000I0J-51000D01*
G01*
X128031000Y-59240000D01*
G75*
G02*
X127980000Y-59291000I-51000J0D01*
G01*
G37*
X19000000Y-34000000D03*
X19000000Y-39000000D03*
X19000000Y-29000000D03*
G36*
G01*
X17020000Y-22959000D02*
X20980000Y-22959000D01*
G75*
G02*
X21031000Y-23010000I0J-51000D01*
G01*
X21031000Y-24990000D01*
G75*
G02*
X20980000Y-25041000I-51000J0D01*
G01*
X17020000Y-25041000D01*
G75*
G02*
X16969000Y-24990000I0J51000D01*
G01*
X16969000Y-23010000D01*
G75*
G02*
X17020000Y-22959000I51000J0D01*
G01*
G37*
D16*
X15000000Y-98270000D03*
D17*
X19180000Y-98270000D03*
X19180000Y-89630000D03*
D16*
X15000000Y-89630000D03*
D18*
X18650000Y-91060000D03*
X18650000Y-96840000D03*
D19*
X110050000Y-43000000D03*
X91000000Y-48080000D03*
X91000000Y-58240000D03*
X110050000Y-60780000D03*
X91000000Y-43000000D03*
X91000000Y-45540000D03*
X91000000Y-60780000D03*
X110050000Y-45540000D03*
X110050000Y-58240000D03*
D20*
X124430000Y-36210000D03*
D11*
X87346000Y-25034000D03*
X87346000Y-32654000D03*
X87346000Y-30114000D03*
G36*
G01*
X86445000Y-20804000D02*
X86445000Y-19104000D01*
G75*
G02*
X86496000Y-19053000I51000J0D01*
G01*
X88196000Y-19053000D01*
G75*
G02*
X88247000Y-19104000I0J-51000D01*
G01*
X88247000Y-20804000D01*
G75*
G02*
X88196000Y-20855000I-51000J0D01*
G01*
X86496000Y-20855000D01*
G75*
G02*
X86445000Y-20804000I0J51000D01*
G01*
G37*
D20*
X124430000Y-15890000D03*
X83790000Y-36210000D03*
D11*
X87346000Y-22494000D03*
D20*
X83790000Y-15890000D03*
D11*
X87346000Y-27574000D03*
D19*
X74500000Y-54500000D03*
X74500000Y-43500000D03*
X74500000Y-50500000D03*
D21*
X69500000Y-60500000D03*
D19*
X74500000Y-61500000D03*
X34500000Y-52500000D03*
D21*
X39500000Y-44500000D03*
D19*
X34500000Y-61500000D03*
X34500000Y-43500000D03*
X74500000Y-28500000D03*
X74500000Y-17500000D03*
X74500000Y-24500000D03*
D21*
X69500000Y-34500000D03*
D19*
X74500000Y-35500000D03*
X34500000Y-26500000D03*
D21*
X39500000Y-18500000D03*
D19*
X34500000Y-35500000D03*
X34500000Y-17500000D03*
G36*
G01*
X34978828Y-56126000D02*
X34021172Y-56126000D01*
G75*
G02*
X33749000Y-55853828I0J272172D01*
G01*
X33749000Y-55146172D01*
G75*
G02*
X34021172Y-54874000I272172J0D01*
G01*
X34978828Y-54874000D01*
G75*
G02*
X35251000Y-55146172I0J-272172D01*
G01*
X35251000Y-55853828D01*
G75*
G02*
X34978828Y-56126000I-272172J0D01*
G01*
G37*
G36*
G01*
X34978828Y-58176000D02*
X34021172Y-58176000D01*
G75*
G02*
X33749000Y-57903828I0J272172D01*
G01*
X33749000Y-57196172D01*
G75*
G02*
X34021172Y-56924000I272172J0D01*
G01*
X34978828Y-56924000D01*
G75*
G02*
X35251000Y-57196172I0J-272172D01*
G01*
X35251000Y-57903828D01*
G75*
G02*
X34978828Y-58176000I-272172J0D01*
G01*
G37*
G36*
G01*
X34978828Y-48376000D02*
X34021172Y-48376000D01*
G75*
G02*
X33749000Y-48103828I0J272172D01*
G01*
X33749000Y-47396172D01*
G75*
G02*
X34021172Y-47124000I272172J0D01*
G01*
X34978828Y-47124000D01*
G75*
G02*
X35251000Y-47396172I0J-272172D01*
G01*
X35251000Y-48103828D01*
G75*
G02*
X34978828Y-48376000I-272172J0D01*
G01*
G37*
G36*
G01*
X34978828Y-50426000D02*
X34021172Y-50426000D01*
G75*
G02*
X33749000Y-50153828I0J272172D01*
G01*
X33749000Y-49446172D01*
G75*
G02*
X34021172Y-49174000I272172J0D01*
G01*
X34978828Y-49174000D01*
G75*
G02*
X35251000Y-49446172I0J-272172D01*
G01*
X35251000Y-50153828D01*
G75*
G02*
X34978828Y-50426000I-272172J0D01*
G01*
G37*
G36*
G01*
X34978828Y-30126000D02*
X34021172Y-30126000D01*
G75*
G02*
X33749000Y-29853828I0J272172D01*
G01*
X33749000Y-29146172D01*
G75*
G02*
X34021172Y-28874000I272172J0D01*
G01*
X34978828Y-28874000D01*
G75*
G02*
X35251000Y-29146172I0J-272172D01*
G01*
X35251000Y-29853828D01*
G75*
G02*
X34978828Y-30126000I-272172J0D01*
G01*
G37*
G36*
G01*
X34978828Y-32176000D02*
X34021172Y-32176000D01*
G75*
G02*
X33749000Y-31903828I0J272172D01*
G01*
X33749000Y-31196172D01*
G75*
G02*
X34021172Y-30924000I272172J0D01*
G01*
X34978828Y-30924000D01*
G75*
G02*
X35251000Y-31196172I0J-272172D01*
G01*
X35251000Y-31903828D01*
G75*
G02*
X34978828Y-32176000I-272172J0D01*
G01*
G37*
G36*
G01*
X34978828Y-22376000D02*
X34021172Y-22376000D01*
G75*
G02*
X33749000Y-22103828I0J272172D01*
G01*
X33749000Y-21396172D01*
G75*
G02*
X34021172Y-21124000I272172J0D01*
G01*
X34978828Y-21124000D01*
G75*
G02*
X35251000Y-21396172I0J-272172D01*
G01*
X35251000Y-22103828D01*
G75*
G02*
X34978828Y-22376000I-272172J0D01*
G01*
G37*
G36*
G01*
X34978828Y-24426000D02*
X34021172Y-24426000D01*
G75*
G02*
X33749000Y-24153828I0J272172D01*
G01*
X33749000Y-23446172D01*
G75*
G02*
X34021172Y-23174000I272172J0D01*
G01*
X34978828Y-23174000D01*
G75*
G02*
X35251000Y-23446172I0J-272172D01*
G01*
X35251000Y-24153828D01*
G75*
G02*
X34978828Y-24426000I-272172J0D01*
G01*
G37*
G36*
G01*
X31874000Y-107478828D02*
X31874000Y-106521172D01*
G75*
G02*
X32146172Y-106249000I272172J0D01*
G01*
X32853828Y-106249000D01*
G75*
G02*
X33126000Y-106521172I0J-272172D01*
G01*
X33126000Y-107478828D01*
G75*
G02*
X32853828Y-107751000I-272172J0D01*
G01*
X32146172Y-107751000D01*
G75*
G02*
X31874000Y-107478828I0J272172D01*
G01*
G37*
G36*
G01*
X29824000Y-107478828D02*
X29824000Y-106521172D01*
G75*
G02*
X30096172Y-106249000I272172J0D01*
G01*
X30803828Y-106249000D01*
G75*
G02*
X31076000Y-106521172I0J-272172D01*
G01*
X31076000Y-107478828D01*
G75*
G02*
X30803828Y-107751000I-272172J0D01*
G01*
X30096172Y-107751000D01*
G75*
G02*
X29824000Y-107478828I0J272172D01*
G01*
G37*
G36*
G01*
X47374000Y-82478828D02*
X47374000Y-81521172D01*
G75*
G02*
X47646172Y-81249000I272172J0D01*
G01*
X48353828Y-81249000D01*
G75*
G02*
X48626000Y-81521172I0J-272172D01*
G01*
X48626000Y-82478828D01*
G75*
G02*
X48353828Y-82751000I-272172J0D01*
G01*
X47646172Y-82751000D01*
G75*
G02*
X47374000Y-82478828I0J272172D01*
G01*
G37*
G36*
G01*
X45324000Y-82478828D02*
X45324000Y-81521172D01*
G75*
G02*
X45596172Y-81249000I272172J0D01*
G01*
X46303828Y-81249000D01*
G75*
G02*
X46576000Y-81521172I0J-272172D01*
G01*
X46576000Y-82478828D01*
G75*
G02*
X46303828Y-82751000I-272172J0D01*
G01*
X45596172Y-82751000D01*
G75*
G02*
X45324000Y-82478828I0J272172D01*
G01*
G37*
G36*
G01*
X47374000Y-87478828D02*
X47374000Y-86521172D01*
G75*
G02*
X47646172Y-86249000I272172J0D01*
G01*
X48353828Y-86249000D01*
G75*
G02*
X48626000Y-86521172I0J-272172D01*
G01*
X48626000Y-87478828D01*
G75*
G02*
X48353828Y-87751000I-272172J0D01*
G01*
X47646172Y-87751000D01*
G75*
G02*
X47374000Y-87478828I0J272172D01*
G01*
G37*
G36*
G01*
X45324000Y-87478828D02*
X45324000Y-86521172D01*
G75*
G02*
X45596172Y-86249000I272172J0D01*
G01*
X46303828Y-86249000D01*
G75*
G02*
X46576000Y-86521172I0J-272172D01*
G01*
X46576000Y-87478828D01*
G75*
G02*
X46303828Y-87751000I-272172J0D01*
G01*
X45596172Y-87751000D01*
G75*
G02*
X45324000Y-87478828I0J272172D01*
G01*
G37*
G36*
G01*
X47424000Y-92478828D02*
X47424000Y-91521172D01*
G75*
G02*
X47696172Y-91249000I272172J0D01*
G01*
X48403828Y-91249000D01*
G75*
G02*
X48676000Y-91521172I0J-272172D01*
G01*
X48676000Y-92478828D01*
G75*
G02*
X48403828Y-92751000I-272172J0D01*
G01*
X47696172Y-92751000D01*
G75*
G02*
X47424000Y-92478828I0J272172D01*
G01*
G37*
G36*
G01*
X45374000Y-92478828D02*
X45374000Y-91521172D01*
G75*
G02*
X45646172Y-91249000I272172J0D01*
G01*
X46353828Y-91249000D01*
G75*
G02*
X46626000Y-91521172I0J-272172D01*
G01*
X46626000Y-92478828D01*
G75*
G02*
X46353828Y-92751000I-272172J0D01*
G01*
X45646172Y-92751000D01*
G75*
G02*
X45374000Y-92478828I0J272172D01*
G01*
G37*
G36*
G01*
X47374000Y-77478828D02*
X47374000Y-76521172D01*
G75*
G02*
X47646172Y-76249000I272172J0D01*
G01*
X48353828Y-76249000D01*
G75*
G02*
X48626000Y-76521172I0J-272172D01*
G01*
X48626000Y-77478828D01*
G75*
G02*
X48353828Y-77751000I-272172J0D01*
G01*
X47646172Y-77751000D01*
G75*
G02*
X47374000Y-77478828I0J272172D01*
G01*
G37*
G36*
G01*
X45324000Y-77478828D02*
X45324000Y-76521172D01*
G75*
G02*
X45596172Y-76249000I272172J0D01*
G01*
X46303828Y-76249000D01*
G75*
G02*
X46576000Y-76521172I0J-272172D01*
G01*
X46576000Y-77478828D01*
G75*
G02*
X46303828Y-77751000I-272172J0D01*
G01*
X45596172Y-77751000D01*
G75*
G02*
X45324000Y-77478828I0J272172D01*
G01*
G37*
G36*
G01*
X70924000Y-101228828D02*
X70924000Y-100271172D01*
G75*
G02*
X71196172Y-99999000I272172J0D01*
G01*
X71903828Y-99999000D01*
G75*
G02*
X72176000Y-100271172I0J-272172D01*
G01*
X72176000Y-101228828D01*
G75*
G02*
X71903828Y-101501000I-272172J0D01*
G01*
X71196172Y-101501000D01*
G75*
G02*
X70924000Y-101228828I0J272172D01*
G01*
G37*
G36*
G01*
X68874000Y-101228828D02*
X68874000Y-100271172D01*
G75*
G02*
X69146172Y-99999000I272172J0D01*
G01*
X69853828Y-99999000D01*
G75*
G02*
X70126000Y-100271172I0J-272172D01*
G01*
X70126000Y-101228828D01*
G75*
G02*
X69853828Y-101501000I-272172J0D01*
G01*
X69146172Y-101501000D01*
G75*
G02*
X68874000Y-101228828I0J272172D01*
G01*
G37*
D11*
X57920000Y-97540000D03*
X57920000Y-95000000D03*
X60460000Y-97540000D03*
X60460000Y-95000000D03*
X63000000Y-97540000D03*
G36*
G01*
X62150000Y-94099000D02*
X63850000Y-94099000D01*
G75*
G02*
X63901000Y-94150000I0J-51000D01*
G01*
X63901000Y-95850000D01*
G75*
G02*
X63850000Y-95901000I-51000J0D01*
G01*
X62150000Y-95901000D01*
G75*
G02*
X62099000Y-95850000I0J51000D01*
G01*
X62099000Y-94150000D01*
G75*
G02*
X62150000Y-94099000I51000J0D01*
G01*
G37*
X57780000Y-122500000D03*
X55240000Y-122500000D03*
X52700000Y-122500000D03*
X50160000Y-122500000D03*
X47620000Y-122500000D03*
X45080000Y-122500000D03*
X42540000Y-122500000D03*
G36*
G01*
X40850000Y-123401000D02*
X39150000Y-123401000D01*
G75*
G02*
X39099000Y-123350000I0J51000D01*
G01*
X39099000Y-121650000D01*
G75*
G02*
X39150000Y-121599000I51000J0D01*
G01*
X40850000Y-121599000D01*
G75*
G02*
X40901000Y-121650000I0J-51000D01*
G01*
X40901000Y-123350000D01*
G75*
G02*
X40850000Y-123401000I-51000J0D01*
G01*
G37*
X63680000Y-129900000D03*
X61140000Y-129900000D03*
X58600000Y-129900000D03*
X56060000Y-129900000D03*
X53520000Y-129900000D03*
X50980000Y-129900000D03*
X48440000Y-129900000D03*
X45900000Y-129900000D03*
X43360000Y-129900000D03*
X40820000Y-129900000D03*
X38280000Y-129900000D03*
X35740000Y-129900000D03*
X33200000Y-129900000D03*
X30660000Y-129900000D03*
X28120000Y-129900000D03*
G36*
G01*
X26430000Y-130801000D02*
X24730000Y-130801000D01*
G75*
G02*
X24679000Y-130750000I0J51000D01*
G01*
X24679000Y-129050000D01*
G75*
G02*
X24730000Y-128999000I51000J0D01*
G01*
X26430000Y-128999000D01*
G75*
G02*
X26481000Y-129050000I0J-51000D01*
G01*
X26481000Y-130750000D01*
G75*
G02*
X26430000Y-130801000I-51000J0D01*
G01*
G37*
D22*
X129000000Y-15000000D03*
D23*
X130650000Y-15000000D03*
X130166726Y-16166726D03*
X129000000Y-16650000D03*
X127833274Y-16166726D03*
X127350000Y-15000000D03*
X127833274Y-13833274D03*
X129000000Y-13350000D03*
X130166726Y-13833274D03*
D22*
X15000000Y-129000000D03*
D23*
X16650000Y-129000000D03*
X16166726Y-130166726D03*
X15000000Y-130650000D03*
X13833274Y-130166726D03*
X13350000Y-129000000D03*
X13833274Y-127833274D03*
X15000000Y-127350000D03*
X16166726Y-127833274D03*
D22*
X14850000Y-15000000D03*
D23*
X16500000Y-15000000D03*
X16016726Y-16166726D03*
X14850000Y-16650000D03*
X13683274Y-16166726D03*
X13200000Y-15000000D03*
X13683274Y-13833274D03*
X14850000Y-13350000D03*
X16016726Y-13833274D03*
D22*
X129000000Y-128650000D03*
D23*
X130650000Y-128650000D03*
X130166726Y-129816726D03*
X129000000Y-130300000D03*
X127833274Y-129816726D03*
X127350000Y-128650000D03*
X127833274Y-127483274D03*
X129000000Y-127000000D03*
X130166726Y-127483274D03*
G36*
G01*
X121950000Y-57049000D02*
X123050000Y-57049000D01*
G75*
G02*
X123101000Y-57100000I0J-51000D01*
G01*
X123101000Y-58200000D01*
G75*
G02*
X123050000Y-58251000I-51000J0D01*
G01*
X121950000Y-58251000D01*
G75*
G02*
X121899000Y-58200000I0J51000D01*
G01*
X121899000Y-57100000D01*
G75*
G02*
X121950000Y-57049000I51000J0D01*
G01*
G37*
G36*
G01*
X121950000Y-54249000D02*
X123050000Y-54249000D01*
G75*
G02*
X123101000Y-54300000I0J-51000D01*
G01*
X123101000Y-55400000D01*
G75*
G02*
X123050000Y-55451000I-51000J0D01*
G01*
X121950000Y-55451000D01*
G75*
G02*
X121899000Y-55400000I0J51000D01*
G01*
X121899000Y-54300000D01*
G75*
G02*
X121950000Y-54249000I51000J0D01*
G01*
G37*
G36*
G01*
X121950000Y-45799000D02*
X123050000Y-45799000D01*
G75*
G02*
X123101000Y-45850000I0J-51000D01*
G01*
X123101000Y-46950000D01*
G75*
G02*
X123050000Y-47001000I-51000J0D01*
G01*
X121950000Y-47001000D01*
G75*
G02*
X121899000Y-46950000I0J51000D01*
G01*
X121899000Y-45850000D01*
G75*
G02*
X121950000Y-45799000I51000J0D01*
G01*
G37*
G36*
G01*
X121950000Y-42999000D02*
X123050000Y-42999000D01*
G75*
G02*
X123101000Y-43050000I0J-51000D01*
G01*
X123101000Y-44150000D01*
G75*
G02*
X123050000Y-44201000I-51000J0D01*
G01*
X121950000Y-44201000D01*
G75*
G02*
X121899000Y-44150000I0J51000D01*
G01*
X121899000Y-43050000D01*
G75*
G02*
X121950000Y-42999000I51000J0D01*
G01*
G37*
G36*
G01*
X61576000Y-86521172D02*
X61576000Y-87478828D01*
G75*
G02*
X61303828Y-87751000I-272172J0D01*
G01*
X60596172Y-87751000D01*
G75*
G02*
X60324000Y-87478828I0J272172D01*
G01*
X60324000Y-86521172D01*
G75*
G02*
X60596172Y-86249000I272172J0D01*
G01*
X61303828Y-86249000D01*
G75*
G02*
X61576000Y-86521172I0J-272172D01*
G01*
G37*
G36*
G01*
X63626000Y-86521172D02*
X63626000Y-87478828D01*
G75*
G02*
X63353828Y-87751000I-272172J0D01*
G01*
X62646172Y-87751000D01*
G75*
G02*
X62374000Y-87478828I0J272172D01*
G01*
X62374000Y-86521172D01*
G75*
G02*
X62646172Y-86249000I272172J0D01*
G01*
X63353828Y-86249000D01*
G75*
G02*
X63626000Y-86521172I0J-272172D01*
G01*
G37*
G36*
G01*
X61626000Y-75021172D02*
X61626000Y-75978828D01*
G75*
G02*
X61353828Y-76251000I-272172J0D01*
G01*
X60646172Y-76251000D01*
G75*
G02*
X60374000Y-75978828I0J272172D01*
G01*
X60374000Y-75021172D01*
G75*
G02*
X60646172Y-74749000I272172J0D01*
G01*
X61353828Y-74749000D01*
G75*
G02*
X61626000Y-75021172I0J-272172D01*
G01*
G37*
G36*
G01*
X63676000Y-75021172D02*
X63676000Y-75978828D01*
G75*
G02*
X63403828Y-76251000I-272172J0D01*
G01*
X62696172Y-76251000D01*
G75*
G02*
X62424000Y-75978828I0J272172D01*
G01*
X62424000Y-75021172D01*
G75*
G02*
X62696172Y-74749000I272172J0D01*
G01*
X63403828Y-74749000D01*
G75*
G02*
X63676000Y-75021172I0J-272172D01*
G01*
G37*
G36*
G01*
X61626000Y-83521172D02*
X61626000Y-84478828D01*
G75*
G02*
X61353828Y-84751000I-272172J0D01*
G01*
X60646172Y-84751000D01*
G75*
G02*
X60374000Y-84478828I0J272172D01*
G01*
X60374000Y-83521172D01*
G75*
G02*
X60646172Y-83249000I272172J0D01*
G01*
X61353828Y-83249000D01*
G75*
G02*
X61626000Y-83521172I0J-272172D01*
G01*
G37*
G36*
G01*
X63676000Y-83521172D02*
X63676000Y-84478828D01*
G75*
G02*
X63403828Y-84751000I-272172J0D01*
G01*
X62696172Y-84751000D01*
G75*
G02*
X62424000Y-84478828I0J272172D01*
G01*
X62424000Y-83521172D01*
G75*
G02*
X62696172Y-83249000I272172J0D01*
G01*
X63403828Y-83249000D01*
G75*
G02*
X63676000Y-83521172I0J-272172D01*
G01*
G37*
G36*
G01*
X49326000Y-108521172D02*
X49326000Y-109478828D01*
G75*
G02*
X49053828Y-109751000I-272172J0D01*
G01*
X48346172Y-109751000D01*
G75*
G02*
X48074000Y-109478828I0J272172D01*
G01*
X48074000Y-108521172D01*
G75*
G02*
X48346172Y-108249000I272172J0D01*
G01*
X49053828Y-108249000D01*
G75*
G02*
X49326000Y-108521172I0J-272172D01*
G01*
G37*
G36*
G01*
X51376000Y-108521172D02*
X51376000Y-109478828D01*
G75*
G02*
X51103828Y-109751000I-272172J0D01*
G01*
X50396172Y-109751000D01*
G75*
G02*
X50124000Y-109478828I0J272172D01*
G01*
X50124000Y-108521172D01*
G75*
G02*
X50396172Y-108249000I272172J0D01*
G01*
X51103828Y-108249000D01*
G75*
G02*
X51376000Y-108521172I0J-272172D01*
G01*
G37*
G36*
G01*
X31624000Y-104278828D02*
X31624000Y-103321172D01*
G75*
G02*
X31896172Y-103049000I272172J0D01*
G01*
X32603828Y-103049000D01*
G75*
G02*
X32876000Y-103321172I0J-272172D01*
G01*
X32876000Y-104278828D01*
G75*
G02*
X32603828Y-104551000I-272172J0D01*
G01*
X31896172Y-104551000D01*
G75*
G02*
X31624000Y-104278828I0J272172D01*
G01*
G37*
G36*
G01*
X29574000Y-104278828D02*
X29574000Y-103321172D01*
G75*
G02*
X29846172Y-103049000I272172J0D01*
G01*
X30553828Y-103049000D01*
G75*
G02*
X30826000Y-103321172I0J-272172D01*
G01*
X30826000Y-104278828D01*
G75*
G02*
X30553828Y-104551000I-272172J0D01*
G01*
X29846172Y-104551000D01*
G75*
G02*
X29574000Y-104278828I0J272172D01*
G01*
G37*
G36*
G01*
X31526000Y-101071172D02*
X31526000Y-102028828D01*
G75*
G02*
X31253828Y-102301000I-272172J0D01*
G01*
X30546172Y-102301000D01*
G75*
G02*
X30274000Y-102028828I0J272172D01*
G01*
X30274000Y-101071172D01*
G75*
G02*
X30546172Y-100799000I272172J0D01*
G01*
X31253828Y-100799000D01*
G75*
G02*
X31526000Y-101071172I0J-272172D01*
G01*
G37*
G36*
G01*
X33576000Y-101071172D02*
X33576000Y-102028828D01*
G75*
G02*
X33303828Y-102301000I-272172J0D01*
G01*
X32596172Y-102301000D01*
G75*
G02*
X32324000Y-102028828I0J272172D01*
G01*
X32324000Y-101071172D01*
G75*
G02*
X32596172Y-100799000I272172J0D01*
G01*
X33303828Y-100799000D01*
G75*
G02*
X33576000Y-101071172I0J-272172D01*
G01*
G37*
G36*
G01*
X37601000Y-91521172D02*
X37601000Y-92478828D01*
G75*
G02*
X37328828Y-92751000I-272172J0D01*
G01*
X36621172Y-92751000D01*
G75*
G02*
X36349000Y-92478828I0J272172D01*
G01*
X36349000Y-91521172D01*
G75*
G02*
X36621172Y-91249000I272172J0D01*
G01*
X37328828Y-91249000D01*
G75*
G02*
X37601000Y-91521172I0J-272172D01*
G01*
G37*
G36*
G01*
X39651000Y-91521172D02*
X39651000Y-92478828D01*
G75*
G02*
X39378828Y-92751000I-272172J0D01*
G01*
X38671172Y-92751000D01*
G75*
G02*
X38399000Y-92478828I0J272172D01*
G01*
X38399000Y-91521172D01*
G75*
G02*
X38671172Y-91249000I272172J0D01*
G01*
X39378828Y-91249000D01*
G75*
G02*
X39651000Y-91521172I0J-272172D01*
G01*
G37*
G36*
G01*
X37576000Y-87521172D02*
X37576000Y-88478828D01*
G75*
G02*
X37303828Y-88751000I-272172J0D01*
G01*
X36596172Y-88751000D01*
G75*
G02*
X36324000Y-88478828I0J272172D01*
G01*
X36324000Y-87521172D01*
G75*
G02*
X36596172Y-87249000I272172J0D01*
G01*
X37303828Y-87249000D01*
G75*
G02*
X37576000Y-87521172I0J-272172D01*
G01*
G37*
G36*
G01*
X39626000Y-87521172D02*
X39626000Y-88478828D01*
G75*
G02*
X39353828Y-88751000I-272172J0D01*
G01*
X38646172Y-88751000D01*
G75*
G02*
X38374000Y-88478828I0J272172D01*
G01*
X38374000Y-87521172D01*
G75*
G02*
X38646172Y-87249000I272172J0D01*
G01*
X39353828Y-87249000D01*
G75*
G02*
X39626000Y-87521172I0J-272172D01*
G01*
G37*
G36*
G01*
X30521172Y-91399000D02*
X31478828Y-91399000D01*
G75*
G02*
X31751000Y-91671172I0J-272172D01*
G01*
X31751000Y-92378828D01*
G75*
G02*
X31478828Y-92651000I-272172J0D01*
G01*
X30521172Y-92651000D01*
G75*
G02*
X30249000Y-92378828I0J272172D01*
G01*
X30249000Y-91671172D01*
G75*
G02*
X30521172Y-91399000I272172J0D01*
G01*
G37*
G36*
G01*
X30521172Y-89349000D02*
X31478828Y-89349000D01*
G75*
G02*
X31751000Y-89621172I0J-272172D01*
G01*
X31751000Y-90328828D01*
G75*
G02*
X31478828Y-90601000I-272172J0D01*
G01*
X30521172Y-90601000D01*
G75*
G02*
X30249000Y-90328828I0J272172D01*
G01*
X30249000Y-89621172D01*
G75*
G02*
X30521172Y-89349000I272172J0D01*
G01*
G37*
G36*
G01*
X68521172Y-77374000D02*
X69478828Y-77374000D01*
G75*
G02*
X69751000Y-77646172I0J-272172D01*
G01*
X69751000Y-78353828D01*
G75*
G02*
X69478828Y-78626000I-272172J0D01*
G01*
X68521172Y-78626000D01*
G75*
G02*
X68249000Y-78353828I0J272172D01*
G01*
X68249000Y-77646172D01*
G75*
G02*
X68521172Y-77374000I272172J0D01*
G01*
G37*
G36*
G01*
X68521172Y-75324000D02*
X69478828Y-75324000D01*
G75*
G02*
X69751000Y-75596172I0J-272172D01*
G01*
X69751000Y-76303828D01*
G75*
G02*
X69478828Y-76576000I-272172J0D01*
G01*
X68521172Y-76576000D01*
G75*
G02*
X68249000Y-76303828I0J272172D01*
G01*
X68249000Y-75596172D01*
G75*
G02*
X68521172Y-75324000I272172J0D01*
G01*
G37*
G36*
G01*
X16399000Y-105278828D02*
X16399000Y-104321172D01*
G75*
G02*
X16671172Y-104049000I272172J0D01*
G01*
X17378828Y-104049000D01*
G75*
G02*
X17651000Y-104321172I0J-272172D01*
G01*
X17651000Y-105278828D01*
G75*
G02*
X17378828Y-105551000I-272172J0D01*
G01*
X16671172Y-105551000D01*
G75*
G02*
X16399000Y-105278828I0J272172D01*
G01*
G37*
G36*
G01*
X14349000Y-105278828D02*
X14349000Y-104321172D01*
G75*
G02*
X14621172Y-104049000I272172J0D01*
G01*
X15328828Y-104049000D01*
G75*
G02*
X15601000Y-104321172I0J-272172D01*
G01*
X15601000Y-105278828D01*
G75*
G02*
X15328828Y-105551000I-272172J0D01*
G01*
X14621172Y-105551000D01*
G75*
G02*
X14349000Y-105278828I0J272172D01*
G01*
G37*
G36*
G01*
X69578828Y-95726000D02*
X68621172Y-95726000D01*
G75*
G02*
X68349000Y-95453828I0J272172D01*
G01*
X68349000Y-94746172D01*
G75*
G02*
X68621172Y-94474000I272172J0D01*
G01*
X69578828Y-94474000D01*
G75*
G02*
X69851000Y-94746172I0J-272172D01*
G01*
X69851000Y-95453828D01*
G75*
G02*
X69578828Y-95726000I-272172J0D01*
G01*
G37*
G36*
G01*
X69578828Y-97776000D02*
X68621172Y-97776000D01*
G75*
G02*
X68349000Y-97503828I0J272172D01*
G01*
X68349000Y-96796172D01*
G75*
G02*
X68621172Y-96524000I272172J0D01*
G01*
X69578828Y-96524000D01*
G75*
G02*
X69851000Y-96796172I0J-272172D01*
G01*
X69851000Y-97503828D01*
G75*
G02*
X69578828Y-97776000I-272172J0D01*
G01*
G37*
G36*
G01*
X71621172Y-96499000D02*
X72578828Y-96499000D01*
G75*
G02*
X72851000Y-96771172I0J-272172D01*
G01*
X72851000Y-97478828D01*
G75*
G02*
X72578828Y-97751000I-272172J0D01*
G01*
X71621172Y-97751000D01*
G75*
G02*
X71349000Y-97478828I0J272172D01*
G01*
X71349000Y-96771172D01*
G75*
G02*
X71621172Y-96499000I272172J0D01*
G01*
G37*
G36*
G01*
X71621172Y-94449000D02*
X72578828Y-94449000D01*
G75*
G02*
X72851000Y-94721172I0J-272172D01*
G01*
X72851000Y-95428828D01*
G75*
G02*
X72578828Y-95701000I-272172J0D01*
G01*
X71621172Y-95701000D01*
G75*
G02*
X71349000Y-95428828I0J272172D01*
G01*
X71349000Y-94721172D01*
G75*
G02*
X71621172Y-94449000I272172J0D01*
G01*
G37*
G36*
G01*
X76399000Y-76478828D02*
X76399000Y-75521172D01*
G75*
G02*
X76671172Y-75249000I272172J0D01*
G01*
X77378828Y-75249000D01*
G75*
G02*
X77651000Y-75521172I0J-272172D01*
G01*
X77651000Y-76478828D01*
G75*
G02*
X77378828Y-76751000I-272172J0D01*
G01*
X76671172Y-76751000D01*
G75*
G02*
X76399000Y-76478828I0J272172D01*
G01*
G37*
G36*
G01*
X74349000Y-76478828D02*
X74349000Y-75521172D01*
G75*
G02*
X74621172Y-75249000I272172J0D01*
G01*
X75328828Y-75249000D01*
G75*
G02*
X75601000Y-75521172I0J-272172D01*
G01*
X75601000Y-76478828D01*
G75*
G02*
X75328828Y-76751000I-272172J0D01*
G01*
X74621172Y-76751000D01*
G75*
G02*
X74349000Y-76478828I0J272172D01*
G01*
G37*
G36*
G01*
X69478828Y-80601000D02*
X68521172Y-80601000D01*
G75*
G02*
X68249000Y-80328828I0J272172D01*
G01*
X68249000Y-79621172D01*
G75*
G02*
X68521172Y-79349000I272172J0D01*
G01*
X69478828Y-79349000D01*
G75*
G02*
X69751000Y-79621172I0J-272172D01*
G01*
X69751000Y-80328828D01*
G75*
G02*
X69478828Y-80601000I-272172J0D01*
G01*
G37*
G36*
G01*
X69478828Y-82651000D02*
X68521172Y-82651000D01*
G75*
G02*
X68249000Y-82378828I0J272172D01*
G01*
X68249000Y-81671172D01*
G75*
G02*
X68521172Y-81399000I272172J0D01*
G01*
X69478828Y-81399000D01*
G75*
G02*
X69751000Y-81671172I0J-272172D01*
G01*
X69751000Y-82378828D01*
G75*
G02*
X69478828Y-82651000I-272172J0D01*
G01*
G37*
G36*
G01*
X61601000Y-80771172D02*
X61601000Y-81728828D01*
G75*
G02*
X61328828Y-82001000I-272172J0D01*
G01*
X60621172Y-82001000D01*
G75*
G02*
X60349000Y-81728828I0J272172D01*
G01*
X60349000Y-80771172D01*
G75*
G02*
X60621172Y-80499000I272172J0D01*
G01*
X61328828Y-80499000D01*
G75*
G02*
X61601000Y-80771172I0J-272172D01*
G01*
G37*
G36*
G01*
X63651000Y-80771172D02*
X63651000Y-81728828D01*
G75*
G02*
X63378828Y-82001000I-272172J0D01*
G01*
X62671172Y-82001000D01*
G75*
G02*
X62399000Y-81728828I0J272172D01*
G01*
X62399000Y-80771172D01*
G75*
G02*
X62671172Y-80499000I272172J0D01*
G01*
X63378828Y-80499000D01*
G75*
G02*
X63651000Y-80771172I0J-272172D01*
G01*
G37*
G36*
G01*
X77521172Y-81399000D02*
X78478828Y-81399000D01*
G75*
G02*
X78751000Y-81671172I0J-272172D01*
G01*
X78751000Y-82378828D01*
G75*
G02*
X78478828Y-82651000I-272172J0D01*
G01*
X77521172Y-82651000D01*
G75*
G02*
X77249000Y-82378828I0J272172D01*
G01*
X77249000Y-81671172D01*
G75*
G02*
X77521172Y-81399000I272172J0D01*
G01*
G37*
G36*
G01*
X77521172Y-79349000D02*
X78478828Y-79349000D01*
G75*
G02*
X78751000Y-79621172I0J-272172D01*
G01*
X78751000Y-80328828D01*
G75*
G02*
X78478828Y-80601000I-272172J0D01*
G01*
X77521172Y-80601000D01*
G75*
G02*
X77249000Y-80328828I0J272172D01*
G01*
X77249000Y-79621172D01*
G75*
G02*
X77521172Y-79349000I272172J0D01*
G01*
G37*
G36*
G01*
X70601000Y-85521172D02*
X70601000Y-86478828D01*
G75*
G02*
X70328828Y-86751000I-272172J0D01*
G01*
X69621172Y-86751000D01*
G75*
G02*
X69349000Y-86478828I0J272172D01*
G01*
X69349000Y-85521172D01*
G75*
G02*
X69621172Y-85249000I272172J0D01*
G01*
X70328828Y-85249000D01*
G75*
G02*
X70601000Y-85521172I0J-272172D01*
G01*
G37*
G36*
G01*
X72651000Y-85521172D02*
X72651000Y-86478828D01*
G75*
G02*
X72378828Y-86751000I-272172J0D01*
G01*
X71671172Y-86751000D01*
G75*
G02*
X71399000Y-86478828I0J272172D01*
G01*
X71399000Y-85521172D01*
G75*
G02*
X71671172Y-85249000I272172J0D01*
G01*
X72378828Y-85249000D01*
G75*
G02*
X72651000Y-85521172I0J-272172D01*
G01*
G37*
G36*
G01*
X61601000Y-78021172D02*
X61601000Y-78978828D01*
G75*
G02*
X61328828Y-79251000I-272172J0D01*
G01*
X60621172Y-79251000D01*
G75*
G02*
X60349000Y-78978828I0J272172D01*
G01*
X60349000Y-78021172D01*
G75*
G02*
X60621172Y-77749000I272172J0D01*
G01*
X61328828Y-77749000D01*
G75*
G02*
X61601000Y-78021172I0J-272172D01*
G01*
G37*
G36*
G01*
X63651000Y-78021172D02*
X63651000Y-78978828D01*
G75*
G02*
X63378828Y-79251000I-272172J0D01*
G01*
X62671172Y-79251000D01*
G75*
G02*
X62399000Y-78978828I0J272172D01*
G01*
X62399000Y-78021172D01*
G75*
G02*
X62671172Y-77749000I272172J0D01*
G01*
X63378828Y-77749000D01*
G75*
G02*
X63651000Y-78021172I0J-272172D01*
G01*
G37*
G36*
X110462667Y-52082279D02*
G01*
X110643008Y-52136984D01*
X110809208Y-52225819D01*
X110954882Y-52345371D01*
X111074433Y-52491045D01*
X111163268Y-52657245D01*
X111217974Y-52837585D01*
X111236446Y-53025126D01*
X111217974Y-53212667D01*
X111163268Y-53393010D01*
X111074435Y-53559206D01*
X110952891Y-53707307D01*
X109792364Y-54867834D01*
X109600353Y-55036224D01*
X109389752Y-55176942D01*
X109162590Y-55288966D01*
X108922743Y-55370384D01*
X108674318Y-55419798D01*
X108419495Y-55436500D01*
X91477991Y-55436500D01*
X91287333Y-55417721D01*
X91106992Y-55363016D01*
X90940792Y-55274181D01*
X90795118Y-55154629D01*
X90675567Y-55008955D01*
X90586732Y-54842755D01*
X90532026Y-54662415D01*
X90513554Y-54474874D01*
X90532026Y-54287333D01*
X90586732Y-54106990D01*
X90675565Y-53940794D01*
X90797109Y-53792693D01*
X91957636Y-52632166D01*
X92149647Y-52463776D01*
X92360248Y-52323058D01*
X92587410Y-52211034D01*
X92827257Y-52129616D01*
X93075682Y-52080202D01*
X93330505Y-52063500D01*
X110272009Y-52063500D01*
X110462667Y-52082279D01*
G37*
D24*
X110462667Y-52082279D02*
X110643008Y-52136984D01*
X110809208Y-52225819D01*
X110954882Y-52345371D01*
X111074433Y-52491045D01*
X111163268Y-52657245D01*
X111217974Y-52837585D01*
X111236446Y-53025126D01*
X111217974Y-53212667D01*
X111163268Y-53393010D01*
X111074435Y-53559206D01*
X110952891Y-53707307D01*
X109792364Y-54867834D01*
X109600353Y-55036224D01*
X109389752Y-55176942D01*
X109162590Y-55288966D01*
X108922743Y-55370384D01*
X108674318Y-55419798D01*
X108419495Y-55436500D01*
X91477991Y-55436500D01*
X91287333Y-55417721D01*
X91106992Y-55363016D01*
X90940792Y-55274181D01*
X90795118Y-55154629D01*
X90675567Y-55008955D01*
X90586732Y-54842755D01*
X90532026Y-54662415D01*
X90513554Y-54474874D01*
X90532026Y-54287333D01*
X90586732Y-54106990D01*
X90675565Y-53940794D01*
X90797109Y-53792693D01*
X91957636Y-52632166D01*
X92149647Y-52463776D01*
X92360248Y-52323058D01*
X92587410Y-52211034D01*
X92827257Y-52129616D01*
X93075682Y-52080202D01*
X93330505Y-52063500D01*
X110272009Y-52063500D01*
X110462667Y-52082279D01*
G36*
X67275567Y-39583371D02*
G01*
X67545532Y-39642098D01*
X67804381Y-39738644D01*
X68046867Y-39871051D01*
X68268031Y-40036613D01*
X68463387Y-40231969D01*
X68628949Y-40453133D01*
X68761356Y-40695619D01*
X68857902Y-40954468D01*
X68916629Y-41224433D01*
X68936500Y-41502265D01*
X68936500Y-44497735D01*
X68916629Y-44775567D01*
X68857902Y-45045532D01*
X68761356Y-45304381D01*
X68628949Y-45546867D01*
X68463387Y-45768031D01*
X68268031Y-45963387D01*
X68046867Y-46128949D01*
X67804381Y-46261356D01*
X67545532Y-46357902D01*
X67275567Y-46416629D01*
X66997735Y-46436500D01*
X33002265Y-46436500D01*
X32724433Y-46416629D01*
X32454468Y-46357902D01*
X32195619Y-46261356D01*
X31953133Y-46128949D01*
X31731969Y-45963387D01*
X31536613Y-45768031D01*
X31371051Y-45546867D01*
X31238644Y-45304381D01*
X31142098Y-45045532D01*
X31083371Y-44775567D01*
X31063500Y-44497735D01*
X31063500Y-41502265D01*
X31083371Y-41224433D01*
X31142098Y-40954468D01*
X31238644Y-40695619D01*
X31371051Y-40453133D01*
X31536613Y-40231969D01*
X31731969Y-40036613D01*
X31953133Y-39871051D01*
X32195619Y-39738644D01*
X32454468Y-39642098D01*
X32724433Y-39583371D01*
X33002265Y-39563500D01*
X66997735Y-39563500D01*
X67275567Y-39583371D01*
G37*
X67275567Y-39583371D02*
X67545532Y-39642098D01*
X67804381Y-39738644D01*
X68046867Y-39871051D01*
X68268031Y-40036613D01*
X68463387Y-40231969D01*
X68628949Y-40453133D01*
X68761356Y-40695619D01*
X68857902Y-40954468D01*
X68916629Y-41224433D01*
X68936500Y-41502265D01*
X68936500Y-44497735D01*
X68916629Y-44775567D01*
X68857902Y-45045532D01*
X68761356Y-45304381D01*
X68628949Y-45546867D01*
X68463387Y-45768031D01*
X68268031Y-45963387D01*
X68046867Y-46128949D01*
X67804381Y-46261356D01*
X67545532Y-46357902D01*
X67275567Y-46416629D01*
X66997735Y-46436500D01*
X33002265Y-46436500D01*
X32724433Y-46416629D01*
X32454468Y-46357902D01*
X32195619Y-46261356D01*
X31953133Y-46128949D01*
X31731969Y-45963387D01*
X31536613Y-45768031D01*
X31371051Y-45546867D01*
X31238644Y-45304381D01*
X31142098Y-45045532D01*
X31083371Y-44775567D01*
X31063500Y-44497735D01*
X31063500Y-41502265D01*
X31083371Y-41224433D01*
X31142098Y-40954468D01*
X31238644Y-40695619D01*
X31371051Y-40453133D01*
X31536613Y-40231969D01*
X31731969Y-40036613D01*
X31953133Y-39871051D01*
X32195619Y-39738644D01*
X32454468Y-39642098D01*
X32724433Y-39583371D01*
X33002265Y-39563500D01*
X66997735Y-39563500D01*
X67275567Y-39583371D01*
M02*
