M48
; DRILL file {KiCad (5.99.0-1662-g9db296991)} date 05/30/20 17:55:20
; FORMAT={-:-/ absolute / inch / decimal}
; #@! TF.CreationDate,2020-05-30T17:55:20+05:30
; #@! TF.GenerationSoftware,Kicad,Pcbnew,(5.99.0-1662-g9db296991)
; #@! TF.FileFunction,Plated,1,2,PTH
FMAT,2
INCH
T1C0.0118
T2C0.0157
T3C0.0236
T4C0.0300
T5C0.0394
T6C0.0400
T7C0.0433
T8C0.0512
T9C0.0520
T10C0.0866
%
G90
G05
T1
X0.5906Y-4.1299
X0.7205Y-3.685
X0.7205Y-3.7362
X0.7874Y-2.9921
X0.7874Y-3.0315
X0.7874Y-3.0709
X0.7874Y-3.1102
X0.8268Y-2.9528
X0.8268Y-2.9921
X0.8268Y-3.0315
X0.8268Y-3.0709
X0.8268Y-3.1102
X0.8661Y-2.9528
X0.8661Y-2.9921
X0.8661Y-3.0315
X0.8661Y-3.0709
X0.8661Y-3.1102
X0.9055Y-2.9528
X0.9055Y-2.9921
X0.9055Y-3.0315
X0.9449Y-2.9528
X0.9449Y-2.9921
X0.9449Y-3.0315
X1.185Y-4.0866
X1.2047Y-3.4921
X1.2402Y-1.6535
X1.2402Y-1.7323
X1.2598Y-1.6142
X1.2598Y-1.6929
X1.2598Y-1.7717
X1.2638Y-3.5866
X1.2795Y-1.5748
X1.2795Y-1.6535
X1.2795Y-1.7323
X1.2795Y-1.811
X1.2992Y-1.6142
X1.2992Y-1.6929
X1.2992Y-1.7717
X1.3031Y-3.9961
X1.3189Y-1.5748
X1.3189Y-1.6535
X1.3189Y-1.7323
X1.3189Y-1.811
X1.3386Y-1.6142
X1.3386Y-1.7717
X1.3583Y-1.5748
X1.3583Y-1.6535
X1.3701Y-4.1102
X1.378Y-1.6142
X1.378Y-1.7717
X1.3976Y-1.5748
X1.3976Y-1.6535
X1.3976Y-1.7323
X1.3976Y-1.811
X1.4173Y-1.6142
X1.4173Y-1.6929
X1.4173Y-1.7717
X1.4173Y-3.189
X1.437Y-1.5748
X1.437Y-1.6535
X1.437Y-1.7323
X1.437Y-1.811
X1.437Y-3.1693
X1.437Y-3.2087
X1.4528Y-3.4646
X1.4567Y-1.6142
X1.4567Y-1.6929
X1.4567Y-1.7717
X1.4567Y-3.189
X1.4567Y-3.622
X1.4764Y-1.5748
X1.4764Y-1.6535
X1.4764Y-1.7323
X1.4764Y-1.811
X1.4764Y-3.1693
X1.4764Y-3.2087
X1.4961Y-1.6142
X1.4961Y-1.6929
X1.4961Y-3.189
X1.5157Y-1.5748
X1.5157Y-1.6535
X1.5157Y-3.1693
X1.5157Y-3.2087
X1.5354Y-1.6142
X1.5354Y-3.622
X1.5551Y-1.5748
X1.5551Y-1.6535
X1.5748Y-1.6142
X1.5945Y-1.5748
X1.5945Y-1.6535
X1.6142Y-1.6142
X1.6142Y-1.6929
X1.6339Y-1.6535
X1.6339Y-1.7323
X1.6732Y-3.0315
X1.6732Y-3.622
X1.6732Y-4.6575
X1.7323Y-3.2283
X1.7323Y-3.4252
X1.7737Y-4.5297
X1.811Y-3.0315
X1.811Y-3.2283
X1.811Y-3.4252
X1.811Y-3.622
X1.9488Y-3.0315
X1.9685Y-4.7244
X2.1457Y-4.7047
X2.1772Y-3.7283
X2.1811Y-3.6378
X2.2482Y-3.0435
X2.2559Y-3.5276
X2.3444Y-3.2577
X2.3465Y-3.1069
X2.3465Y-3.1693
X2.3465Y-3.3622
X2.3465Y-3.4961
X2.4409Y-3.5
X2.4803Y-3.3071
X2.4803Y-3.4252
X2.4843Y-3.0906
X2.4921Y-3.5354
X2.5Y-3.5748
X2.5315Y-3.0551
X2.5315Y-3.2559
X2.5354Y-3.2165
X2.5394Y-1.5748
X2.5394Y-1.6535
X2.5394Y-1.7323
X2.5394Y-1.811
X2.5472Y-2.8996
X2.5591Y-1.6142
X2.5591Y-1.6929
X2.5591Y-1.7717
X2.5787Y-1.5748
X2.5787Y-1.6535
X2.5787Y-1.7323
X2.5787Y-1.811
X2.5827Y-3.5748
X2.5862Y-2.9374
X2.5945Y-3.5354
X2.5984Y-1.6142
X2.5984Y-1.6929
X2.5984Y-1.7717
X2.6181Y-1.5748
X2.6181Y-1.6535
X2.6181Y-1.7323
X2.6181Y-1.811
X2.6299Y-3.4882
X2.6378Y-1.6142
X2.6378Y-1.6929
X2.6378Y-1.7717
X2.6478Y-3.1886
X2.6539Y-3.2283
X2.6575Y-1.5748
X2.6575Y-1.6535
X2.6575Y-1.7323
X2.6575Y-1.811
X2.6772Y-1.6142
X2.6772Y-1.6929
X2.6772Y-1.7717
X2.7165Y-2.9921
X2.7165Y-3.0709
X2.7165Y-3.1496
X2.7165Y-3.2283
X2.7205Y-3.7362
X2.7205Y-3.8228
X2.7362Y-3.9685
X2.7559Y-3.3858
X2.8031Y-3.0591
X2.815Y-3.9646
X2.8229Y-3.0814
X2.8346Y-3.3898
X2.8346Y-3.7362
X2.8346Y-3.8228
X2.8422Y-3.0549
X2.8626Y-3.075
X2.8819Y-3.0512
X2.9528Y-2.9921
X2.9913Y-4.8264
X2.9921Y-3.6614
X3.0175Y-4.8072
X3.0315Y-2.9921
X3.0315Y-3.5945
X3.0386Y-4.7874
X3.0512Y-3.563
X3.0626Y-4.7669
X3.0709Y-3.1496
X3.0709Y-3.2323
X3.0709Y-3.6614
X3.1228Y-4.8472
X3.1544Y-4.8488
X3.1831Y-4.8486
X3.189Y-1.7323
X3.2047Y-1.689
X3.2068Y-1.7698
X3.2226Y-1.7266
X3.2713Y-3.1378
X3.2714Y-3.4739
X3.4715Y-3.7013
X3.4916Y-3.7218
X3.5765Y-3.3277
X3.5796Y-3.3562
X3.5827Y-2.1654
X3.5866Y-2.1299
X3.5913Y-3.7178
X3.5917Y-3.3957
X3.6024Y-2.1457
X3.6073Y-2.1075
X3.622Y-2.0866
X3.622Y-2.126
X3.622Y-2.1654
X3.6417Y-2.0669
X3.6417Y-2.1063
X3.6417Y-2.1457
X3.6614Y-2.0866
X3.6614Y-2.126
X3.6811Y-2.0669
X3.6811Y-2.1063
X3.9818Y-4.0988
X3.9856Y-3.9471
X4.0022Y-4.1189
X4.0055Y-4.0218
X4.0218Y-4.1398
X4.0415Y-4.1605
X4.0481Y-4.0381
X4.0525Y-4.07
X4.062Y-4.1804
X4.076Y-3.9453
X4.0838Y-4.199
X4.0954Y-3.9684
X4.1027Y-4.2206
X4.1166Y-4.1342
X4.1369Y-4.1544
X4.1413Y-4.2559
X4.1683Y-4.1822
X4.1799Y-4.2913
X4.208Y-4.2242
X4.2205Y-4.3228
X4.252Y-2.1457
X4.2717Y-2.126
X4.2717Y-2.1654
X4.2913Y-2.1063
X4.2913Y-2.1457
X4.311Y-2.0866
X4.311Y-2.126
X4.311Y-2.1654
X4.3307Y-2.0669
X4.3307Y-2.1063
X4.3307Y-2.1457
X4.3504Y-2.0866
X4.3504Y-2.126
X4.3701Y-2.0669
X4.3701Y-2.1063
X4.5472Y-3.937
X4.5472Y-4.0945
X4.6063Y-3.8189
T2
X5.0138Y-0.5906
X5.0328Y-0.5446
X5.0328Y-0.6365
X5.0787Y-0.5256
X5.0787Y-0.6555
X5.1247Y-0.5446
X5.1247Y-0.6365
X5.1437Y-0.5906
X0.5197Y-0.5906
X5.0138Y-5.065
X5.0328Y-5.019
X5.0328Y-5.1109
X5.0787Y-5.0
X5.0787Y-5.1299
X5.1247Y-5.019
X5.1247Y-5.1109
X5.1437Y-5.065
X0.5387Y-0.5446
X0.5387Y-0.6365
X0.5846Y-0.5256
X0.5846Y-0.6555
X0.6306Y-0.5446
X0.6306Y-0.6365
X0.6496Y-0.5906
X0.5256Y-5.0787
X0.5446Y-5.0328
X0.5446Y-5.1247
X0.5906Y-5.0138
X0.5906Y-5.1437
X0.6365Y-5.0328
X0.6365Y-5.1247
X0.6555Y-5.0787
T3
X0.7047Y-3.9764
X0.7047Y-4.3465
X0.9843Y-3.4843
X0.9843Y-3.9134
X1.1417Y-3.437
X1.189Y-3.9961
X1.2205Y-3.626
X1.2992Y-4.0866
X1.9173Y-4.3583
X1.9488Y-3.2283
X1.9488Y-3.4252
X2.2638Y-4.5472
X3.0315Y-3.698
T4
X1.3583Y-0.689
X1.3583Y-1.0433
X1.3583Y-1.3976
X2.9331Y-0.689
X2.9331Y-0.9646
X2.9331Y-1.122
X2.9331Y-1.3976
X3.5827Y-1.6929
X3.5827Y-1.7929
X3.5827Y-1.8929
X3.5827Y-2.2929
X3.5827Y-2.3929
X4.3327Y-1.6929
X4.3327Y-1.7929
X4.3327Y-2.2929
X4.3327Y-2.3929
X1.3583Y-1.7126
X1.3583Y-2.0669
X1.3583Y-2.4213
X2.9331Y-1.7126
X2.9331Y-1.9882
X2.9331Y-2.1457
X2.9331Y-2.4213
T5
X1.5748Y-4.8228
X1.9748Y-4.8228
X1.2205Y-4.7047
X1.3189Y-4.9016
X1.4173Y-4.7047
X2.2803Y-3.7402
X2.2803Y-3.8402
X2.3803Y-3.7402
X2.3803Y-3.8402
X2.4803Y-3.7402
X2.4803Y-3.8402
X1.0071Y-5.1142
X1.1071Y-5.1142
X1.2071Y-5.1142
X1.3071Y-5.1142
X1.4071Y-5.1142
X1.5071Y-5.1142
X1.6748Y-4.8228
X1.7748Y-4.8228
X1.8748Y-4.8228
X3.4388Y-1.0856
X2.0748Y-4.8228
X2.1748Y-4.8228
X2.2748Y-4.8228
X3.4388Y-0.7856
X3.4388Y-0.8856
X3.4388Y-0.9856
X3.4388Y-1.1856
X3.4388Y-1.2856
X1.6071Y-5.1142
X1.7071Y-5.1142
X1.8071Y-5.1142
X1.9071Y-5.1142
X2.0071Y-5.1142
X2.1071Y-5.1142
X2.2071Y-5.1142
X2.3071Y-5.1142
X2.4071Y-5.1142
X2.5071Y-5.1142
X5.1378Y-4.0551
X5.1378Y-4.1551
T6
X4.0551Y-4.9492
X4.0551Y-5.0492
X4.1551Y-4.9492
X4.1551Y-5.0492
X4.2551Y-4.9492
X4.2551Y-5.0492
X4.3551Y-4.9492
X4.3551Y-5.0492
X4.4551Y-4.9492
X4.4551Y-5.0492
X4.5551Y-4.9492
X4.5551Y-5.0492
X4.6551Y-4.9492
X4.6551Y-5.0492
X4.7551Y-4.9492
X4.7551Y-5.0492
X2.9146Y-4.9504
X2.9146Y-5.0504
X3.0146Y-4.9504
X3.0146Y-5.0504
X3.1146Y-4.9504
X3.1146Y-5.0504
X3.2146Y-4.9504
X3.2146Y-5.0504
X3.3146Y-4.9504
X3.3146Y-5.0504
X3.4146Y-4.9504
X3.4146Y-5.0504
X3.5146Y-4.9504
X3.5146Y-5.0504
X3.6146Y-4.9504
X3.6146Y-5.0504
T7
X4.8228Y-4.1332
X4.8228Y-4.2332
X4.8228Y-4.3332
T8
X4.9508Y-2.6772
X4.9508Y-2.874
X4.9508Y-3.0709
X4.9508Y-3.2677
X4.9508Y-3.4646
X4.9508Y-3.6614
T9
X0.748Y-0.9449
X0.748Y-1.1417
X0.748Y-1.3386
X0.748Y-1.5354
X4.9606Y-1.7028
X4.9606Y-1.8996
X4.9606Y-2.0965
X4.9606Y-2.2933
T10
X5.0787Y-0.5906
X0.5846Y-0.5906
X5.0787Y-5.065
X0.5906Y-5.0787
T3
G00X0.6024Y-3.5287
M15
G01X0.5787Y-3.5287
M16
G05
G00X0.6024Y-3.8689
M15
G01X0.5787Y-3.8689
M16
G05
G00X0.7768Y-3.5287
M15
G01X0.7335Y-3.5287
M16
G05
G00X0.7768Y-3.8689
M15
G01X0.7335Y-3.8689
M16
G05
T0
M30
